<svg xmlns="http://www.w3.org/2000/svg" version="1.1" viewBox="-5.0 -10.0 110.0 135.0">
 <path d="m80.465 53.391v18.27c0 10.109-8.2266 18.336-18.336 18.336h-9.9102c-6.7305 0-12.52-3.3438-15.883-9.168l-11.27-19.52c-1.082-1.8828-0.4375-4.2969 1.4375-5.3789 4.2305-2.4414 9.4102-1.1172 11.793 3.0156l2.8594 4.9492v-27.441c0-3.2266 2.625-5.8555 5.8516-5.8555 3.2266 0 5.8555 2.625 5.8555 5.8555v10.555c0.99219-0.77344 2.2383-1.2383 3.5938-1.2383 1.9375 0 3.6602 0.94531 4.7266 2.4023 1.0664-1.4531 2.7852-2.4023 4.7227-2.4023 2.4141 0 4.4961 1.4727 5.3906 3.5664 0.97656-0.89063 2.2734-1.4336 3.6953-1.4336 3.0234 0 5.4844 2.4648 5.4844 5.4922zm-31.047-30.285v-10.684c0-1.3359-1.082-2.418-2.418-2.418s-2.418 1.082-2.418 2.418v10.684c0 1.3359 1.082 2.418 2.418 2.418s2.418-1.082 2.418-2.418zm-14.359 14.359c0-1.3359-1.082-2.418-2.418-2.418h-10.684c-1.3359 0-2.418 1.082-2.418 2.418 0 1.3359 1.082 2.418 2.418 2.418h10.684c1.3359 0 2.418-1.082 2.418-2.418zm39.41 0c0-1.3359-1.082-2.418-2.418-2.418h-10.684c-1.3359 0-2.418 1.082-2.418 2.418 0 1.3359 1.082 2.418 2.418 2.418h10.684c1.3359 0 2.418-1.082 2.418-2.418zm-34.898-7.4219c0.94531-0.94531 0.94531-2.4766 0.003907-3.4219l-4.6133-4.6172c-0.94531-0.94531-2.4766-0.94531-3.4219-0.003906-0.94531 0.94531-0.94531 2.4766-0.003906 3.4219l4.6133 4.6172c0.47266 0.47266 1.0938 0.71094 1.7109 0.71094 0.62109 0 1.2383-0.23438 1.7109-0.70703zm18.281 0 4.6133-4.6172c0.94531-0.94531 0.94531-2.4766-0.003906-3.4219-0.94531-0.94531-2.4766-0.94531-3.4219 0.003906l-4.6133 4.6172c-0.94531 0.94531-0.94531 2.4766 0.003907 3.4219 0.47266 0.47266 1.0898 0.70703 1.7109 0.70703 0.61719 0 1.2383-0.23438 1.7109-0.71094z"/>
<text x="0.0" y="117.5" font-size="5.0" font-weight="bold" font-family="Arbeit Regular, Helvetica, Arial-Unicode, Arial, Sans-serif" fill="#000000">Created by Putri Amaliya</text><text x="0.0" y="122.5" font-size="5.0" font-weight="bold" font-family="Arbeit Regular, Helvetica, Arial-Unicode, Arial, Sans-serif" fill="#000000">from Noun Project</text></svg>