<svg width="270" height="22.5" viewBox="0 0 270 22.5" fill="none" xmlns="http://www.w3.org/2000/svg">
<g transform="scale( 1.5 )">
<path d="M37.0755 8.34412C37.457 8.12492 37.8669 7.94123 38.2089 7.67183C39.6375 6.55012 40.087 4.44875 39.2671 2.82987C38.4769 1.29425 37.1557 0.520324 35.4716 0.47379C33.0478 0.407663 30.6216 0.451748 28.1966 0.450524C28.1407 0.453353 28.085 0.459899 28.0299 0.470117V13.96H29.9561V8.73476H34.7542L38.3238 13.96H40.5018C39.2387 12.1023 38.0114 10.2973 36.7754 8.4776C36.8778 8.43849 36.978 8.39393 37.0755 8.34412ZM35.0295 6.90157C33.4071 6.91627 31.7859 6.90892 30.1635 6.90157C30.1042 6.90157 30.04 6.89422 29.9622 6.88933V2.33759C29.9842 2.32551 30.008 2.31684 30.0326 2.31187C31.8267 2.31187 33.622 2.29106 35.416 2.33759C36.3001 2.36086 37.0446 2.75517 37.4743 3.57318C37.6105 3.83263 37.6939 4.11616 37.7196 4.40758C37.7453 4.69899 37.7129 4.99258 37.6241 5.27155C37.5354 5.55052 37.3921 5.80941 37.2024 6.03342C37.0127 6.25742 36.7803 6.44216 36.5186 6.57706C36.3696 6.65458 36.2122 6.71497 36.0494 6.75707C35.7165 6.8454 35.3741 6.89391 35.0295 6.90157Z" fill="#FF00B4"/>
<path d="M63.1499 8.41277H67.2381V10.7027C66.792 11.1546 66.262 11.5168 65.6774 11.7693C64.2671 12.3789 62.6898 12.4955 61.204 12.1C59.8631 11.762 58.8111 11.0113 58.1369 9.78919C57.5196 8.67116 57.3714 7.4723 57.5924 6.23793C57.8579 4.74885 58.6135 3.56714 59.9606 2.82015C61.3435 2.05357 62.8252 1.93478 64.3451 2.3095C64.9338 2.44202 65.4857 2.70197 65.9613 3.07075C66.4369 3.43954 66.8244 3.90803 67.0961 4.44271C67.1269 4.50026 67.1652 4.55414 67.2072 4.6215L68.8383 3.67368C68.8037 3.60265 68.7827 3.55122 68.7592 3.51203C68.1497 2.36829 67.1686 1.46215 65.9749 0.940431C63.9821 0.0513913 61.9386 0.0195525 59.9038 0.768991C58.0085 1.467 56.7195 2.8079 56.0157 4.68762C55.5664 5.88888 55.4426 7.18595 55.6564 8.44951C55.8585 9.85739 56.5203 11.1608 57.5406 12.16C58.821 13.4054 60.4014 13.9895 62.1584 14.1376C63.5317 14.2714 64.9174 14.0809 66.2021 13.5817C67.2632 13.156 68.2216 12.513 69.0148 11.6946V6.65306H63.1499V8.41277Z" fill="#FF00B4"/>
<path d="M51.7807 0.466747V8.28809C51.7854 8.63108 51.766 8.97398 51.7226 9.31428C51.5399 10.5756 50.9077 11.5271 49.6792 11.9839C48.4234 12.4577 47.0363 12.4603 45.7787 11.9912C45.3355 11.8404 44.9334 11.59 44.6038 11.2597C44.2742 10.9294 44.0259 10.5281 43.8785 10.087C43.6924 9.526 43.6064 8.93716 43.6241 8.34687V0.463074H41.6806V8.42892C41.6697 9.11616 41.7595 9.80133 41.9473 10.4629C42.3622 11.8443 43.2031 12.8913 44.5217 13.4962C46.4467 14.3791 48.4284 14.4012 50.4151 13.6995C51.3816 13.3652 52.2126 12.7287 52.7833 11.8859C53.388 10.9944 53.7081 9.94299 53.7019 8.86854C53.7266 6.1157 53.7167 3.36409 53.7192 0.611247C53.7157 0.562487 53.7078 0.514131 53.6957 0.466747H51.7807Z" fill="#FF00B4"/>
<path d="M81.8993 7.40757C81.6795 7.29613 81.4437 7.21409 81.1918 7.10877C81.2659 7.05734 81.3153 7.02183 81.3622 6.98632C81.7905 6.71838 82.1401 6.34334 82.3759 5.8989C83.6106 3.52445 81.924 0.657727 79.2274 0.60507C76.7579 0.557312 74.2885 0.587926 71.8191 0.584253C71.7832 0.584253 71.7487 0.594049 71.7042 0.598948V14.0827H79.7953C80.0125 14.0821 80.2293 14.0686 80.4448 14.0423C82.3809 13.8182 83.6847 12.4406 83.7378 10.5229C83.7749 9.11217 83.1723 8.05537 81.8993 7.40757ZM73.6415 2.44928C73.7181 2.44928 73.7897 2.43581 73.8613 2.43581H78.7495C79.4188 2.43581 80.0225 2.60847 80.4325 3.17055C80.9029 3.81345 80.9436 4.5335 80.6695 5.25232C80.4053 5.95155 79.8534 6.31403 79.1101 6.39362C79.0212 6.4022 78.931 6.41689 78.8409 6.41812H73.7786C73.7427 6.41812 73.7069 6.41077 73.6477 6.40465L73.6415 2.44928ZM81.7413 10.7433C81.5412 11.6728 80.851 12.2128 79.8089 12.2226C77.7963 12.2422 75.7837 12.2226 73.7711 12.2226C73.7296 12.22 73.6883 12.2142 73.6477 12.2054V8.22069C73.6699 8.21385 73.6926 8.20853 73.7156 8.20477C75.78 8.20477 77.8457 8.18517 79.9102 8.21334C81.3252 8.23416 82.0154 9.45016 81.7413 10.7433Z" fill="#FF00B4"/>
<path d="M111.299 10.9659L102.762 0.601074H101.011V14.0616H102.952V3.79598L102.999 3.78006L111.485 14.0665H113.236V0.604748H111.299V10.9659Z" fill="#FF00B4"/>
<path d="M122.15 6.25155C124.043 4.37795 125.924 2.52885 127.797 0.669944L127.749 0.605042H125.376L117.704 8.17168L117.647 8.13739V0.612389H115.732V14.057H117.66V10.8045C118.759 9.68035 119.782 8.63334 120.818 7.57531L125.781 14.0655H127.949L128 14.0068L122.15 6.25155Z" fill="#FF00B4"/>
<path d="M91.1179 0.595154C91.0845 0.66373 91.0512 0.729857 91.0203 0.797208C90.2104 2.5361 89.4008 4.2754 88.5916 6.01511L84.985 13.7728C84.9492 13.8667 84.9211 13.9633 84.9011 14.0618H86.9384L88.2731 11.1228H95.7493L97.0841 14.0716H99.172C97.0729 9.54923 94.9875 5.07342 92.9107 0.601277L91.1179 0.595154ZM89.1423 9.24186C90.0992 7.12825 91.045 5.03913 92.0143 2.89613L94.9048 9.24186H89.1423Z" fill="#FF00B4"/>
<path d="M18.6666 0H13.8166C13.8166 0 14.2611 0.638002 14.6932 1.91891H18.6666C20.0482 1.91891 21.3732 2.46323 22.3501 3.43213C23.327 4.40103 23.8759 5.71514 23.8759 7.08538C23.8759 8.45561 23.327 9.76972 22.3501 10.7386C21.3732 11.7075 20.0482 12.2518 18.6666 12.2518H14.7846C14.3265 13.5903 13.8166 14.1708 13.8166 14.1708H18.6666C20.5613 14.1708 22.3784 13.4243 23.7182 12.0955C25.058 10.7667 25.8107 8.96453 25.8107 7.08538C25.8107 5.20622 25.058 3.40402 23.7182 2.07526C22.3784 0.746493 20.5613 0 18.6666 0Z" fill="#FF00B4"/>
<path d="M12.7512 0H7.13688C6.08622 0.000701683 5.04866 0.231312 4.09818 0.675385C3.14771 1.11946 2.30773 1.76605 1.63816 2.56907C0.968591 3.37208 0.485915 4.31172 0.224554 5.32099C-0.0368061 6.33026 -0.0704122 7.38429 0.126133 8.40792C0.143419 8.49608 0.161939 8.58425 0.181695 8.6712C0.20145 8.75814 0.229849 8.8708 0.257013 8.96877C0.323848 9.20804 0.403812 9.44351 0.496549 9.67412C0.561989 9.83944 0.631133 10.0023 0.708921 10.164C1.28979 11.3664 2.20187 12.3814 3.33977 13.0915C4.47767 13.8016 5.79493 14.1779 7.13935 14.1769H12.7536C12.7536 14.1769 14.4415 12.258 14.4415 7.33519C14.4415 2.41241 12.7512 0 12.7512 0ZM2.34863 8.50466C2.33011 8.43241 2.30788 8.36383 2.2906 8.29036C1.99056 6.9372 2.13132 5.61711 2.8524 4.40846C3.81671 2.79325 5.32925 1.97034 7.16404 1.93727C7.16404 1.93727 2.93142 4.286 2.34863 8.50466Z" fill="#FF00B4"/>
<path d="M139.289 12.5469C138.586 12.9531 137.781 13.1562 136.875 13.1562C135.969 13.1562 135.164 12.9531 134.461 12.5469C133.758 12.1406 133.206 11.5521 132.805 10.7812C132.404 10.0104 132.203 9.11198 132.203 8.08594V7.67188C132.203 6.64583 132.404 5.7474 132.805 4.97656C133.206 4.20573 133.758 3.61719 134.461 3.21094C135.164 2.80469 135.969 2.60156 136.875 2.60156C137.781 2.60156 138.586 2.80469 139.289 3.21094C139.992 3.61719 140.544 4.20573 140.945 4.97656C141.346 5.7474 141.547 6.64583 141.547 7.67188V8.08594C141.547 9.11198 141.346 10.0104 140.945 10.7812C140.544 11.5521 139.992 12.1406 139.289 12.5469ZM136.859 11.7344C137.807 11.7344 138.565 11.401 139.133 10.7344C139.706 10.0677 139.992 9.16406 139.992 8.02344V7.73438C139.992 6.59375 139.706 5.6901 139.133 5.02344C138.565 4.35677 137.807 4.02344 136.859 4.02344C135.922 4.02344 135.169 4.35938 134.602 5.03125C134.034 5.69792 133.75 6.59896 133.75 7.73438V8.02344C133.75 9.15885 134.034 10.0625 134.602 10.7344C135.169 11.401 135.922 11.7344 136.859 11.7344ZM144.109 13V5H145.5V5.96094C146.135 5.21615 146.948 4.84375 147.938 4.84375C148.792 4.84375 149.471 5.08333 149.977 5.5625C150.482 6.03646 150.734 6.75 150.734 7.70312V13H149.344V7.92969C149.344 7.30469 149.18 6.84375 148.852 6.54688C148.529 6.25 148.083 6.10156 147.516 6.10156C147.094 6.10156 146.711 6.21094 146.367 6.42969C146.023 6.64323 145.734 6.92448 145.5 7.27344V13H144.109ZM153.453 13V1.15625H154.844V13H153.453ZM159.375 2.14844V2.25C159.375 2.55729 159.281 2.79948 159.094 2.97656C158.906 3.15365 158.661 3.24219 158.359 3.24219C158.078 3.24219 157.849 3.15365 157.672 2.97656C157.495 2.79948 157.406 2.55729 157.406 2.25V2.14844C157.406 1.84635 157.495 1.60677 157.672 1.42969C157.854 1.2474 158.083 1.15625 158.359 1.15625C158.661 1.15625 158.906 1.2474 159.094 1.42969C159.281 1.60677 159.375 1.84635 159.375 2.14844ZM159.086 13H157.688V5H159.086V13ZM161.938 13V5H163.328V5.96094C163.964 5.21615 164.776 4.84375 165.766 4.84375C166.62 4.84375 167.299 5.08333 167.805 5.5625C168.31 6.03646 168.562 6.75 168.562 7.70312V13H167.172V7.92969C167.172 7.30469 167.008 6.84375 166.68 6.54688C166.357 6.25 165.911 6.10156 165.344 6.10156C164.922 6.10156 164.539 6.21094 164.195 6.42969C163.852 6.64323 163.562 6.92448 163.328 7.27344V13H161.938ZM170.883 9.24219V8.77344C170.883 7.57031 171.201 6.61458 171.836 5.90625C172.471 5.19792 173.315 4.84375 174.367 4.84375C175.482 4.84375 176.336 5.17708 176.93 5.84375C177.529 6.51042 177.828 7.41927 177.828 8.57031C177.828 8.9974 177.818 9.32812 177.797 9.5625H172.289C172.362 10.3281 172.638 10.8958 173.117 11.2656C173.602 11.6302 174.206 11.8125 174.93 11.8125C175.388 11.8125 175.849 11.7474 176.312 11.6172C176.776 11.4818 177.169 11.2917 177.492 11.0469V12.5234C176.711 12.9453 175.786 13.1562 174.719 13.1562C174.312 13.1562 173.924 13.1068 173.555 13.0078C173.185 12.9141 172.836 12.763 172.508 12.5547C172.185 12.3411 171.901 12.0833 171.656 11.7812C171.417 11.4792 171.227 11.112 171.086 10.6797C170.951 10.2422 170.883 9.76302 170.883 9.24219ZM174.383 6.10156C173.768 6.10156 173.281 6.30208 172.922 6.70312C172.562 7.10417 172.352 7.66667 172.289 8.39062H176.398C176.398 7.65625 176.221 7.09115 175.867 6.69531C175.518 6.29948 175.023 6.10156 174.383 6.10156Z" fill="#FF00B4"/>
</g>
</svg>
