<svg id="Layer_1" enable-background="new 0 0 512 512" viewBox="0 0 512 512" xmlns="http://www.w3.org/2000/svg" width="300" height="300" version="1.1" xmlns:xlink="http://www.w3.org/1999/xlink" xmlns:svgjs="http://svgjs.dev/svgjs"><g width="100%" height="100%" transform="matrix(1,0,0,1,0,0)"><g><path d="m447.63 183.94-1.98-2.94c-29.44-43.72-82.98-64.49-134.2-52.07l-2.97.72 51.34-13.16 43.88-4.26c6.41-.62 10.92-6.58 9.77-12.92l-3.74-20.69c-1.02-5.67-6.25-9.59-11.98-9l-78.44 8.16 5.91-33.78c.97-5.58-2.91-10.85-8.54-11.56l-17.04-2.16c-5.09-.65-9.84 2.7-10.95 7.71l-4.81 21.78c-2.52 11.41-10.02 21.1-20.43 26.42l-7.64 3.9c-33.07 16.87-59.14 44.86-73.63 79.04l-17.65 41.65c-12.97 30.61-35.95 55.91-65.17 71.76l-30.27 16.42-4.41 1.74c3.09 19.45 9.49 38.49 19.16 56.23 29.59 54.28 73.58 99.35 127.14 130.23 23.17 13.36 52.1 11.46 73.32-4.82 34.54-26.49 60.59-62.5 74.94-103.6 20.68-59.24 20.98-123.68.84-183.11l-3.22-9.52c19.14-.37 38.43 5.49 54.63 17.72l6.89 5.2c3.89 2.94 9.25 2.94 13.14 0l13.64-10.29c4.62-3.49 5.71-9.99 2.47-14.8z" fill="#ee7067" fill-opacity="1" data-original-color="#ee7067ff" stroke="none" stroke-opacity="1"/></g><g><path d="m284.93 221.52 9.4 10.34c4.52 4.98 10.93 7.81 17.65 7.81h21.44c6.27 0 11.84 4.01 13.83 9.95l10.38 30.99c1.8 5.37 6.54 9.22 12.17 9.86l5.11.58c.58-32.21-4.35-64.5-14.82-95.43l-2.25-6.63-32.28-1.36z" fill="#cd5252" fill-opacity="1" data-original-color="#cd5252ff" stroke="none" stroke-opacity="1"/></g><g><path d="m163.89 401.67c-8.48-8.98-10.93-22.08-6.28-33.52l11.27-27.74c4.88-11.99 1.92-25.75-7.45-34.68l-39.86-38.02c-6.9 5.57-14.32 10.54-22.2 14.81l-30.27 16.42-4.41 1.74c3.09 19.45 9.49 38.49 19.16 56.23 19.8 36.33 46.06 68.53 77.32 95.11.06.05.13.11.19.16 8.38 7.04 21.18 1.02 21.18-9.92v-8.32c0-8.05-3.08-15.79-8.61-21.64z" fill="#cd5252" fill-opacity="1" data-original-color="#cd5252ff" stroke="none" stroke-opacity="1"/></g><g><path d="m63.97 295.73c-4.29-33.01.88-67.03 15.6-97.88l16.55-34.67c10.74-22.51 6.54-49.31-10.57-67.45l-18.88-20.01c-3.36-3.57-3.5-9.09-.32-12.83l23.39-27.44c3.61-4.23 10.05-4.53 14.03-.64l48.83 47.69 2.62-11.08c4.5-19 13.47-36.66 26.16-51.5l1.69-1.98c1.61-1.89 4.29-2.47 6.54-1.43l39.36 18.18c2.98 1.38 4.12 5.02 2.45 7.85l-3.8 6.45c-14.92 25.29-24.32 53.44-27.59 82.62l-.93 8.28-28.94 57.61s-39.05 61.87-40.71 63.39-58.91 37.28-58.91 37.28z" fill="#51a6c0" fill-opacity="1" data-original-color="#51a6c0ff" stroke="none" stroke-opacity="1"/></g><g><path d="m113.18 259.72c-6.4-6.1-8.61-15.4-5.63-23.73l14.37-40.18c2.98-8.32.78-17.62-5.62-23.72l-17.2-16.43c-.82 2.55-1.81 5.06-2.98 7.52l-16.55 34.67c-14.73 30.85-19.89 64.87-15.6 97.88l6.58 2.43s33.49-20.92 49.99-31.44z" fill="#3a8fa3" fill-opacity="1" data-original-color="#3a8fa3ff" stroke="none" stroke-opacity="1"/></g><g><path d="m291.81 442.2c7.79-10.5 15.55-20.82 22.7-31.72 7.24-10.83 13.71-22.01 20.33-33.29 0 0 .89.38.89.38-5.73 18.99-16.12 36.47-29.06 51.44-4.34 4.98-9.02 9.68-14.15 13.85z" fill="#ffffff" fill-opacity="1" data-original-color="#ffffffff" stroke="none" stroke-opacity="1"/></g><g><path d="m280.16 453.59c.44-4.18 3.74-7.31 7.93-7.56 0 0 .68.68.68.68-.4 4.14-3.8 7.4-7.96 7.6.01 0-.65-.72-.65-.72z" fill="#ffffff" fill-opacity="1" data-original-color="#ffffffff" stroke="none" stroke-opacity="1"/></g><g><path d="m190.08 107.55c.23-11.33 2.63-22.51 6.19-33.24 3.65-10.69 8.48-21.06 15.13-30.24 0 0 .85.45.85.45-5.73 15.71-11.51 31.18-16.31 47.18-1.62 5.3-3.17 10.64-4.9 16.01z" fill="#ffffff" fill-opacity="1" data-original-color="#ffffffff" stroke="none" stroke-opacity="1"/></g><path d="m458.41 179.22c-.88-1.57-2.13-3.21-3.15-4.69-2.21-2.88-4.45-5.83-6.71-8.67-4.34-4.98-8.95-9.82-13.89-14.21-6.97-6-14.5-11.51-22.6-15.9 0 0-3.42-1.94-3.42-1.94-1.75-.87-5.35-2.51-7.11-3.36-5.83-2.6-11.87-4.73-18.03-6.42 6.94-.48 16.88-1.16 18.89-1.34 9.51-.12 17.9-5.75 20.89-14.94 1.04-3.16 1.33-6.6.84-9.88l-.82-5.24-1.61-10.01-.81-5-.1-.63s-.05-.31-.05-.31c-1.82-11.47-12.92-19.75-24.43-18.41-4.39.35-13.29 1.2-17.68 1.58-14.25 1.29-29.53 2.7-44.29 4.11 1.16-6.42 2.29-12.85 3.34-19.24 1.53-11.76-7.47-23.23-19.22-24.65-.69-.07-3.58-.5-4.33-.57-3.81-.46-9.6-1.22-13.36-1.65-10.67-1.3-21.4 6.07-23.97 16.51-1.46 6.28-3.11 14.19-4.5 20.5-1.47 8.77-6.05 15.91-13.74 20.2-3.45 1.9-6.89 3.53-10.42 5.55-15.36 8.3-29.38 19.11-41.39 31.77.07-.28.14-.57.21-.85 5.36-20.95 13.93-41.04 25.44-59.33 0 0 3.9-6.24 3.9-6.24.25-.39.49-.8.7-1.22 2.08-4.04 1.44-9.16-1.5-12.64-1.34-1.66-3.2-2.73-5.1-3.61-1.56-.8-27.43-13.53-29.72-14.69 0 0-6.6-3.26-6.6-3.26-1.74-.94-4.08-1.87-6.2-1.91-4.09-.28-8.23 1.63-10.82 4.8l-1.23 1.37-2.55 2.94c-8.41 10-15.37 21.24-20.44 33.33-1.91 4.45-3.52 9.13-4.91 13.85l-34.04-34.41-2.82-2.84-.2-.2c-1.85-1.79-4.04-3.26-6.44-4.22-7.68-3.28-17.29-.87-22.61 5.5-1.62 1.82-6.26 7.19-7.91 9.03-3.48 4.06-12.47 14.11-15.84 18.08-7.42 8.62-6.23 21.25 1.95 28.9 3.89 4.21 13.41 14.51 17.31 18.74l.26.31 1.05 1.24 1.06 1.23c.33.43.64.88.96 1.31 10.78 14.25 12.62 34.45 4.71 50.42-.56 1.17-2.05 4.19-2.63 5.4-6.45 13.85-15.38 30.26-20.63 44.55-12.24 32.01-15.06 67.56-8.53 101.19 5.73 30.94 20.59 58.66 38.17 84.19 29.55 42.6 68.74 78.46 113.94 103.84 28.89 16 63.84 12.12 88.66-9.54 43.98-35.94 71.27-85.53 81.61-140.96 6.97-37.48 6.68-76.44-1.74-113.66-2.48-11.56-6.02-23.16-10.06-34.38 9.27.77 18.4 3.17 26.82 7.27 5.85 2.7 11.28 6.38 16.39 10.33 0 0 2.93 2.19 2.93 2.19 5.85 4.72 14.02 6.34 21.2 4.13 2.82-.8 5.67-2.39 7.92-4.16.47-.39 1.68-1.26 2.17-1.68l5.78-4.47c.91-.68 3.47-2.73 4.32-3.37 9.32-6.57 12.41-19.73 6.73-29.66zm-59.67-98.59c.02-.02 0-.01.02-.02.01.02 0-.05.02.04.02.1.04.2.06.3-.05-.03-.09-.07-.1-.11-.03-.03-.02-.09-.02-.14-.01-.02.03-.06.02-.07zm-323.27-11.67c5.71-6.89 14.17-17.09 19.6-23.64l2.19-2.64 2.44 2.32 46.58 43.96c1.21 1.2 2.71 2.08 4.48 2.46 4.82 1.04 9.58-2.02 10.62-6.84.47-2.24 1.9-8.69 2.34-10.8 3.87-18.29 12.3-35.59 24.27-49.99.53.23 6.72 2.89 6.72 2.89 3.29 1.45 26.99 11.58 31.25 13.44-.59 1.06-3.46 6.25-3.46 6.25-12.96 23.4-21.08 49.29-24.35 75.78-1.62 2-3.21 4.03-4.73 6.1-8.6 11.71-15.61 24.57-20.91 38.06-5.23 13.39-10.99 27.94-16.09 41.29-7.97 20.71-20.88 39.33-37.26 54.34l-6.28-5.99c-4.44-4.24-5.98-10.71-3.91-16.49l16.25-45.46c2.73-7.63.71-16.18-5.16-21.78l-10.6-10.12c8.59-23.4 3.93-51.02-12.12-70.16-1.36-1.53-3.17-3.64-4.59-5.07-3.8-3.89-13.56-14.2-17.28-17.91zm-.25 212.57 8.46 5.41c-2.54 1.57-5.07 3.15-7.59 4.72-.4-3.36-.69-6.74-.87-10.13zm13.17 2.49-13.36-8.55c0-.21-.01-.43-.01-.64-.09-5.65.15-11.3.67-16.92l26.87 17.2c-.03.02-.05.04-.08.06-4.62 2.97-9.35 5.92-14.09 8.85zm18.58-12.03-30.67-19.63c.69-5.42 1.67-10.8 2.9-16.13l25.39 16.25c1.07 2.64 2.7 5.07 4.83 7.11l5.98 5.7c-2.73 2.33-5.54 4.57-8.43 6.7zm-21.8-55.86 21.83 13.97-2.75 7.69c-.91 2.54-1.28 5.18-1.17 7.79l-22.62-14.48c1.34-5.06 2.91-10.06 4.71-14.97zm5.56-13.4c.78-1.68 1.63-3.48 2.51-5.36l20.72 13.26-5.23 14.64-21.73-13.91c1.16-2.91 2.41-5.79 3.73-8.63zm16.7-35.67 9.18 8.77c2.72 2.6 4.35 6.05 4.72 9.65l-17.27-11.05c1.2-2.59 2.34-5.07 3.37-7.37zm-5.51 11.95 18.96 12.13c-.11.4-.23.79-.37 1.18l-4.82 13.49-20.29-12.99c2.13-4.49 4.37-9.23 6.52-13.81zm323.17 19.55c-.52-.4-2.8-2.13-2.8-2.13-32.83-27.09-80.22-30.27-115.89-6.8-8 4.97-16.65 13.64-23.61 20.08-1.83 1.69-3.63 3.39-5.57 5.26-6.79 6.71-11.12 15.96-11.83 25.42-.36 4.68.29 10.93.49 15.68.13 1.98.99 16.08 1.03 17.67.03 7.42-3.38 14.57-9.08 19.46-6.88 5.76-14.2 12.01-20.88 17.95-.81.73-1.06 1.95-.51 2.96.64 1.18 2.11 1.62 3.29.99 4.32-2.33 8.55-4.79 12.82-7.18 3.24-1.87 7.81-4.49 11.11-6.44 5.54-3.32 10.14-8.11 13.28-13.92 2.11-3.88 3.51-8.21 4.12-12.61.41-2.62 1.1-16.14 1.28-18.87.15-2.55.44-8.41.59-10.94.48-5.99 3.33-11.74 7.96-15.48 0 0 5.43-4.36 5.43-4.36 6.2-4.82 15.09-12.75 21.94-16.46 12.02-6.98 25.87-10.51 39.7-10.44 4.02 14.49 7.15 29.1 9.05 44.01 1.54 12.8 2.37 26.34 2.11 39.23-.17 23.36-3.58 46.94-9.69 69.49-12.47 48.65-40.8 92.65-81.14 122.64-4.49 3.35-9.52 6.06-14.79 7.99-14.67 5.2-31.54 4.1-45.16-3.53l-1.46-.79c-.49-.26-1.08-.65-1.62-.97l-3.29-2.03c-2.18-1.37-4.43-2.64-6.55-4.11-36.78-23.69-68.69-54.86-93.35-90.97-9.77-14.6-19.35-30.36-25.75-46.47-4.33-11.23-7.52-22.97-9.4-34.89 6.04-2.78 12.06-5.58 18.08-8.41 7.12-3.34 14.96-7.17 21.6-11.43 2.44-1.53 4.83-3.16 7.17-4.84l35.9 34.24c8.68 8.28 11.38 20.82 6.86 31.93l-11.27 27.74c-5.01 12.31-2.34 26.51 6.78 36.17l10.05 10.65c5.11 5.41 7.92 12.49 7.92 19.93v4.49c0 1.38 1.12 2.5 2.5 2.5s2.5-1.12 2.5-2.5v-4.49c0-8.72-3.3-17.02-9.29-23.36l-10.05-10.65c-7.79-8.24-10.06-20.35-5.79-30.86l11.28-27.74c5.3-13.03 2.14-27.73-8.04-37.43l-35.28-33.65c18.02-13.88 32.98-32.08 42.98-52.59 7.73-16.05 15.17-33.29 22.86-49.38 14.07-28.4 37.43-52.14 65.61-66.52 3.95-2.12 8.75-4.21 12.7-6.53 12.59-7.22 21.88-20.94 24.42-35.05l1.5-6.65 2.38-10.62 10.64 1.37 1.53.19c-1.78 10.36-3.6 20.85-5.3 31.17-.22 1.17-.26 2.36-.12 3.59.76 6.71 6.81 11.53 13.52 10.77 19.47-2.17 40.87-4.56 60.45-6.9 4.52-.53 13.23-1.54 17.62-2.09l.18-.02c1.18 5.87 2.87 14.46 4.06 20.21.04.07.08.08.1.14.07.14-.05.35-.15.46-.03.04-.07.06-.14.09-4.73.58-22.59 2.77-27.49 3.4-11.82 1.5-24.61 2.79-36.1 5.91-31.73 8.12-60.57 26.69-81.03 52.08-6.83 8.46-12.84 18.54-18.6 27.77-1.58 2.63 2.05 5.08 3.95 2.84 5.08-6.11 10.94-13.44 16.18-19.3 1.98-2.06 4.78-5.15 6.88-7.07 10.52-10.24 22.73-18.82 35.54-25.6 9.4-4.83 19.23-8.65 29.33-11.42 2.18.01 4.32.07 6.13.2 2 0 5 .36 6.98.59 2.02.25 4.93.45 6.91.92 26.78 4.35 52.41 17.56 70.81 37.53 2.77 2.78 6.15 7.03 8.63 10.15 1.8 2.63 4.7 6.77 6.53 9.62-3.7 2.73-8.52 6.27-12.24 9.01z" fill="#000000" fill-opacity="1" data-original-color="#000000ff" stroke="none" stroke-opacity="1"/></g></svg>