<svg id="Milkshake" enable-background="new 0 0 400 400" height="512" viewBox="0 0 400 400" width="512" xmlns="http://www.w3.org/2000/svg"><g><path d="m238.972 109.943-12.457-7.192c-3.464-2-4.65-6.429-2.651-9.892l48.649-84.263c2.223-3.851 7.148-5.17 10.999-2.947l11.054 6.382c3.851 2.223 5.17 7.148 2.947 10.999l-48.649 84.263c-2 3.463-6.428 4.65-9.892 2.65z" fill="#abe5ff"/><path d="m208.501 9.659c-11.366-9.611-29.262.481-28.942 18.085.315 16.431 10.143 24.016 21.924 25.896 11.782 1.88 23.482-2.27 28.894-17.788 5.783-16.63-8.083-31.79-21.876-26.193z" fill="#ff4848"/><path d="m230.386 35.853c-5.416 15.509-17.112 19.657-28.9 17.787-2.705-.436-5.303-1.169-7.697-2.239 5.53-1.184 35.209-16.247 19.249-42.842 12.073-1.139 22.487 12.496 17.348 27.294z" opacity=".1"/><path d="m269.481 145.092c1.018-1.434 13.744-22.723 6.326-42.922-5.601-15.251-16.557-21.395-25.598-22.141.297-.731 9.162-28.239-28.891-35.239-25.112-4.619-44.235 4.934-56.905-5.233-7.928-6.362-8.016-14.967-13.429-14.921-6.246.054-11.821 11.56-13.216 20.463-2.618 16.707 7.152 30.98 11.724 33.892-2.478.513-25.24 4.765-30.623 26.811-5.684 23.28 10.765 40.612 15.557 45.384 35.522 35.366 110.386 28.684 135.055-6.094z" fill="#f9f9f9"/><path d="m273.138 137.975c-9.203-1.804-18.619-4.617-27.944-8.408 4.494-16.968 1.406-25.529-2.202-30.207-6.115-7.888-15.929-7.552-19.23-16.479-2.14-5.839.734-9.631 1.1-15.898.367-5.87-1.437-13.513-9.477-23.022 1.956.183 3.913.458 5.931.825 38.064 7.001 29.198 34.517 28.892 35.251 9.05.734 19.995 6.879 25.59 22.135 4.984 13.545.917 27.578-2.66 35.803z" opacity=".1"/><path d="m257.161 395.436h-118.516c-9.678 0-15.02-11.41-8.669-18.712 5.32-6.117 13.168-11.485 22.827-15.713 0 0 12.443-12.092 44.089-12.092s46.111 12.092 46.111 12.092c9.66 4.228 17.507 9.596 22.828 15.714 6.351 7.301 1.008 18.711-8.67 18.711z" fill="#abe5ff"/><path d="m257.149 395.433h-23.541c5.136-9.233 5.564-22.41-.49-34.426h9.875c9.662 4.219 17.518 9.6 22.839 15.715 6.359 7.307 1.008 18.711-8.683 18.711z" opacity=".1"/><path d="m101.414 136.634c2.273 126.414 30.205 185.279 51.39 224.376h90.2c21.186-39.097 49.117-97.962 51.39-224.376.165-9.203-7.281-16.733-16.485-16.733-36.541 0-123.468 0-160.009 0-9.206 0-16.652 7.53-16.486 16.733z" fill="#ff80b4"/><path d="m294.387 136.629c-2.262 126.421-30.206 185.275-51.394 224.378h-32.835c65.396-81.539 37.36-202.671 26.14-241.102h41.611c9.202.001 16.661 7.522 16.478 16.724z" opacity=".1"/><path d="m296.85 8.08-11.06-6.38c-2.91-1.69-6.32-2.14-9.57-1.26-3.25.87-5.97 2.95-7.66 5.87l-24.61 42.636c-3.261-2.426-7.152-4.436-11.679-6.014.91-1.732 1.726-3.585 2.419-5.582 3.47-9.97 1.1-20.79-6.04-27.57-5.41-5.15-12.45-7.03-19.34-5.2-5.98-3.89-13.25-4.29-20-1.08-8.89 4.22-14.51 13.77-14.31 24.33.081 4.34.791 8.289 2.057 11.815-3.784-.423-7.06-1.459-9.787-3.645-3.05-2.45-4.75-5.42-6.25-8.04-2-3.5-4.49-7.85-10.07-7.89-9.59.09-16.12 14.27-17.69 24.32-2.02 12.9 2.59 24.96 7.78 32.28-8.53 3.14-22.39 10.79-26.61 28.05-.904 3.71-1.325 7.444-1.287 11.172-3.873.889-7.424 2.843-10.28 5.751-3.979 4.05-6.114 9.403-6.012 15.073 2.072 115.208 24.816 175.385 49.658 222.215-8.277 4.161-15.127 9.221-19.976 14.797-4.098 4.713-5.028 11.188-2.426 16.898 2.635 5.783 8.206 9.375 14.539 9.375h118.514c6.334 0 11.905-3.592 14.538-9.374 2.603-5.711 1.674-12.187-2.424-16.898-4.852-5.578-11.702-10.638-19.976-14.797 24.843-46.831 47.588-107.007 49.659-222.214.102-5.67-2.033-11.023-6.013-15.073-2.849-2.9-6.388-4.851-10.248-5.743.018-4.941-.703-10.123-2.606-15.3-2.688-7.319-6.797-13.336-11.891-17.664l33.271-57.628c3.47-6.02 1.4-13.75-4.62-17.23zm-103.62 3.67c1.75-.83 3.53-1.26 5.28-1.26 2.56 0 4.99.92 7.04 2.65 1.3 1.1 3.09 1.39 4.67.75 4.24-1.72 8.66-.8 12.15 2.51 4.54 4.31 5.99 11.36 3.7 17.95-.835 2.389-1.825 4.42-2.927 6.153-.336-.066-.662-.14-1.003-.203-11.35-2.09-21.34-1.43-30.16-.86-1.679.11-3.294.213-4.859.295-1.764-3.029-2.899-6.964-3.001-12.076-.12-6.979 3.45-13.219 9.11-15.909zm69.156 367.969c1.746 2.007 2.122 4.67 1.005 7.123-1.15 2.524-3.48 4.03-6.232 4.03h-118.514c-2.752 0-5.082-1.506-6.231-4.029-1.117-2.453-.741-5.116 1.006-7.124 4.664-5.364 11.695-10.241 20.364-14.144h88.238c8.664 3.901 15.696 8.778 20.364 14.144zm27.442-243.168c-2.374 132.099-34.088 191.317-49.545 219.895h-84.762c-15.456-28.577-47.17-87.793-49.545-219.895-.057-3.201 1.149-6.224 3.397-8.513 2.264-2.305 5.291-3.574 8.524-3.574h160.01c3.234 0 6.261 1.269 8.524 3.574 2.249 2.29 3.455 5.314 3.397 8.513zm-18.308-32.811c1.42 3.87 1.997 7.798 2.033 11.596h-151.287c.005-2.717.323-5.536 1.034-8.446 4.15-17 20.23-22.02 26.95-23.39l.17-.04c.055-.011.105-.032.159-.046.037-.009.074-.009.111-.019 3.975-1.078 11.044.666 15.744 1.827 1.832.452 3.414.843 4.652 1.033l.687.107c2.994.466 8.006 1.245 13.663 1.245 3.138 0 6.08-.247 8.744-.735 1.199-.219 2.241-.893 2.933-1.896.693-1.004.953-2.217.733-3.416-.219-1.199-.893-2.241-1.897-2.933-1.003-.693-2.215-.953-3.415-.733-7.26 1.331-15.13.106-19.358-.552l-.706-.109c-.848-.13-2.315-.493-3.869-.877-5.18-1.28-12.034-2.972-17.857-2.243-3.52-3.567-10.615-14.576-8.464-28.303 1.36-8.72 6.31-16.41 8.66-16.6.47.32 1.52 2.16 2.16 3.28 1.71 2.99 4.05 7.09 8.46 10.63 8.6 6.9 18.98 6.22 31.01 5.43 8.29-.54 17.68-1.15 27.92.73 11.88 2.18 19.84 6.62 23.67 13.18 4.2 7.21 2.09 14.94 1.81 15.89-.53 1.33-.4 2.85.35 4.07.76 1.23 2.07 2.04 3.51 2.16 3.55.29 15.58 2.54 21.69 19.16zm22.04-82.99-33.083 57.294c-1.565-.701-3.179-1.285-4.847-1.714.57-4.6.4-11.23-3.23-17.84-.536-.978-1.141-1.912-1.789-2.819l25.859-44.791c.46-.81 1.21-1.39 2.12-1.63.9-.24 1.83-.12 2.64.35l11.05 6.38c1.67.97 2.24 3.1 1.28 4.77zm-122.134 298.509c.503 1.11.544 2.351.115 3.492-.43 1.141-1.278 2.047-2.389 2.55-.6.271-1.232.409-1.881.409-1.788 0-3.421-1.053-4.16-2.681-16.18-35.706-26.634-103.316-26.634-172.247 0-2.516 2.047-4.564 4.564-4.564s4.564 2.047 4.564 4.564c.001 67.734 10.136 133.866 25.821 168.477zm87.903-168.478c0 68.93-10.455 136.542-26.633 172.247-.738 1.629-2.372 2.681-4.161 2.681-.648 0-1.28-.137-1.88-.408-2.293-1.04-3.313-3.751-2.275-6.043 15.686-34.615 25.821-100.747 25.821-168.478 0-2.516 2.047-4.564 4.564-4.564 2.517.001 4.564 2.049 4.564 4.565zm-56.861 0v170.362c0 2.517-2.047 4.564-4.564 4.564-2.516 0-4.564-2.047-4.564-4.564v-170.362c0-2.516 2.047-4.564 4.564-4.564 2.516 0 4.564 2.048 4.564 4.564z" fill="#0f0f0f"/></g></svg>