<svg id="Layer_1" height="512" viewBox="0 0 512 512" width="512" xmlns="http://www.w3.org/2000/svg" data-name="Layer 1"><g fill-rule="evenodd"><path d="m47.505 371.237c-1.952-1.952-1.952-5.118 0-7.07s5.118-1.952 7.07 0l93.258 93.258c1.952 1.952 1.952 5.118 0 7.07s-5.118 1.952-7.07 0zm280.998-280.998c-1.952-1.952-1.952-5.118 0-7.07s5.118-1.952 7.07 0l93.258 93.258c1.952 1.952 1.952 5.118 0 7.07s-5.118 1.952-7.07 0zm35.664-35.664 93.258 93.258c1.952 1.952 5.118 1.952 7.07 0s1.952-5.118 0-7.07l-93.258-93.258c-1.952-1.952-5.118-1.952-7.07 0s-1.952 5.118 0 7.07zm-130.395 148.324c-1.952-1.952-1.952-5.118 0-7.07s5.118-1.952 7.07 0l75.329 75.329c1.952 1.952 1.952 5.118 0 7.07s-5.118 1.952-7.07 0zm-37.943 37.943 75.329 75.329c1.952 1.952 5.118 1.952 7.07 0s1.952-5.118 0-7.07l-75.329-75.329c-1.952-1.952-5.118-1.952-7.07 0s-1.952 5.118 0 7.07zm-112.66 94.731 93.258 93.258c1.952 1.952 5.118 1.952 7.07 0s1.952-5.118 0-7.07l-93.258-93.258c-1.952-1.952-5.118-1.952-7.07 0s-1.952 5.118 0 7.07z" fill="#4e5f7f"/><path d="m101.204 410.796 46.629 46.629c1.952 1.952 1.952 5.118 0 7.07s-5.118 1.952-7.07 0l-46.629-46.629zm316.661-316.662-7.07 7.07 46.629 46.629c1.952 1.952 5.118 1.952 7.07 0s1.952-5.118 0-7.07zm-35.664 35.664 46.629 46.629c1.952 1.952 1.952 5.118 0 7.07s-5.118 1.952-7.07 0l-46.629-46.629zm-103.696 103.695-7.07 7.07 37.664 37.664c1.952 1.952 5.118 1.952 7.07 0s1.952-5.118 0-7.07l-37.665-37.664zm-37.943 37.943 37.665 37.664c1.952 1.952 1.952 5.118 0 7.07s-5.118 1.952-7.07 0l-37.664-37.664 7.07-7.07zm-103.696 103.696-7.07 7.07 46.629 46.629c1.952 1.952 5.118 1.952 7.07 0s1.952-5.118 0-7.07z" fill="#3d4665"/><path d="m370.665 48.079-38.627 38.625c-8.478 8.478-12.489 21.031-12.454 35.906.042 18.07 5.886 39.173 16.907 61.008 14.094 27.928 21.571 55.996 21.63 81.146.063 26.858-8.152 50.496-25.506 67.85-17.354 17.353-40.992 25.568-67.85 25.506-25.149-.059-53.218-7.536-81.146-21.63-21.836-11.02-42.938-16.865-61.009-16.907-14.875-.035-27.428 3.976-35.906 12.455l-38.626 38.626c-7.012 7.012-18.45 7.011-25.462 0l-6.357-6.357c-7.012-7.012-7.012-18.451 0-25.462l38.626-38.626c17.354-17.354 40.992-25.569 67.85-25.506 25.15.058 53.218 7.535 81.145 21.63 21.837 11.02 42.939 16.864 61.01 16.907 14.873.034 27.427-3.978 35.905-12.455 8.478-8.479 12.49-21.032 12.454-35.905-.042-18.071-5.886-39.173-16.906-61.01-14.095-27.927-21.572-55.995-21.63-81.145-.064-26.858 8.152-50.496 25.506-67.85l38.626-38.626c7.012-7.012 18.45-7.012 25.462 0l6.358 6.357c7.012 7.012 7.012 18.45 0 25.462z" fill="#fd5959"/><path d="m333.837 178.162c.848 1.813 1.732 3.632 2.653 5.457 14.094 27.928 21.571 55.996 21.63 81.146.063 26.858-8.152 50.496-25.506 67.85-17.354 17.353-40.992 25.568-67.85 25.506-25.149-.059-53.218-7.536-81.146-21.63-1.825-.921-3.644-1.804-5.457-2.653l33.687-33.687c18.98 8.554 37.179 13.062 53.04 13.1 14.873.034 27.427-3.978 35.905-12.455 8.478-8.479 12.49-21.032 12.454-35.905-.037-15.862-4.545-34.06-13.099-53.04l33.687-33.687z" fill="#e33657"/><path d="m463.921 141.336-38.625 38.626c-8.478 8.478-21.031 12.489-35.906 12.454-18.07-.041-39.173-5.886-61.009-16.907-27.928-14.094-55.996-21.571-81.146-21.63-26.858-.063-50.496 8.152-67.85 25.506-17.353 17.354-25.569 40.992-25.506 67.85.059 25.15 7.536 53.218 21.63 81.146 11.02 21.836 16.864 42.938 16.907 61.009.035 14.875-3.976 27.428-12.455 35.906l-38.626 38.626c-7.012 7.012-7.012 18.45 0 25.462l6.358 6.357c7.012 7.011 18.45 7.011 25.462 0l38.626-38.626c17.354-17.354 25.569-40.992 25.506-67.85-.058-25.15-7.535-53.218-21.63-81.145-11.02-21.837-16.864-42.94-16.906-61.01-.035-14.874 3.977-27.427 12.455-35.905 8.479-8.478 21.032-12.49 35.905-12.456 18.071.043 39.173 5.887 61.01 16.907 27.927 14.095 55.995 21.572 81.145 21.63 26.858.063 50.496-8.152 67.85-25.506l38.626-38.625c7.012-7.012 7.012-18.45 0-25.463l-6.357-6.357c-7.012-7.012-18.45-7.012-25.462 0z" fill="#28d481"/><path d="m463.921 141.336-38.625 38.626c-8.478 8.478-21.031 12.489-35.906 12.454-16.561-.038-35.668-4.951-55.552-14.254l-33.687 33.687c2.643 1.191 5.301 2.46 7.97 3.807 27.927 14.095 55.995 21.572 81.145 21.63 26.858.063 50.496-8.152 67.85-25.506l38.626-38.625c7.012-7.012 7.012-18.45 0-25.463l-6.357-6.357c-7.012-7.012-18.45-7.012-25.462 0zm-285.759 192.502c9.303 19.884 14.215 38.992 14.254 55.552.035 14.875-3.976 27.428-12.455 35.906l-38.626 38.626c-7.012 7.012-7.012 18.45 0 25.462l6.358 6.357c7.012 7.011 18.45 7.011 25.462 0l38.626-38.626c17.354-17.354 25.569-40.992 25.506-67.85-.058-25.15-7.535-53.218-21.63-81.145-1.347-2.669-2.616-5.327-3.807-7.97l-33.687 33.687z" fill="#20a48d"/><path d="m232.922 354.44c-16.056-3.534-32.704-9.573-49.303-17.95-1.824-.921-3.643-1.804-5.456-2.653-.848-1.813-1.732-3.632-2.653-5.456-8.377-16.599-14.416-33.247-17.95-49.303 15.13 3.605 30.746 9.406 46.319 17.265 2.669 1.347 5.327 2.616 7.97 3.807 1.191 2.643 2.461 5.301 3.807 7.97 7.86 15.573 13.66 31.189 17.265 46.319z" fill="#fd5959"/><path d="m232.922 354.44c-16.056-3.534-32.704-9.573-49.303-17.95-1.824-.921-3.643-1.804-5.456-2.653s33.687-33.687 33.687-33.687c1.191 2.643 2.461 5.301 3.807 7.97 7.86 15.573 13.66 31.189 17.265 46.319z" fill="#e33657"/><path d="m333.838 178.163c.848 1.813 1.732 3.632 2.652 5.456 8.377 16.599 14.416 33.248 17.95 49.303-15.13-3.605-30.746-9.406-46.319-17.265-2.669-1.347-5.327-2.616-7.97-3.807-1.191-2.643-2.46-5.301-3.807-7.97-7.86-15.573-13.66-31.189-17.265-46.319 16.056 3.534 32.704 9.573 49.303 17.949 1.824.921 3.644 1.805 5.457 2.653z" fill="#28d481"/><path d="m333.838 178.163c.848 1.813 1.732 3.632 2.652 5.456 14.51 14.381 14.416 33.248 17.95 49.303-15.13-3.605-30.746-9.406-46.319-17.265-2.669-1.347-5.327-2.616-7.97-3.807s33.687-33.687 33.687-33.687z" fill="#20a48d"/></g><path d="m499.276 144.157-6.357-6.357c-8.774-8.774-22.922-8.941-31.931-.544l-86.244-86.244c8.397-9.009 8.231-23.156-.545-31.932l-6.357-6.357c-8.967-8.967-23.562-8.969-32.533 0l-38.625 38.625c-17.713 17.712-27.039 42.401-26.971 71.396.021 9.122 1.002 18.664 2.891 28.448-8.675-1.511-17.161-2.294-25.356-2.313-.106 0-.211 0-.317 0-28.857 0-53.432 9.323-71.081 26.971-17.712 17.714-27.037 42.402-26.969 71.396.019 8.154.804 16.657 2.319 25.362-9.752-1.884-19.286-2.875-28.453-2.896-28.996-.118-53.685 9.257-71.396 26.97l-38.626 38.626c-8.97 8.97-8.97 23.564 0 32.534l6.357 6.358c4.485 4.484 10.376 6.726 16.267 6.726 5.638 0 11.26-2.077 15.664-6.183l86.244 86.244c-8.396 9.008-8.23 23.155.544 31.932l6.358 6.356c4.484 4.484 10.376 6.727 16.267 6.727s11.781-2.242 16.266-6.727l38.626-38.625c17.713-17.713 27.039-42.402 26.971-71.397-.022-9.124-1.003-18.666-2.891-28.447 8.675 1.511 17.161 2.294 25.356 2.313h.314c28.857 0 53.435-9.324 71.083-26.971 17.711-17.712 27.037-42.401 26.97-71.397-.019-8.153-.804-16.657-2.319-25.362 9.752 1.884 19.286 2.875 28.453 2.896 28.959.07 53.685-9.257 71.396-26.97l38.627-38.626c8.969-8.97 8.968-23.564 0-32.534zm-161.663 30.234c-8.486-18.6-12.995-36.476-13.031-51.792-.027-11.684 2.646-21.422 7.756-28.524l85.586 85.586c-7.066 5.084-16.74 7.755-28.344 7.755h-.18c-15.391-.035-33.17-4.527-51.788-13.025zm87.682-1.5-86.187-86.187 28.593-28.592 86.186 86.186zm-145.583-50.169c-.062-26.277 8.251-48.513 24.041-64.302l38.625-38.625c5.072-5.07 13.322-5.07 18.393 0l6.357 6.357c5.07 5.07 5.07 13.321 0 18.392l-2.958 2.958s-.003.003-.005.004-.002.003-.004.005l-35.659 35.658c-9.145 9.145-13.958 22.788-13.92 39.454.033 13.711 3.279 29.15 9.439 45.224-13.704-6.411-27.402-11.26-40.756-14.446-2.328-10.612-3.531-20.921-3.554-30.678zm-105.327 214.886c8.486 18.601 12.995 36.476 13.03 51.793.028 11.683-2.645 21.42-7.755 28.523l-85.586-85.586c7.065-5.084 16.739-7.755 28.344-7.755h.18c15.391.035 33.17 4.528 51.788 13.025zm-87.682 1.501 86.187 86.187-28.594 28.592-86.186-86.186zm145.583 50.168c.062 26.276-8.251 48.512-24.041 64.302l-38.626 38.625c-5.07 5.07-13.321 5.07-18.392 0l-6.357-6.356c-5.069-5.071-5.069-13.321 0-18.392l2.958-2.958s.003-.002.004-.004.002-.003.004-.005l35.661-35.66c9.145-9.146 13.957-22.789 13.918-39.453-.032-13.711-3.277-29.15-9.438-45.224 13.704 6.411 27.402 11.26 40.756 14.445 2.327 10.609 3.53 20.918 3.554 30.678zm120.833-124.501c.062 26.278-8.252 48.513-24.041 64.303-15.733 15.732-37.862 24.042-64.013 24.042-.097 0-.193 0-.29 0-24.39-.057-51.675-7.352-78.904-21.094-22.525-11.368-44.396-17.399-63.25-17.442-.068 0-.135 0-.203 0-16.573 0-30.144 4.812-39.25 13.919l-35.664 35.663s0 0 0 0l-2.962 2.962c-5.068 5.07-13.318 5.07-18.391 0l-6.357-6.357c-5.07-5.07-5.07-13.321 0-18.391l38.626-38.626c15.732-15.732 37.858-24.042 64.011-24.042h.292c24.389.056 51.673 7.351 78.904 21.094 2.714 1.37 5.418 2.658 8.109 3.872.033.015.065.031.098.045 19.604 8.829 38.486 13.487 55.044 13.526h.197c3.559 0 6.97-.236 10.238-.674.141-.018.281-.028.42-.058 11.762-1.653 21.528-6.12 28.598-13.189 7.068-7.07 11.536-16.835 13.188-28.595.031-.148.042-.297.06-.447.444-3.321.679-6.789.67-10.41-.03-13.021-2.975-27.658-8.562-42.886 13.592 6.569 27.198 11.601 40.493 15.01 1.924 9.586 2.919 18.917 2.94 27.774zm-117.539-60.066 71.709 71.709c-1.541 8.641-4.926 15.735-10.031 20.841-5.106 5.105-12.201 8.49-20.842 10.031l-71.709-71.71c1.541-8.64 4.927-15.734 10.031-20.84 5.105-5.105 12.2-8.49 20.841-10.031zm60.774 10.937c7.446 16.989 11.526 33.35 11.859 47.555l-59.414-59.414c14.29.331 30.537 4.394 47.555 11.858zm-33.158 92.566c-14.291-.331-30.538-4.394-47.555-11.859-7.445-16.99-11.525-33.351-11.859-47.556l59.414 59.414zm229.008-138.592-38.626 38.625c-15.732 15.732-37.858 24.042-64.011 24.042-.096 0-.196 0-.292 0-24.389-.056-51.673-7.351-78.904-21.094-22.522-11.366-44.394-17.398-63.251-17.443h-.197c-3.558 0-6.968.235-10.235.674-.143.018-.285.028-.426.058-11.761 1.653-21.526 6.12-28.595 13.189-7.07 7.071-11.538 16.837-13.189 28.601-.029.138-.039.278-.057.418-.446 3.328-.682 6.805-.673 10.434.031 13.02 2.977 27.657 8.562 42.886-13.591-6.569-27.198-11.601-40.493-15.01-1.924-9.586-2.919-18.917-2.94-27.774-.062-26.276 8.251-48.512 24.04-64.303 15.733-15.732 37.86-24.042 64.012-24.042h.292c24.389.057 51.673 7.351 78.904 21.094 1.836.927 3.666 1.805 5.492 2.66.102.05.204.1.309.143 20.467 9.545 40.219 14.6 57.449 14.64 16.628.068 30.309-4.773 39.453-13.918l38.625-38.626c5.071-5.069 13.322-5.07 18.392 0l6.357 6.357c5.07 5.07 5.07 13.321 0 18.392z"/></svg>