<svg version="1.1" id="Capa_1" xmlns="http://www.w3.org/2000/svg" xmlns:xlink="http://www.w3.org/1999/xlink" x="0px" y="0px" viewBox="0 0 496 496" style="enable-background:new 0 0 496 496;" xml:space="preserve" width="300" height="300" xmlns:svgjs="http://svgjs.dev/svgjs"><g width="100%" height="100%" transform="matrix(1,0,0,1,0,0)"><path style="" d="M234.384,462.264C211.12,478.488,182.824,488,152.312,488h-0.624C72.328,488,8,423.672,8,344.312l0,0&#xA;&#9;c0-21.272,4.728-42.288,13.832-61.512L152,8l87.952,185.672L234.384,462.264z" fill="#e53546" fill-opacity="1" data-original-color="#fb5968ff" stroke="none" stroke-opacity="1"/><path style="" d="M144,328c0,59.168,27.96,111.776,71.352,145.44c6.64-3.248,13.016-6.976,19.032-11.168l5.568-268.592&#xA;&#9;l-10.088-21.288C178.288,204.984,144,262.472,144,328z" fill="#a00d37" fill-opacity="1" data-original-color="#cd2c5aff" stroke="none" stroke-opacity="1"/><circle style="" cx="328" cy="328" r="160" fill="#ececec" fill-opacity="1" data-original-color="#ecececff" stroke="none" stroke-opacity="1"/><g>
	<ellipse style="" cx="328" cy="256" rx="64" ry="48" fill="#e53546" fill-opacity="1" data-original-color="#fb5968ff" stroke="none" stroke-opacity="1"/>
	
		<ellipse transform="matrix(-0.7073 -0.7069 0.7069 -0.7073 417.1634 924.708)" style="" cx="400.018" cy="375.991" rx="47.68" ry="63.231" fill="#e53546" fill-opacity="1" data-original-color="#fb5968ff" stroke="none" stroke-opacity="1"/>
	
		<ellipse transform="matrix(-0.7069 -0.7073 0.7073 -0.7069 170.9932 822.8992)" style="" cx="255.993" cy="376.022" rx="63.231" ry="47.68" fill="#e53546" fill-opacity="1" data-original-color="#fb5968ff" stroke="none" stroke-opacity="1"/>
</g><rect x="141.535" y="81.375" transform="matrix(-0.4278 0.9039 -0.9039 -0.4278 293.3353 -6.9478)" width="14.664" height="16" fill="#000000" fill-opacity="1" data-original-color="#000000ff" stroke="none" stroke-opacity="1"/><path d="M43.52,293.072C35.984,308.984,32,326.704,32,344.312h16c0-15.248,3.456-30.608,9.984-44.4l88.344-186.496l-14.464-6.84&#xA;&#9;L43.52,293.072z" fill="#000000" fill-opacity="1" data-original-color="#000000ff" stroke="none" stroke-opacity="1"/><path d="M328,160c-30.736,0-59.48,8.44-84.296,22.912L159.232,4.576C157.904,1.784,155.088,0,152,0s-5.904,1.784-7.232,4.576&#xA;&#9;L14.6,279.376C5.048,299.528,0,321.992,0,344.312C0,427.952,68.048,496,152.312,496c30.744,0,60.28-9.176,85.544-26.464&#xA;&#9;C263.936,486.2,294.816,496,328,496c92.64,0,168-75.368,168-168S420.64,160,328,160z M151.688,480C76.864,480,16,419.136,16,344.312&#xA;&#9;c0-19.968,4.512-40.056,13.064-58.096L152,26.688l78.168,165.016C187.76,222.224,160,271.88,160,328&#xA;&#9;c0,53.28,25.008,100.752,63.816,131.552C202.36,472.904,177.76,480,151.688,480z M328,480c-83.816,0-152-68.184-152-152&#xA;&#9;s68.184-152,152-152s152,68.184,152,152S411.816,480,328,480z" fill="#000000" fill-opacity="1" data-original-color="#000000ff" stroke="none" stroke-opacity="1"/><path d="M400,256c0-30.872-32.304-56-72-56s-72,25.128-72,56s32.304,56,72,56S400,286.872,400,256z M328,296&#xA;&#9;c-30.88,0-56-17.944-56-40s25.12-40,56-40s56,17.944,56,40S358.88,296,328,296z" fill="#000000" fill-opacity="1" data-original-color="#000000ff" stroke="none" stroke-opacity="1"/><path d="M306.568,236.52l-5.144,15.16c8.464,2.864,17.408,4.32,26.576,4.32s18.112-1.456,26.568-4.32l-5.144-15.16&#xA;&#9;C335.832,241.136,320.168,241.136,306.568,236.52z" fill="#000000" fill-opacity="1" data-original-color="#000000ff" stroke="none" stroke-opacity="1"/><path d="M389.848,363.624c-5.744,4.72-12.064,8.384-18.768,10.896l5.624,14.984c8.352-3.136,16.192-7.672,23.296-13.504&#xA;&#9;c7.104-5.824,13.096-12.616,17.808-20.192l-13.584-8.456C400.432,353.448,395.6,358.912,389.848,363.624z" fill="#000000" fill-opacity="1" data-original-color="#000000ff" stroke="none" stroke-opacity="1"/><path d="M454.016,329.776c-7.72-9.944-19.408-16.168-32.904-17.496c-18.696-1.912-38.976,5.392-55.68,19.872&#xA;&#9;c-29.456,25.52-38.176,65.928-19.448,90.072c7.72,9.944,19.408,16.168,32.904,17.496c1.92,0.192,3.848,0.288,5.792,0.288&#xA;&#9;c17.008,0,34.896-7.168,49.888-20.168C464.024,394.32,472.752,353.912,454.016,329.776z M424.096,407.752&#xA;&#9;c-13.208,11.448-29.52,17.424-43.632,16.048c-9.208-0.904-16.76-4.84-21.832-11.384c-13.608-17.536-5.856-48.12,17.28-68.168&#xA;&#9;C387.856,333.896,402.336,328,415.44,328c1.384,0,2.752,0.072,4.096,0.2c9.208,0.904,16.76,4.84,21.832,11.384&#xA;&#9;C454.984,357.128,447.232,387.704,424.096,407.752z" fill="#000000" fill-opacity="1" data-original-color="#000000ff" stroke="none" stroke-opacity="1"/><path d="M251.784,347.352l-13.584,8.456c4.712,7.576,10.704,14.368,17.8,20.192c7.104,5.832,14.944,10.368,23.296,13.504&#xA;&#9;l5.624-14.984c-6.704-2.512-13.024-6.176-18.776-10.896C260.4,358.912,255.568,353.448,251.784,347.352z" fill="#000000" fill-opacity="1" data-original-color="#000000ff" stroke="none" stroke-opacity="1"/><path d="M290.568,332.16c-16.712-14.48-37.032-21.784-55.68-19.872c-13.496,1.328-25.176,7.544-32.904,17.496&#xA;&#9;c-18.736,24.144-10.008,64.544,19.448,90.072c15,12.992,32.88,20.168,49.888,20.168c1.944,0,3.88-0.096,5.792-0.288&#xA;&#9;c13.496-1.328,25.176-7.544,32.904-17.496C328.752,398.088,320.024,357.68,290.568,332.16z M297.376,412.416&#xA;&#9;c-5.072,6.536-12.624,10.48-21.832,11.384c-14.16,1.368-30.432-4.6-43.632-16.048c-23.144-20.048-30.888-50.624-17.28-68.168&#xA;&#9;c5.072-6.536,12.624-10.48,21.832-11.384c1.344-0.128,2.712-0.2,4.096-0.2c13.104,0,27.592,5.896,39.536,16.248&#xA;&#9;C303.232,364.296,310.984,394.872,297.376,412.416z" fill="#000000" fill-opacity="1" data-original-color="#000000ff" stroke="none" stroke-opacity="1"/><g>
</g><g>
</g><g>
</g><g>
</g><g>
</g><g>
</g><g>
</g><g>
</g><g>
</g><g>
</g><g>
</g><g>
</g><g>
</g><g>
</g><g>
</g></g></svg>