<svg height="300" viewBox="0 0 500 500" width="300" xmlns="http://www.w3.org/2000/svg" version="1.1" xmlns:xlink="http://www.w3.org/1999/xlink" xmlns:svgjs="http://svgjs.dev/svgjs"><g width="100%" height="100%" transform="matrix(1,0,0,1,0,0)"><g id="Layer_7" data-name="Layer 7"><path d="m329.488 25.155h33.065v441.806h-33.065z" fill="#ed517a" fill-opacity="1" data-original-color="#ed517aff" stroke="none" stroke-opacity="1"/><path d="m184.714 340.51 77.244 47.713a9.343 9.343 0 0 1 4.434 7.95v76.079h35.1v-456.258h-32.262v327.382a9.344 9.344 0 0 1 -14.2 7.984l-56.253-34.205-28.9.516-1.29 24.258z" fill="#7e7ce0" fill-opacity="1" data-original-color="#7e7ce0ff" stroke="none" stroke-opacity="1"/><path d="m42.29 425.452s7.484 22.193 35.61 10.838 75.355-38.967 93.42-69.161l54.967-66.323-54.706-6.706-80.258 18.58s-19.871 22.452-19.871 23.742-29.162 89.03-29.162 89.03z" fill="#9b3a5a" fill-opacity="1" data-original-color="#9b3a5aff" stroke="none" stroke-opacity="1"/><path d="m209.91 335.02c-3.86 11.92-15.46 26.77-31.94 39.43-25.55 19.64-53.17 26.57-61.69 15.49-.23-.31-.45-.62-.65-.95-7.09-11.51 6.65-35.58 31.5-54.67 25.56-19.64 53.18-26.57 61.69-15.49 3.03 3.94 3.24 9.62 1.09 16.19z" fill="#9dd381" fill-opacity="1" data-original-color="#9dd381ff" stroke="none" stroke-opacity="1"/><path d="m209.91 335.02c-49.09 11.61-79.88 38.42-94.28 53.97-7.09-11.51 6.65-35.58 31.5-54.67 25.56-19.64 53.18-26.57 61.69-15.49 3.03 3.94 3.24 9.62 1.09 16.19z" fill="#84ba65" fill-opacity="1" data-original-color="#84ba65ff" stroke="none" stroke-opacity="1"/><path d="m484.87 168.94c-25.42 100.62-115.81 135.55-170.39 147.57-10.57 2.34-19.8 3.81-26.95 4.72-9.9 1.28-15.82 1.51-15.82 1.51-200.77.52-229.42 102.71-229.42 102.71-.51-1.68-1.02-3.36-1.51-5.03-38.41-130.4-11.96-231.76-1.91-262.34a78.454 78.454 0 0 1 17.57-29.84c50.05-52.39 157.2-18.61 193.56-6.27 15.03 5.09 33.14 7.47 52.52 8.25 8.6.35 17.46.39 26.41.2 23.64-.47 47.91-2.45 69.9-4.11 21.18-1.6 40.24-2.9 54.56-2.28 47.48 2.07 31.48 44.91 31.48 44.91z" fill="#cc6683" fill-opacity="1" data-original-color="#cc6683ff" stroke="none" stroke-opacity="1"/><path d="m484.87 168.94c-25.42 100.62-115.81 135.55-170.39 147.57-10.57 2.34-19.8 3.81-26.95 4.72-9.9 1.28-15.82 1.51-15.82 1.51-200.77.52-229.42 102.71-229.42 102.71-.51-1.68-1.02-3.36-1.51-5.03 19.67-31.55 73.26-102.62 160.65-110.21 52.56-4.57 93.52-12.7 123.79-20.83a165.242 165.242 0 0 0 102.83-81.55c8.74-16.32 15.56-32.38 15.27-42.38-.5-17.64-26.35-31.54-44.49-39.14 21.18-1.6 40.24-2.9 54.56-2.28 47.48 2.07 31.48 44.91 31.48 44.91z" fill="#aa4971" fill-opacity="1" data-original-color="#aa4971ff" stroke="none" stroke-opacity="1"/><path d="m319.94 195.74c-18.97 40.75-13.96 53.41-12.76 55.53 6.68 11.16 10.21 25.34 10.34 40.11a97.825 97.825 0 0 1 -3.04 25.13c-10.57 2.34-19.8 3.81-26.95 4.72a76.686 76.686 0 0 0 5.62-24.23c.25-3.02.33-5.94.32-8.7-.04-8.36-2.47-16.86-7.19-25.24-8.78-15.56-4.77-41.62 11.9-77.45 15.42-33.14 8.74-49.32 4.34-55.39 8.6.35 17.46.39 26.41.2 4.52 14.12 4.97 35.31-8.99 65.32z" fill="#ede69f" fill-opacity="1" data-original-color="#ede69fff" stroke="none" stroke-opacity="1"/><path d="m317.52 291.38a97.825 97.825 0 0 1 -3.04 25.13c-10.57 2.34-19.8 3.81-26.95 4.72a76.686 76.686 0 0 0 5.62-24.23c8.73-1.82 16.85-3.71 24.37-5.62z" fill="#d3c690" fill-opacity="1" data-original-color="#d3c690ff" stroke="none" stroke-opacity="1"/></g><g id="Layer_7_copy_2" data-name="Layer 7 copy 2"><path d="m453.608 119.034c-23.9-.725-55.81 2.409-86.058 4.548v-98.432a5 5 0 1 0 -10 0v99.1c-7.945.5-15.69.881-23.06 1.066v-100.166a5 5 0 1 0 -10 0v100.368c-5.779.1-11.851.055-18-.151v-109.377a5 5 0 0 0 -10 0v108.894c-7.629-.483-15.186-1.239-22.26-2.315v-106.579a5 5 0 0 0 -10 0v104.761a99.12 99.12 0 0 1 -12.623-3.515c-59.888-21.706-188.147-50.107-217.487 39.283-5.289 16.089-14.6 50.052-17.573 96.735-3.671 57.767 3.393 116.256 21.005 173.793a27.614 27.614 0 0 0 13.861 15.014c23.112 11.954 79.65-26.832 103.583-47.95 17.1-7.71 35.519-21.745 47.668-36.633l56.655 34.988a4.338 4.338 0 0 1 2.071 3.7v76.08a5 5 0 0 0 10 0v-76.076a14.286 14.286 0 0 0 -6.8-12.2l-56.01-34.588a50.173 50.173 0 0 0 7.128-16.088l36.727 22.342a14.3 14.3 0 0 0 7.448 2.116c7.658.112 14.557-6.611 14.35-14.368v-15.784c2.644-.178 7.44-.573 13.934-1.411 2.728-.424 5.509-.882 8.326-1.369v147.43a5 5 0 0 0 10 0v-149.275c5.877-1.157 11.893-2.472 18-3.975v147.96a5 5 0 1 0 10 0v-150.576c7.621-2.115 15.338-4.547 23.06-7.352v157.928a5 5 0 0 0 10 0v-161.775c51.51-20.985 101.419-59.869 122.104-134.785 7.695-22.3 1.156-50.312-36.049-51.366zm-128.453 16.451c3.951 16.182.685 35.717-9.749 58.145-18.992 40.913-15.165 55.529-12.515 60.209 9.243 15.429 12.016 37.488 7.479 58.265q-7.77 1.59-15.3 2.761a94.458 94.458 0 0 0 3.4-26.59c-.044-9.209-2.68-18.518-7.835-27.672-7.828-13.873-3.652-39.075 12.078-72.884 11.994-25.777 11.369-42.315 8-52.263 4.732.086 9.555.096 14.442.029zm-281.535 24.156c29.189-78.519 131.717-56.916 204.78-32.941 13.719 4.648 30.525 7.394 51.287 8.39 3.347 6.157 6.924 20.553-6.037 48.406-17.392 37.384-21.335 64.978-11.722 82.013 4.307 7.649 6.51 15.324 6.546 22.812.053 10.571-1.439 20-4.417 28.088-4.253.529-8.416.971-12.458 1.327-87.588.55-184.942 19.817-228.324 93.19-34.787-125.872-8.746-223.626.345-251.285zm32.408 272.013c-12.216 5.152-23.138 3.459-28.282-6.286 12.862-28.71 36.331-51.733 70.3-68.2-14.763 20.832-12.596 42.632 11.882 43.051.59.025 1.194.028 1.8.019a274.117 274.117 0 0 1 -55.7 31.416zm98.9-61.168c-24.207 18.607-48.835 24.011-54.676 16.41-4.4-5.735 1.2-21.586 18.125-38.339q29.359-10.809 67.086-16.122c-2.943 10.122-13.233 24.757-30.54 38.051zm82.706-23.4-28.471-17.32q16.811-1.461 35.072-1.893v15.5a4.325 4.325 0 0 1 -6.606 3.716zm222.55-179.886c-23.442 88.685-94.953 127.118-159.175 142.536 3.725-21.82.3-44.55-9.487-60.949-.262-.534-5.267-11.806 12.951-50.94 10.981-23.6 14.609-44.618 10.865-62.6 37.716-.828 84.765-7.164 117.835-6.227 30.61.895 32.293 21.909 27.011 38.18z" fill="#000000" fill-opacity="1" data-original-color="#4f1b14ff" stroke="none" stroke-opacity="1"/></g></g></svg>