<svg id="Layer_1" enable-background="new 0 0 512 512" viewBox="0 0 512 512" xmlns="http://www.w3.org/2000/svg" width="300" height="300" version="1.1" xmlns:xlink="http://www.w3.org/1999/xlink" xmlns:svgjs="http://svgjs.dev/svgjs"><g width="100%" height="100%" transform="matrix(1,0,0,1,0,0)"><g><g><path clip-rule="evenodd" d="m239.715 313.499h32.57v56.352h-32.57z" fill="#79cecb" fill-rule="evenodd" fill-opacity="1" data-original-color="#79cecbff" stroke="none" stroke-opacity="1"/></g><path d="m255.987 38.469c-34.731 0-62.987 28.255-62.987 62.986 0 34.746 28.255 63.013 62.987 63.013 34.746 0 63.013-28.267 63.013-63.013 0-34.731-28.267-62.986-63.013-62.986z" fill="#42a6a3" fill-opacity="1" data-original-color="#42a6a3ff" stroke="none" stroke-opacity="1"/><g><path clip-rule="evenodd" d="m98.693 197.989-21.43 19.19 41.811 41.811 21.429-19.191z" fill="#79cecb" fill-rule="evenodd" fill-opacity="1" data-original-color="#79cecbff" stroke="none" stroke-opacity="1"/></g><g><path clip-rule="evenodd" d="m413.279 197.989 21.458 19.19-41.839 41.811-21.43-19.191z" fill="#79cecb" fill-rule="evenodd" fill-opacity="1" data-original-color="#79cecbff" stroke="none" stroke-opacity="1"/></g><g><path clip-rule="evenodd" d="m16.29 201.277c12.387-12.387 32.655-12.387 45.07 0l71.149 71.149c12.387 12.387 12.387 32.683 0 45.07-12.387 12.387-32.655 12.387-45.07 0l-71.149-71.177c-12.387-12.387-12.387-32.655 0-45.042z" fill="#42a6a3" fill-rule="evenodd" fill-opacity="1" data-original-color="#42a6a3ff" stroke="none" stroke-opacity="1"/></g><g><path clip-rule="evenodd" d="m132.51 317.496c12.387-12.387 12.387-32.683 0-45.07l-13.436-13.436-22.138-22.138-45.07 45.07 35.574 35.574c12.415 12.388 32.683 12.388 45.07 0z" fill="#bdf3ec" fill-rule="evenodd" fill-opacity="1" data-original-color="#bdf3ecff" stroke="none" stroke-opacity="1"/></g><g><path clip-rule="evenodd" d="m495.71 201.277c-12.416-12.387-32.683-12.387-45.07 0l-71.177 71.149c-12.387 12.387-12.387 32.683 0 45.07 12.416 12.387 32.683 12.387 45.07 0l71.177-71.177c12.387-12.387 12.387-32.655 0-45.042z" fill="#42a6a3" fill-rule="evenodd" fill-opacity="1" data-original-color="#42a6a3ff" stroke="none" stroke-opacity="1"/></g><g><path clip-rule="evenodd" d="m379.462 317.496c-12.387-12.387-12.387-32.683 0-45.07l13.436-13.436 22.167-22.138 45.042 45.07-35.574 35.574c-12.388 12.388-32.656 12.388-45.071 0z" fill="#bdf3ec" fill-rule="evenodd" fill-opacity="1" data-original-color="#bdf3ecff" stroke="none" stroke-opacity="1"/></g><g><path clip-rule="evenodd" d="m175.993 275.26-13.209-13.181-99.24-99.268c-12.416-12.387-12.416-32.655 0-45.07 12.387-12.387 32.655-12.387 45.042 0l54.141 54.141 76.705 76.705c.17.255.283.51.283.794v220.703c0 17.518-14.343 31.861-31.861 31.861-17.518 0-31.861-14.343-31.861-31.861z" fill="#79cecb" fill-rule="evenodd" fill-opacity="1" data-original-color="#79cecbff" stroke="none" stroke-opacity="1"/></g><g><path clip-rule="evenodd" d="m119.102 218.37 47.537-42.576-3.912-3.912-54.141-54.141c-12.387-12.387-32.655-12.387-45.042 0-12.416 12.416-12.416 32.683 0 45.07l35.149 35.178z" fill="#42a6a3" fill-rule="evenodd" fill-opacity="1" data-original-color="#42a6a3ff" stroke="none" stroke-opacity="1"/></g><g><path clip-rule="evenodd" d="m336.007 275.26 13.181-13.181 99.268-99.268c12.387-12.387 12.387-32.655 0-45.07-12.387-12.387-32.655-12.387-45.07 0l-54.113 54.141-76.705 76.705c-.198.255-.283.51-.283.794v220.703c0 17.518 14.315 31.861 31.861 31.861 17.518 0 31.861-14.343 31.861-31.861z" fill="#79cecb" fill-rule="evenodd" fill-opacity="1" data-original-color="#79cecbff" stroke="none" stroke-opacity="1"/></g><g><path clip-rule="evenodd" d="m392.898 218.37-47.537-42.576 3.912-3.912 54.113-54.141c12.416-12.387 32.683-12.387 45.07 0 12.387 12.416 12.387 32.683 0 45.07l-35.178 35.178z" fill="#42a6a3" fill-rule="evenodd" fill-opacity="1" data-original-color="#42a6a3ff" stroke="none" stroke-opacity="1"/></g></g><path d="m167.762 116.358c3.859 0 6.988-3.129 6.988-6.988v-1.102h14.995c1.377 13.136 6.594 25.141 14.5 34.886l-10.653 10.652-.774-.774c-2.729-2.729-7.154-2.729-9.882 0-2.729 2.729-2.729 7.154 0 9.883l5.712 5.713c.001 0 .002.001.002.002s.002.001.002.002l5.712 5.712c1.365 1.365 3.153 2.047 4.941 2.047s3.577-.682 4.941-2.047c2.729-2.729 2.729-7.154 0-9.883l-.773-.773 10.657-10.657c9.745 7.893 21.749 13.102 34.881 14.477v15.022h-1.103c-3.859 0-6.988 3.129-6.988 6.988 0 3.86 3.129 6.988 6.988 6.988h16.182c3.859 0 6.988-3.129 6.988-6.988 0-3.86-3.128-6.988-6.988-6.988h-1.104v-15.022c13.133-1.375 25.136-6.584 34.882-14.476l10.658 10.657-.773.773c-2.729 2.729-2.729 7.154 0 9.883 1.365 1.365 3.152 2.047 4.941 2.047s3.576-.682 4.941-2.047l5.71-5.71c.002-.001.003-.003.005-.004s.003-.003.005-.005l5.71-5.71c2.729-2.729 2.729-7.154 0-9.883s-7.153-2.729-9.882 0l-.774.774-10.653-10.653c7.906-9.744 13.123-21.75 14.5-34.886h14.995v1.102c0 3.86 3.129 6.988 6.988 6.988s6.988-3.129 6.988-6.988v-16.182c0-3.86-3.129-6.988-6.988-6.988s-6.988 3.129-6.988 6.988v1.103h-14.995c-1.376-13.138-6.59-25.146-14.492-34.894l10.646-10.646.774.774c1.365 1.365 3.152 2.047 4.941 2.047s3.576-.682 4.941-2.047c2.729-2.729 2.729-7.154 0-9.883l-11.43-11.43c-2.729-2.729-7.153-2.729-9.882 0s-2.729 7.154 0 9.883l.774.773-10.645 10.646c-9.748-7.902-21.756-13.117-34.894-14.493v-14.993h1.104c3.859 0 6.988-3.129 6.988-6.988s-3.128-6.988-6.988-6.988h-16.182c-3.859 0-6.988 3.129-6.988 6.988s3.129 6.988 6.988 6.988h1.103v14.994c-13.138 1.376-25.146 6.591-34.894 14.493l-10.647-10.645.774-.774c2.728-2.729 2.728-7.154 0-9.883-2.729-2.729-7.153-2.729-9.882 0l-11.429 11.43c-2.729 2.729-2.729 7.154 0 9.883 1.365 1.365 3.152 2.047 4.941 2.047s3.577-.682 4.941-2.047l.773-.773 10.645 10.645c-7.901 9.747-13.116 21.755-14.492 34.894h-14.994v-1.103c0-3.86-3.129-6.988-6.988-6.988s-6.988 3.129-6.988 6.988v16.182c0 3.858 3.129 6.987 6.988 6.987zm88.238-67.728c29.031 0 52.65 23.618 52.65 52.649 0 29.015-23.618 52.62-52.65 52.62-29.031 0-52.648-23.605-52.648-52.62-.001-29.031 23.617-52.649 52.648-52.649zm-30.366 48.615c-1.892-3.264-2.393-7.056-1.418-10.695.976-3.643 3.31-6.682 6.573-8.558 6.697-3.854 15.321-1.548 19.223 5.139 1.895 3.296 2.39 7.088 1.416 10.713-.976 3.633-3.31 6.666-6.572 8.541-2.2 1.265-4.607 1.866-6.986 1.866-4.866.001-9.617-2.515-12.236-7.006zm274.538 96.701c-.002-.002-.004-.004-.005-.006-7.299-7.299-17.037-11.318-27.418-11.318-10.382 0-20.119 4.019-27.418 11.318l-11.22 11.22-10.957-9.827 29.88-29.872c15.126-15.126 15.126-39.739 0-54.865-7.299-7.299-17.042-11.318-27.433-11.318s-20.133 4.019-27.432 11.318l-130.589 130.59c-.731.731-1.291 1.615-1.638 2.588l-.283.791c-.271.755-.408 1.552-.408 2.354v56.977h-18.502v-56.977c0-.876-.165-1.744-.485-2.558l-.311-.791c-.351-.893-.882-1.704-1.56-2.382l-76.555-76.584-54.006-54.007c-7.299-7.299-17.042-11.318-27.432-11.318-10.391 0-20.134 4.019-27.433 11.318-15.125 15.126-15.125 39.739.001 54.865l29.88 29.872-10.958 9.827-11.22-11.221c-7.299-7.299-17.037-11.318-27.418-11.318-10.382 0-20.12 4.019-27.419 11.318-.001.002-.003.004-.005.006-15.106 15.14-15.104 39.751.005 54.859l71.01 71.039c7.563 7.562 17.495 11.343 27.43 11.343s19.874-3.783 27.44-11.349c15.106-15.141 15.104-39.751-.006-54.86l-8.188-8.188 10.973-9.826 17.542 17.537 11.114 11.138v54.766c0 3.859 3.129 6.988 6.988 6.988s6.988-3.129 6.988-6.988v-57.656c0-1.851-.734-3.626-2.041-4.936l-13.162-13.19-38.395-38.385 37.01-33.169 66.239 66.264v61.551 56.27 100.008c0 13.681-11.143 24.81-24.839 24.81-13.681 0-24.811-11.129-24.811-24.81v-112.795c0-3.86-3.129-6.988-6.988-6.988s-6.988 3.129-6.988 6.988v112.795c0 21.386 17.399 38.787 38.786 38.787 21.403 0 38.814-17.4 38.814-38.787v-93.02h18.502v93.02c0 21.386 17.4 38.787 38.787 38.787 21.403 0 38.814-17.4 38.814-38.787v-191.524l11.107-11.132 17.549-17.544 10.973 9.827-8.188 8.188c-15.109 15.109-15.112 39.719 0 54.865 7.563 7.562 17.497 11.344 27.432 11.344s19.87-3.781 27.433-11.345l71.008-71.037c15.11-15.108 15.112-39.718.006-54.858zm-478.456 44.976c-9.664-9.664-9.664-25.408 0-35.1 4.659-4.66 10.887-7.226 17.536-7.226s12.876 2.566 17.536 7.226l15.899 15.899 14.691 14.691-35.103 35.081zm106.109 71.038c-9.676 9.677-25.422 9.677-35.099.001l-30.571-30.583 35.105-35.083 17.156 17.156c.002.001.003.003.005.004l13.404 13.405c9.666 9.666 9.664 25.415 0 35.1zm2.759-72.885-10.962 9.817-31.835-31.835 10.959-9.828 14.035 14.031zm-10.955-30.734-15.67-15.681c-.064-.064-.134-.12-.199-.181l-34.911-34.901c-9.677-9.677-9.677-25.422 0-35.1 4.659-4.66 10.892-7.226 17.55-7.226 6.657 0 12.89 2.566 17.55 7.226l52.692 52.692zm145.622 153.825h-18.502v-42.293h18.502zm142.802-239.688c4.659-4.66 10.892-7.226 17.549-7.226 6.658 0 12.891 2.566 17.55 7.226 9.677 9.677 9.677 25.422 0 35.1l-34.912 34.902c-.065.061-.134.116-.198.18l-15.671 15.681-37.011-33.17zm-63.98 134.151-13.155 13.184c-1.307 1.31-2.041 3.085-2.041 4.936v194.413c0 13.681-11.143 24.81-24.839 24.81-13.681 0-24.811-11.129-24.811-24.81v-100.008-56.27-61.58l66.237-66.237 37.011 33.171zm37.343-17.554 18.136-18.147 13.703-13.699 10.959 9.828-31.835 31.836zm37.859 72.885c-9.676 9.678-25.422 9.677-35.094.006-9.669-9.691-9.672-25.44-.006-35.106l13.405-13.405c.002-.001.003-.003.005-.004l17.156-17.156 35.105 35.083zm71.009-71.037-30.558 30.57-35.103-35.081 14.691-14.691 15.899-15.899c4.66-4.66 10.888-7.226 17.536-7.226s12.876 2.566 17.535 7.226c9.664 9.693 9.665 25.436 0 35.101z" fill="#000000" fill-opacity="1" data-original-color="#0d5f5aff" stroke="none" stroke-opacity="1"/></g></svg>