<svg id="Layer_1" height="300" viewBox="0 0 512 512" width="300" xmlns="http://www.w3.org/2000/svg" data-name="Layer 1" version="1.1" xmlns:xlink="http://www.w3.org/1999/xlink" xmlns:svgjs="http://svgjs.dev/svgjs"><g width="100%" height="100%" transform="matrix(1,0,0,1,0,0)"><path d="m160.73 28.28v189.18q0 10.635.83 21.12a267.732 267.732 0 0 0 147.13 218.3l19.67 9.83 19.67-9.83a267.68 267.68 0 0 0 147.97-239.42v-189.18z" fill="#eb7288" fill-opacity="1" data-original-color="#eb7288ff" stroke="none" stroke-opacity="1"/><path d="m170.83 290.33a267.841 267.841 0 0 0 44.24 88.8 77.335 77.335 0 0 1 -75.17 59.3c-.45 0-.89 0-1.33-.02a77.266 77.266 0 0 1 0-154.51c.44-.02.88-.02 1.33-.02a76.826 76.826 0 0 1 30.93 6.45z" fill="#5fcda4" fill-opacity="1" data-original-color="#5fcda4ff" stroke="none" stroke-opacity="1"/><path d="m461.03 62.73v175.73a203.236 203.236 0 0 1 -102.21 176.35l-30.46 17.45-30.45-17.45a203.236 203.236 0 0 1 -102.21-176.35v-175.73z" fill="#f3cf7d" fill-opacity="1" data-original-color="#f3cf7dff" stroke="none" stroke-opacity="1"/><path d="m405.73 196.72v41.91h-58.02v58.03h-41.91v-58.03h-58.03v-41.91h58.03v-58.03h41.91v58.03z" fill="#eb7288" fill-opacity="1" data-original-color="#eb7288ff" stroke="none" stroke-opacity="1"/><path d="m158.92 71.08a46.546 46.546 0 0 0 -33.81 78.53c8.227 8.7 22.716 14.211 35.62 14.534v-93.064z" fill="#5fcda4" fill-opacity="1" data-original-color="#5fcda4ff" stroke="none" stroke-opacity="1"/><path d="m113.76 414.25a77.262 77.262 0 0 1 41.163-128.889 77.544 77.544 0 0 0 -15.023-1.481c-.45 0-.89 0-1.33.02a77.266 77.266 0 0 0 0 154.51c.44.02.88.02 1.33.02a77.53 77.53 0 0 0 15.046-1.478 77.1 77.1 0 0 1 -41.186-22.702z" fill="#4da07e" fill-opacity="1" data-original-color="#4da07eff" stroke="none" stroke-opacity="1"/><path d="m327.91 414.81a203.236 203.236 0 0 1 -102.21-176.35v-175.73h-30v175.73a203.236 203.236 0 0 0 102.21 176.35l30.45 17.45 15-8.595z" fill="#c1a161" fill-opacity="1" data-original-color="#c1a161ff" stroke="none" stroke-opacity="1"/><path d="m151.11 149.61a46.534 46.534 0 0 1 9.62-71.744v-6.786h-1.81a46.546 46.546 0 0 0 -33.81 78.53c8.227 8.7 22.716 14.211 35.62 14.534v-7.2a40.718 40.718 0 0 1 -9.62-7.334z" fill="#4da380" fill-opacity="1" data-original-color="#4da380ff" stroke="none" stroke-opacity="1"/><g fill="#284268"><path d="m233.148 286.846a6 6 0 0 0 -3.472 7.742q.828 2.175 1.7 4.327a6 6 0 1 0 11.124-4.515q-.825-2.031-1.605-4.081a6 6 0 0 0 -7.747-3.473z" fill="#000000" fill-opacity="1" data-original-color="#284268ff" stroke="none" stroke-opacity="1"/><path d="m246.148 316.447a6 6 0 0 0 -2.2 8.195 209.37 209.37 0 0 0 34.088 44.237 6 6 0 0 0 8.444-8.528 197.285 197.285 0 0 1 -32.135-41.7 6 6 0 0 0 -8.197-2.204z" fill="#000000" fill-opacity="1" data-original-color="#284268ff" stroke="none" stroke-opacity="1"/><path d="m347.706 132.691h-41.906a6 6 0 0 0 -6 6v52.029h-52.031a6 6 0 0 0 -6 6v41.909a6 6 0 0 0 6 6h52.031v52.028a6 6 0 0 0 6 6h41.909a6 6 0 0 0 6-6v-52.028h52.028a6 6 0 0 0 6-6v-41.909a6 6 0 0 0 -6-6h-52.031v-52.029a6 6 0 0 0 -6-6zm52.028 70.029v29.909h-52.028a6 6 0 0 0 -6 6v52.028h-29.906v-52.028a6 6 0 0 0 -6-6h-52.031v-29.909h52.031a6 6 0 0 0 6-6v-52.029h29.909v52.029a6 6 0 0 0 6 6z" fill="#000000" fill-opacity="1" data-original-color="#284268ff" stroke="none" stroke-opacity="1"/><path d="m294.928 420.018 30.453 17.447a6 6 0 0 0 5.965 0l30.454-17.447a209.726 209.726 0 0 0 105.225-181.556v-175.732a6 6 0 0 0 -6-6h-265.325a6 6 0 0 0 -6 6v35.27a6 6 0 1 0 12 0v-29.27h253.325v169.732a197.7 197.7 0 0 1 -99.191 171.144l-27.471 15.738-27.47-15.738a197.7 197.7 0 0 1 -99.193-171.144v-90.462a6 6 0 0 0 -12 0v90.462a209.725 209.725 0 0 0 105.228 181.556z" fill="#000000" fill-opacity="1" data-original-color="#284268ff" stroke="none" stroke-opacity="1"/><path d="m496 22.277h-335.273a6 6 0 0 0 -6 6v9.523h-11.054a6 6 0 0 0 0 12h11.054v15.46a52.315 52.315 0 0 0 -29.527 12.112l-11.621-11.255 5.876-6.065a6 6 0 0 0 -8.619-8.35l-20.1 20.749a6 6 0 0 0 8.62 8.349l5.875-6.065 11.7 11.339a52.27 52.27 0 0 0 -10.2 25.55h-16.441v-8.445a6 6 0 0 0 -12 0v28.889a6 6 0 0 0 12 0v-8.444h16.44a52.27 52.27 0 0 0 10.2 25.549l-11.7 11.338-5.875-6.064a6 6 0 0 0 -8.62 8.349l20.1 20.748a6 6 0 0 0 8.619-8.349l-5.876-6.065 11.622-11.255a52.347 52.347 0 0 0 26.923 11.847v15.729h-8.445a6 6 0 0 0 0 12h11.054v20.01q0 7.581.423 15.123h-40.566a6 6 0 0 0 0 12h17.98v33.639a82.965 82.965 0 0 0 -48.8 21.481l-24.745-23.973 12.513-12.915a6 6 0 0 0 -8.619-8.349l-33.374 34.446a6 6 0 0 0 8.619 8.35l12.512-12.914 24.838 24.065a82.871 82.871 0 0 0 -18.643 46.739h-34.87v-17.981a6 6 0 0 0 -12 0v47.962a6 6 0 0 0 12 0v-17.981h34.87a82.871 82.871 0 0 0 18.643 46.74l-24.838 24.065-12.512-12.914a6 6 0 0 0 -8.619 8.35l33.374 34.446a6 6 0 0 0 8.619-8.35l-12.513-12.914 24.744-23.976a82.971 82.971 0 0 0 48.8 21.481v33.639h-17.98a6 6 0 0 0 0 12h47.962a6 6 0 0 0 0-12h-17.981v-33.438a83.036 83.036 0 0 0 50.173-20.35l23.373 22.644-12.515 12.914a6 6 0 0 0 8.619 8.35l33.381-34.446a6 6 0 0 0 -8.619-8.35l-12.513 12.914-23.285-22.558a82.965 82.965 0 0 0 14.2-23.669 273.472 273.472 0 0 0 88.623 70.51l19.67 9.835a6 6 0 0 0 5.367 0l19.67-9.835a273.676 273.676 0 0 0 151.287-244.78v-189.184a6 6 0 0 0 -6-6zm-341.273 135.673a40.545 40.545 0 0 1 0-80.654zm-10.158 86.634h11.511a273.556 273.556 0 0 0 6.106 36.326 82.688 82.688 0 0 0 -17.617-2.9zm-4.669 187.841a71.272 71.272 0 1 1 25.974-137.656 273.6 273.6 0 0 0 29.726 66.571q6.078 9.837 12.936 19.079a70.99 70.99 0 0 1 -68.636 52.006zm350.1-214.964a261.674 261.674 0 0 1 -144.65 234.049l-16.987 8.49-16.986-8.493a261.674 261.674 0 0 1 -144.65-234.049v-183.181h323.273z" fill="#000000" fill-opacity="1" data-original-color="#284268ff" stroke="none" stroke-opacity="1"/></g></g></svg>