<svg height="300" viewBox="0 0 128 128" width="300" xmlns="http://www.w3.org/2000/svg" version="1.1" xmlns:xlink="http://www.w3.org/1999/xlink" xmlns:svgjs="http://svgjs.dev/svgjs"><g width="100%" height="100%" transform="matrix(1,0,0,1,0,0)"><g id="LinealColor"><path d="m28.723 71.2a20.2 20.2 0 0 1 -9.624-2.33c-9.3-5.07-15-15.54-15.24-28.008-.249-12.862 5.302-24.578 14.141-29.849 8.439-5.034 17.309-5.089 23.146-.144 5.5 4.657 7.01 12.423 3.945 20.268a13.576 13.576 0 0 0 .349 10.663c2.651 5.64 5.766 16.324-3.159 24.514a20.255 20.255 0 0 1 -13.558 4.886zm1.94-61.047a22.051 22.051 0 0 0 -11.127 3.434c-7.93 4.731-12.906 15.413-12.677 27.219.22 11.377 5.332 20.884 13.676 25.432 6.019 3.281 14.863 2.325 19.718-2.13 7.134-6.547 5.282-15.049 2.472-21.028a16.592 16.592 0 0 1 -.425-13.035c2.584-6.613 1.4-13.084-3.089-16.887a12.945 12.945 0 0 0 -8.548-3.003z" fill="#000000" fill-opacity="1" data-original-color="#452f4cff" stroke="none" stroke-opacity="1"/><path d="m42.381 33.585a2.1 2.1 0 0 0 -3.791 1.784c1.295 2.972 4.428 9.016 9.928 13.19a.642.642 0 0 1 -.017 1.052c-1.672 1.114-5.646 3.761-7.358 4.878a2.162 2.162 0 0 0 2.181 3.73c2.646-1.418 8.725-6.743 10.782-6.2a26.543 26.543 0 0 1 4.881 1.81l1.482-4.3c-2.514-.977-11.457-2.956-18.088-15.944z" fill="#488def" fill-opacity="1" data-original-color="#488defff" stroke="none" stroke-opacity="1"/><path d="m42.311 59.976a3.667 3.667 0 0 1 -1.989-6.743c1.43-.933 4.44-2.934 6.363-4.215a36.025 36.025 0 0 1 -9.385-12.851 3.737 3.737 0 0 1 1.335-4.7 3.583 3.583 0 0 1 3.658-.055 3.734 3.734 0 0 1 1.473 1.588c5.43 10.576 12.249 13.6 15.693 14.68a1.479 1.479 0 0 1 .986 1.759 1.5 1.5 0 0 1 -1.945 1.061c-7.356-2.45-13.2-7.9-17.457-16.234a.6.6 0 0 0 -.362-.3.585.585 0 0 0 -.454.045.6.6 0 0 0 -.264.763c1.317 3.021 4.3 8.674 9.456 12.591a2.168 2.168 0 0 1 .858 1.791 2.138 2.138 0 0 1 -.95 1.71c-1.678 1.117-5.653 3.765-7.367 4.884a.672.672 0 0 0 -.288.734.65.65 0 0 0 .376.439.643.643 0 0 0 .566-.023 37.992 37.992 0 0 0 3.268-2.2c4.069-2.91 6.678-4.639 8.606-4.129a51.233 51.233 0 0 1 4.986 1.841 1.56 1.56 0 0 1 .976 1.747 1.5 1.5 0 0 1 -2.03 1.061c-2.274-.928-3.943-1.549-4.7-1.749-.929-.023-4.287 2.379-6.091 3.669a38.458 38.458 0 0 1 -3.6 2.4 3.643 3.643 0 0 1 -1.718.436z" fill="#000000" fill-opacity="1" data-original-color="#452f4cff" stroke="none" stroke-opacity="1"/><rect fill="#488def" height="121.955" rx="4.392" width="8.784" x="68.175" y="3.523" fill-opacity="1" data-original-color="#488defff" stroke="none" stroke-opacity="1"/><rect fill="#cc336e" height="121.955" rx="4.392" width="8.784" x="54.244" y="3.523" fill-opacity="1" data-original-color="#cc336eff" stroke="none" stroke-opacity="1"/><path d="m57.3 37.771c-3.785-1.639-9.391-5.329-13.922-14.205a2.026 2.026 0 0 0 -3.664 1.725c1.252 2.872 4.278 8.709 9.586 12.743a.628.628 0 0 1 -.017 1.029c-1.62 1.08-5.452 3.632-7.1 4.711a2.089 2.089 0 0 0 2.108 3.6c2.558-1.37 8.435-6.518 10.423-5.991.985.261 3 1.05 4.719 1.75z" fill="#cc336e" fill-opacity="1" data-original-color="#cc336eff" stroke="none" stroke-opacity="1"/><path d="m83.3 42.442a15.039 15.039 0 0 0 .388-11.851c-6.07-15.526 7.822-28.491 24.922-18.291 17.065 10.177 19.054 44.3-1.05 55.253-6.457 3.519-16.032 2.631-21.45-2.341-7.81-7.171-5.743-16.542-2.81-22.77z" fill="#8c4478" fill-opacity="1" data-original-color="#8c4478ff" stroke="none" stroke-opacity="1"/><path d="m89.515 42.734c1.307-2.847 1.627-8.364.509-11.294-4.533-11.875 2.628-21.168 15.406-13.369 12.753 7.784 14.623 35.071-.4 43.451-4.825 2.692-11.981 2.013-16.029-1.79-5.84-5.486-1.674-12.232.514-16.998z" fill="#723065" fill-opacity="1" data-original-color="#723065ff" stroke="none" stroke-opacity="1"/><path d="m98.379 64.661a15.331 15.331 0 0 1 -10.4-3.836c-6.066-5.7-2.719-12.667-.5-17.279.239-.5.469-.977.681-1.438 1.174-2.556 1.412-7.67.471-10.133-2.537-6.648-1.691-13.01 2.155-16.209 3.7-3.077 9.327-2.7 15.434 1.025 6.849 4.18 11.141 13.667 10.935 24.167-.192 9.828-4.448 18.005-11.385 21.875a15.226 15.226 0 0 1 -7.391 1.828zm-7.5-21.3c-.219.476-.457.973-.7 1.485-2.613 5.44-4.283 9.909-.148 13.794 3.513 3.3 9.915 4 14.272 1.573 5.995-3.344 9.677-10.564 9.848-19.312.183-9.31-3.635-17.969-9.5-21.548-4.945-3.019-9.3-3.485-11.954-1.279-2.844 2.365-3.342 7.4-1.27 12.832 1.229 3.219.968 9.156-.547 12.455z" fill="#000000" fill-opacity="1" data-original-color="#452f4cff" stroke="none" stroke-opacity="1"/><path d="m98.654 71.2a20.255 20.255 0 0 1 -13.554-4.882c-8.924-8.189-5.81-18.874-3.159-24.514a13.576 13.576 0 0 0 .349-10.667c-3.064-7.845-1.553-15.611 3.945-20.268 5.838-4.943 14.707-4.889 23.147.144 8.839 5.271 14.389 16.988 14.14 29.851-.242 12.469-5.939 22.938-15.24 28.008a20.212 20.212 0 0 1 -9.628 2.328zm-14-28.122c-2.81 5.979-4.662 14.481 2.473 21.028 4.854 4.455 13.7 5.41 19.717 2.13 8.344-4.548 13.456-14.055 13.676-25.432.229-11.8-4.747-22.488-12.676-27.217-7.416-4.421-14.769-4.583-19.672-.431-4.489 3.8-5.673 10.273-3.09 16.887a16.584 16.584 0 0 1 -.428 13.035z" fill="#000000" fill-opacity="1" data-original-color="#452f4cff" stroke="none" stroke-opacity="1"/><path d="m110.315 37.911a65.02 65.02 0 0 1 -21.544-3.386.641.641 0 0 1 .151-1.011 31.721 31.721 0 0 0 5.821-6.227 2 2 0 0 0 -3.184-2.42c-2.407 3.153-4.572 6.036-7.826 7.464-1.681.738-4.265.585-6.269.744a9.3 9.3 0 0 0 -6.274 3.251l1.884 4.2a8.706 8.706 0 0 1 5.72-3.253 11.117 11.117 0 0 1 5.737.727c9.223 3.639 21.118 3.991 25.8 3.974a2.03 2.03 0 1 0 -.021-4.059z" fill="#488def" fill-opacity="1" data-original-color="#488defff" stroke="none" stroke-opacity="1"/><path d="m112.813 37.428a3.55 3.55 0 0 0 -2.515-1.017 65.769 65.769 0 0 1 -19.228-2.711 40.282 40.282 0 0 0 4.876-5.518 3.542 3.542 0 0 0 .651-2.689 3.462 3.462 0 0 0 -1.483-2.31 3.5 3.5 0 0 0 -4.746.773l-.123.161c-2.292 3-4.271 5.591-7.114 6.84a12.77 12.77 0 0 1 -4.038.535l-.632.025v-23.606a5.894 5.894 0 0 0 -11.787 0v113.178a5.894 5.894 0 0 0 11.787 0v-82.212c.188-.041.36-.1.56-.126a9.635 9.635 0 0 1 4.959.64c9.266 3.656 21.089 4.08 26.058 4.08h.3a3.531 3.531 0 0 0 2.472-6.042zm-2.482 3.042c-4.581.021-16.273-.328-25.25-3.87a12.628 12.628 0 0 0 -6.514-.814 10.712 10.712 0 0 0 -3.242 1 1.494 1.494 0 0 0 .136 2.735v81.567a2.894 2.894 0 0 1 -5.787 0v-113.177a2.894 2.894 0 0 1 5.787 0v24.013a1.5 1.5 0 0 0 .906 2.847 27.9 27.9 0 0 1 2.832-.28 14.38 14.38 0 0 0 5.137-.786c3.553-1.56 5.855-4.575 8.292-7.767l.123-.16a.5.5 0 0 1 .678-.112.484.484 0 0 1 .21.326.524.524 0 0 1 -.1.4 30.545 30.545 0 0 1 -5.47 5.887 2.238 2.238 0 0 0 -.982 1.672 2.071 2.071 0 0 0 .657 1.671 1.5 1.5 0 0 0 .5.307 65.663 65.663 0 0 0 22.092 3.483.689.689 0 0 1 .371.15.532.532 0 0 1 -.373.909z" fill="#000000" fill-opacity="1" data-original-color="#452f4cff" stroke="none" stroke-opacity="1"/><path d="m62.54 63.023 14.127-14.177a9.485 9.485 0 0 1 5.123-3.106c1.808-.41 3.926-.859 4.941-.956 2.048-.2 7 5.844 9.3 7.614a2.084 2.084 0 0 0 3.17-.8 2.1 2.1 0 0 0 -.5-2.412c-1.455-1.335-4.823-4.482-6.243-5.811a.624.624 0 0 1 .151-1.012c6.307-3.325 12.246-11.35 14.566-14.74a1.986 1.986 0 0 0 -.418-2.684 1.981 1.981 0 0 0 -2.813.376c-4.5 6.1-8.641 10.629-13.072 13.138a26.042 26.042 0 0 1 -9.815 2.947 9.5 9.5 0 0 0 -6.273 3.251l-12.244 10.379z" fill="#cc336e" fill-opacity="1" data-original-color="#cc336eff" stroke="none" stroke-opacity="1"/><path d="m107.684 23.758a3.482 3.482 0 0 0 -4.944.666c-4.9 6.639-8.788 10.563-12.6 12.723a24.668 24.668 0 0 1 -9.226 2.76 12.013 12.013 0 0 0 -7.183 3.673c-2.152 2.111-9.2 7.8-9.2 7.8v-43.469a5.893 5.893 0 0 0 -11.786 0v25.324a31.532 31.532 0 0 1 -8.023-10.35 3.528 3.528 0 0 0 -6.38 3.009 35.363 35.363 0 0 0 8.895 12.4.213.213 0 0 1 -.012.345c-1.86 1.239-4.551 3.024-5.859 3.884a3.577 3.577 0 0 0 -1.642 3 3.51 3.51 0 0 0 .07.689 3.584 3.584 0 0 0 3.523 2.911 3.582 3.582 0 0 0 1.683-.423c.032-.017 6.219-4.294 7.744-5.154v77.323a6.038 6.038 0 0 0 5.117 6.055 5.9 5.9 0 0 0 6.669-5.838v-58.111s13.253-13.124 13.281-13.157a8.023 8.023 0 0 1 4.311-2.618c2.314-.525 4-.854 4.68-.925.947.135 3.754 2.939 5.262 4.446a37.258 37.258 0 0 0 3.056 2.863 3.584 3.584 0 0 0 5.452-1.372 3.6 3.6 0 0 0 -.854-4.133c-1.2-1.107-3.726-3.459-5.359-4.986 6.214-3.761 11.841-11.393 14.057-14.623a3.491 3.491 0 0 0 -.732-4.712zm-1.744 3.018c-2.21 3.229-8 11.082-14.027 14.26a2.147 2.147 0 0 0 -1.129 1.61 2.119 2.119 0 0 0 .652 1.825c1.423 1.33 4.8 4.483 6.253 5.821a.6.6 0 0 1 .148.689.579.579 0 0 1 -.4.331.565.565 0 0 1 -.492-.1 36.829 36.829 0 0 1 -2.76-2.612c-3.432-3.429-5.656-5.5-7.6-5.311a49.789 49.789 0 0 0 -5.131.986 11.729 11.729 0 0 0 -5.89 3.547c-3.507 3.76-14.616 14.47-14.616 14.47a1.5 1.5 0 0 0 -.011 2.121 1.466 1.466 0 0 0 .586.351v56.215a2.958 2.958 0 0 1 -2.316 2.941 2.9 2.9 0 0 1 -3.47-2.833v-78.171a1.494 1.494 0 0 0 .954-1.251 1.622 1.622 0 0 0 -1.178-1.613 2.711 2.711 0 0 0 -1.7.06c-3.182 1.089-10.25 5.951-10.25 5.951a.581.581 0 0 1 -.816-.372.667.667 0 0 1 -.027-.166.584.584 0 0 1 .28-.494c1.654-1.087 5.492-3.635 7.107-4.715a2.121 2.121 0 0 0 .951-1.68 2.17 2.17 0 0 0 -.849-1.8 31.44 31.44 0 0 1 -9.117-12.136.532.532 0 0 1 .217-.68.5.5 0 0 1 .734.22c3.22 6.324 7.4 10.964 12.422 13.792a1.5 1.5 0 0 0 2.152-.808 1.565 1.565 0 0 0 -.765-1.854c-.038-.022-.073-.048-.111-.07v-27.389a2.893 2.893 0 0 1 5.786 0v46.007l-.49.415a1.5 1.5 0 1 0 1.94 2.289s12.023-10.205 12.943-10.992a9.775 9.775 0 0 1 5.28-2.737 27.283 27.283 0 0 0 10.41-3.135c4.2-2.378 8.376-6.557 13.539-13.552a.462.462 0 0 1 .314-.185.493.493 0 0 1 .368.1.485.485 0 0 1 .109.655z" fill="#000000" fill-opacity="1" data-original-color="#452f4cff" stroke="none" stroke-opacity="1"/><path d="m45.271 41.529a15.662 15.662 0 0 1 -.4-12.341c6.312-16.168-8.154-29.665-25.962-19.046-17.771 10.597-19.843 46.129 1.091 57.539 6.724 3.664 16.7 2.74 22.337-2.438 8.14-7.469 5.983-17.228 2.934-23.714z" fill="#8c4478" fill-opacity="1" data-original-color="#8c4478ff" stroke="none" stroke-opacity="1"/><path d="m29.277 71.417a20.98 20.98 0 0 1 -9.993-2.417c-9.666-5.271-15.584-16.154-15.838-29.115-.258-13.373 5.51-25.554 14.695-31.031 8.766-5.227 17.975-5.286 24.032-.154 5.7 4.832 7.272 12.892 4.091 21.036a14.2 14.2 0 0 0 .365 11.157c2.753 5.859 5.989 16.955-3.275 25.457a21.034 21.034 0 0 1 -14.077 5.067zm2.023-63.572a23.026 23.026 0 0 0 -11.62 3.585c-8.28 4.936-13.472 16.082-13.234 28.397.229 11.873 5.566 21.791 14.274 26.537 6.289 3.427 15.532 2.428 20.605-2.226 7.458-6.844 5.524-15.725 2.589-21.971a17.206 17.206 0 0 1 -.444-13.525c2.7-6.913 1.46-13.678-3.236-17.655a13.538 13.538 0 0 0 -8.934-3.142z" fill="#000000" fill-opacity="1" data-original-color="#452f4cff" stroke="none" stroke-opacity="1"/></g></g></svg>