<svg id="Layer_1" enable-background="new 0 0 256 256" height="300" viewBox="0 0 256 256" width="300" xmlns="http://www.w3.org/2000/svg" version="1.1" xmlns:xlink="http://www.w3.org/1999/xlink" xmlns:svgjs="http://svgjs.dev/svgjs"><g width="100%" height="100%" transform="matrix(1,0,0,1,0,0)"><g><g><path d="m107.808 4c-11.152 0-20.192 9.04-20.192 20.192v1.65c-.259-.005-.51-.039-.77-.039-21.346 0-38.89 16.253-40.947 37.058-14.989 9.486-24.95 26.2-24.95 45.25 0 7.031 1.37 13.738 3.834 19.889-2.464 6.151-3.834 12.858-3.834 19.889 0 19.05 9.961 35.765 24.95 45.25 2.057 20.805 19.601 37.058 40.947 37.058.26 0 .511-.034.77-.039v1.65c0 11.152 9.04 20.192 20.192 20.192s20.192-9.04 20.192-20.192v-207.616c0-11.152-9.04-20.192-20.192-20.192z" fill="#ff4397" fill-opacity="1" data-original-color="#ff4397ff" stroke="none" stroke-opacity="1"/></g><g><path d="m20.949 108.111c0-19.05 9.961-35.764 24.95-45.25 2.057-20.805 19.602-37.058 40.947-37.058.26 0 .511.034.769.039v-1.65c.001-11.152 9.041-20.192 20.193-20.192 1.729 0 3.398.241 5 .649-8.729 2.228-15.192 10.12-15.192 19.543v1.65c-.259-.005-.51-.039-.769-.039-21.346 0-38.891 16.253-40.947 37.058-14.989 9.486-24.95 26.2-24.95 45.25 0 7.031 1.37 13.738 3.834 19.889-2.464 6.151-3.834 12.858-3.834 19.889 0 19.05 9.961 35.765 24.95 45.25 2.057 20.805 19.602 37.058 40.947 37.058.26 0 .511-.034.769-.039v1.65c0 9.423 6.464 17.315 15.192 19.543-1.602.409-3.271.65-5 .65-11.152 0-20.192-9.04-20.192-20.192v-1.65c-.259.005-.51.039-.769.039-21.346 0-38.891-16.253-40.947-37.058-14.989-9.486-24.95-26.2-24.95-45.25 0-7.031 1.37-13.738 3.834-19.889-2.465-6.152-3.835-12.859-3.835-19.89z" fill="#ff61b5" fill-opacity="1" data-original-color="#ff61b5ff" stroke="none" stroke-opacity="1"/></g><g><path d="m148.192 4c11.152 0 20.192 9.04 20.192 20.192v1.65c.259-.005.51-.039.769-.039 21.346 0 38.891 16.253 40.947 37.058 14.989 9.486 24.95 26.2 24.95 45.25 0 7.031-1.37 13.738-3.834 19.889 2.464 6.151 3.834 12.858 3.834 19.889 0 19.05-9.961 35.765-24.95 45.25-2.057 20.805-19.602 37.058-40.947 37.058-.26 0-.511-.034-.769-.039v1.65c0 11.152-9.04 20.192-20.192 20.192s-20.192-9.04-20.192-20.192v-207.616c0-11.152 9.04-20.192 20.192-20.192z" fill="#ff4397" fill-opacity="1" data-original-color="#ff4397ff" stroke="none" stroke-opacity="1"/></g><g><path d="m107.808 254c-12.113 0-21.99-9.754-22.189-21.821-21.409-.592-39.026-16.611-41.604-37.876-15.715-10.323-25.065-27.601-25.065-46.415 0-6.837 1.239-13.524 3.685-19.889-2.445-6.365-3.685-13.051-3.685-19.889 0-18.814 9.351-36.092 25.065-46.415 2.577-21.265 20.194-37.284 41.604-37.875.198-12.066 10.075-21.82 22.189-21.82 12.237 0 22.192 9.956 22.192 22.192v207.616c0 12.237-9.955 22.192-22.192 22.192zm-20.193-25.842c.524 0 1.026.205 1.4.572.384.376.6.891.6 1.428v1.65c0 10.031 8.161 18.192 18.192 18.192s18.192-8.161 18.192-18.192v-207.616c.001-10.031-8.16-18.192-18.191-18.192s-18.192 8.161-18.192 18.192v1.65c0 .537-.216 1.051-.6 1.428-.383.376-.876.604-1.438.572-.153-.003-.306-.013-.458-.023-.09-.006-.181-.015-.273-.015-20.222 0-36.969 15.156-38.957 35.254-.061.613-.4 1.164-.921 1.493-15.04 9.518-24.019 25.802-24.019 43.56 0 6.592 1.241 13.034 3.69 19.145.191.478.191 1.01 0 1.487-2.448 6.111-3.69 12.553-3.69 19.145 0 17.758 8.979 34.042 24.019 43.56.521.329.86.88.921 1.493 1.987 20.098 18.735 35.254 38.957 35.254.093 0 .184-.008.273-.015.152-.011.305-.02.458-.023.012.001.025.001.037.001z" fill="#000000" fill-opacity="1" data-original-color="#690589ff" stroke="none" stroke-opacity="1"/></g><g><path d="m30.949 110.661c-1.104 0-2-.896-2-2 0-4.231.531-8.437 1.58-12.5.275-1.069 1.361-1.716 2.437-1.437 1.069.276 1.713 1.367 1.437 2.436-.964 3.737-1.453 7.606-1.453 11.501-.001 1.105-.896 2-2.001 2z" fill="#000000" fill-opacity="1" data-original-color="#690589ff" stroke="none" stroke-opacity="1"/></g><g><path d="m45.896 195.138c-1.055 0-1.937-.824-1.995-1.889-.036-.652-.771-16.076 8.483-25.001.796-.766 2.062-.745 2.828.051.767.795.744 2.061-.051 2.828-7.924 7.641-7.274 21.762-7.267 21.904.059 1.102-.787 2.044-1.89 2.104-.034.002-.071.003-.108.003z" fill="#000000" fill-opacity="1" data-original-color="#690589ff" stroke="none" stroke-opacity="1"/></g><g><path d="m127.998 174.845c-1.034 0-1.91-.796-1.992-1.844-.009-.111-.543-6.238-3.745-12.225-4.163-7.782-10.75-11.728-19.578-11.728-1.104 0-2-.895-2-2 0-1.104.896-2 2-2 24.879 0 27.29 27.365 27.311 27.641.085 1.101-.738 2.064-1.84 2.149-.052.005-.104.007-.156.007z" fill="#000000" fill-opacity="1" data-original-color="#690589ff" stroke="none" stroke-opacity="1"/></g><g><path d="m127.998 84.459c-1.034 0-1.909-.796-1.992-1.844-.009-.104-.542-6.235-3.745-12.225-4.163-7.782-10.75-11.727-19.578-11.727-1.104 0-2-.896-2-2s.896-2 2-2c24.879 0 27.29 27.365 27.311 27.642.085 1.101-.738 2.063-1.84 2.149-.052.003-.104.005-.156.005z" fill="#000000" fill-opacity="1" data-original-color="#690589ff" stroke="none" stroke-opacity="1"/></g><g><path d="m105.396 35.7c-.654 0-1.296-.32-1.679-.91-4.706-7.24-15.926-6.953-16.034-6.949-1.134.029-2.029-.828-2.066-1.932s.828-2.029 1.932-2.066c.556-.02 13.599-.349 19.522 8.767.603.926.339 2.164-.587 2.767-.338.219-.715.323-1.088.323z" fill="#000000" fill-opacity="1" data-original-color="#690589ff" stroke="none" stroke-opacity="1"/></g><g><path d="m24.781 129.999c-.271 0-.547-.055-.81-.172-1.009-.447-1.465-1.626-1.019-2.635.089-.202 9.193-20.237 30.86-19.783 1.104.022 1.981.936 1.96 2.04-.022 1.104-.971 2.016-2.04 1.959-.209-.004-.419-.006-.624-.006-18.522 0-26.179 16.692-26.499 17.411-.331.743-1.062 1.186-1.828 1.186z" fill="#000000" fill-opacity="1" data-original-color="#690589ff" stroke="none" stroke-opacity="1"/></g><g><path d="m53.771 126.167c-.917 0-1.744-.635-1.95-1.568-.061-.27-5.64-27.139 24.424-37.755 1.046-.369 2.185.179 2.552 1.22.368 1.042-.179 2.184-1.22 2.552-26.764 9.451-22.064 32.157-21.851 33.119.238 1.078-.442 2.146-1.521 2.385-.144.031-.29.047-.434.047z" fill="#000000" fill-opacity="1" data-original-color="#690589ff" stroke="none" stroke-opacity="1"/></g><g><path d="m87.613 161.947c-.96 0-1.807-.692-1.971-1.669-.183-1.089.553-2.121 1.642-2.304 15.509-2.601 13.433-23.358 13.41-23.568-.119-1.098.674-2.085 1.771-2.205 1.104-.119 2.086.674 2.205 1.772.93 8.54-1.37 25.37-16.725 27.946-.111.019-.222.028-.332.028z" fill="#000000" fill-opacity="1" data-original-color="#690589ff" stroke="none" stroke-opacity="1"/></g><g><path d="m235.051 108.111c0-19.05-9.961-35.764-24.95-45.25-2.057-20.805-19.602-37.058-40.947-37.058-.26 0-.511.034-.769.039v-1.65c-.001-11.152-9.041-20.192-20.193-20.192-1.729 0-3.398.241-5 .649 8.729 2.228 15.192 10.12 15.192 19.543v1.65c.259-.005.51-.039.769-.039 21.346 0 38.891 16.253 40.947 37.058 14.989 9.486 24.95 26.2 24.95 45.25 0 7.031-1.37 13.738-3.834 19.889 2.464 6.151 3.834 12.858 3.834 19.889 0 19.05-9.961 35.765-24.95 45.25-2.057 20.805-19.602 37.058-40.947 37.058-.26 0-.511-.034-.769-.039v1.65c0 9.423-6.464 17.315-15.192 19.543 1.602.409 3.271.65 5 .65 11.152 0 20.192-9.04 20.192-20.192v-1.65c.259.005.51.039.769.039 21.346 0 38.891-16.253 40.947-37.058 14.989-9.486 24.95-26.2 24.95-45.25 0-7.031-1.37-13.738-3.834-19.889 2.465-6.152 3.835-12.859 3.835-19.89z" fill="#e12579" fill-opacity="1" data-original-color="#e12579ff" stroke="none" stroke-opacity="1"/></g><g><path d="m148.192 254c-12.237 0-22.192-9.955-22.192-22.192v-207.616c0-12.236 9.955-22.192 22.192-22.192 12.113 0 21.99 9.754 22.189 21.821 21.41.592 39.026 16.611 41.604 37.875 15.715 10.323 25.065 27.601 25.065 46.415 0 6.837-1.239 13.524-3.685 19.889 2.445 6.365 3.685 13.051 3.685 19.889 0 18.814-9.351 36.092-25.065 46.415-2.577 21.265-20.193 37.284-41.604 37.876-.198 12.066-10.075 21.82-22.189 21.82zm0-248c-10.031 0-18.192 8.161-18.192 18.192v207.616c0 10.031 8.161 18.192 18.192 18.192s18.192-8.161 18.192-18.192v-1.65c0-.537.216-1.051.6-1.428.383-.376.915-.589 1.438-.572.153.003.306.013.458.023.091.006.181.015.272.015 20.222 0 36.971-15.156 38.958-35.254.061-.613.4-1.164.921-1.493 15.04-9.518 24.019-25.802 24.019-43.56 0-6.592-1.241-13.034-3.689-19.145-.191-.478-.191-1.01 0-1.487 2.448-6.111 3.689-12.553 3.689-19.145 0-17.758-8.979-34.042-24.019-43.56-.52-.329-.86-.88-.921-1.493-1.988-20.098-18.736-35.254-38.958-35.254-.092 0-.182.008-.272.015-.152.011-.305.021-.458.023-.525.032-1.056-.196-1.438-.572-.384-.376-.6-.891-.6-1.428v-1.65c.001-10.032-8.16-18.193-18.192-18.193z" fill="#000000" fill-opacity="1" data-original-color="#690589ff" stroke="none" stroke-opacity="1"/></g><g><path d="m210.104 195.139c-.037 0-.074-.001-.111-.003-1.103-.061-1.947-1.003-1.888-2.105.009-.181.646-14.273-7.267-21.903-.795-.767-.817-2.033-.051-2.828.769-.796 2.033-.817 2.828-.051 9.254 8.924 8.52 24.348 8.483 25.001-.058 1.064-.941 1.889-1.994 1.889z" fill="#000000" fill-opacity="1" data-original-color="#690589ff" stroke="none" stroke-opacity="1"/></g><g><path d="m128.002 174.845c-.052 0-.104-.002-.156-.006-1.102-.085-1.925-1.048-1.84-2.149.021-.276 2.433-27.641 27.312-27.641 1.105 0 2 .896 2 2 0 1.105-.895 2-2 2-8.87 0-15.477 3.982-19.635 11.834-3.184 6.012-3.684 12.056-3.689 12.117-.081 1.048-.958 1.845-1.992 1.845z" fill="#000000" fill-opacity="1" data-original-color="#690589ff" stroke="none" stroke-opacity="1"/></g><g><path d="m128.002 84.457c-.053 0-.105-.002-.159-.006-1.101-.087-1.922-1.047-1.837-2.147.021-.276 2.433-27.642 27.312-27.642 1.105 0 2 .896 2 2s-.895 2-2 2c-8.828 0-15.415 3.946-19.578 11.727-3.215 6.011-3.74 12.165-3.745 12.226-.085 1.048-.961 1.842-1.993 1.842z" fill="#000000" fill-opacity="1" data-original-color="#690589ff" stroke="none" stroke-opacity="1"/></g><g><path d="m150.605 35.7c-.374 0-.751-.104-1.088-.323-.926-.602-1.189-1.841-.587-2.767 5.924-9.115 18.964-8.781 19.522-8.767 1.104.037 1.969.962 1.932 2.066-.037 1.102-.957 1.942-2.063 1.932-.122-.007-11.354-.257-16.038 6.949-.383.59-1.024.91-1.678.91z" fill="#000000" fill-opacity="1" data-original-color="#690589ff" stroke="none" stroke-opacity="1"/></g><g><path d="m231.219 130.001c-.767 0-1.499-.444-1.829-1.19-.327-.732-7.988-17.41-26.499-17.41-.206 0-.414.002-.624.006-.014 0-.027 0-.041 0-1.086 0-1.977-.869-1.999-1.96-.021-1.104.855-2.018 1.96-2.04.232-.005.465-.007.695-.007 21.173 0 30.077 19.591 30.165 19.79.446 1.011-.011 2.191-1.021 2.638-.262.117-.537.173-.807.173z" fill="#000000" fill-opacity="1" data-original-color="#690589ff" stroke="none" stroke-opacity="1"/></g><g><path d="m202.229 126.167c-.143 0-.289-.016-.435-.048-1.077-.239-1.758-1.305-1.52-2.382.212-.979 4.801-23.71-21.851-33.122-1.041-.368-1.588-1.51-1.22-2.552.368-1.041 1.507-1.589 2.552-1.22 30.064 10.616 24.484 37.485 24.424 37.755-.206.934-1.034 1.569-1.95 1.569z" fill="#000000" fill-opacity="1" data-original-color="#690589ff" stroke="none" stroke-opacity="1"/></g><g><path d="m168.387 161.947c-.109 0-.221-.009-.333-.028-15.354-2.576-17.654-19.406-16.725-27.946.119-1.099 1.114-1.884 2.205-1.772 1.097.12 1.89 1.105 1.771 2.203-.006.054-.562 5.502.926 11.155 1.885 7.165 6.085 11.341 12.484 12.415 1.089.183 1.824 1.214 1.642 2.304-.164.977-1.01 1.669-1.97 1.669z" fill="#000000" fill-opacity="1" data-original-color="#690589ff" stroke="none" stroke-opacity="1"/></g></g></g></svg>