<svg id="Layer_1_2_" enable-background="new 0 0 48 48" height="512" viewBox="0 0 48 48" width="512" xmlns="http://www.w3.org/2000/svg"><path d="m32 44c0-3.81-1-9-3-14h-7c0 5.714 6 10.19 6 14 0 0 .829.158 2.066 0s1.934 0 1.934 0z" fill="#f2d6ad"/><path d="m31.119 36.881c-.497-2.233-1.196-4.575-2.119-6.881h-7c0 4.265 3.341 7.84 5.036 10.964 0 0 .237-.886 1.475-1.475s2.608-2.608 2.608-2.608z" fill="#fcf6f2"/><ellipse cx="32" cy="32" fill="#bc9c73" rx="5.657" ry="8.485" transform="matrix(.707 -.707 .707 .707 -13.255 32)"/><path d="m30.867 38.133s1.774-.524 2.988-2.988 4.278-4.278 4.278-4.278c-.528-.995-1.24-1.974-2.133-2.867-3.314-3.314-7.791-4.209-10-2s-1.314 6.686 2 10c.893.893 1.872 1.604 2.867 2.133z" fill="#ccb9ae"/><path d="m46 24c0-1.781-.939-3.335-2.341-4.22.212-.555.341-1.151.341-1.78 0-2.066-1.253-3.837-3.04-4.6.011-.134.04-.263.04-.4 0-2.761-2.239-5-5-5-.137 0-.266.03-.4.04-.762-1.787-2.534-3.04-4.6-3.04-.852 0-1.643.233-2.345.609-.913-.984-2.207-1.609-3.655-1.609-1.131 0-2.162.39-3 1.023-.838-.633-1.869-1.023-3-1.023-1.448 0-2.742.625-3.655 1.609-.702-.376-1.492-.609-2.345-.609-2.074 0-3.852 1.263-4.609 3.061-2.471.304-4.391 2.386-4.391 4.939 0 .323.036.638.095.944-1.264.908-2.095 2.381-2.095 4.056 0 1.261.483 2.4 1.253 3.28-.163.545-.253 1.122-.253 1.72 0 3.314 2.686 6 6 6 1.098 0 2.124-.3 3.009-.815.099 3.78 3.188 6.815 6.991 6.815 2.853 0 5.303-1.709 6.393-4.158 1.101 1.318 2.756 2.158 4.607 2.158 1.394 0 2.673-.48 3.692-1.277.883.785 2.033 1.277 3.308 1.277.314 0 .618-.037.916-.092.852.673 1.914 1.092 3.084 1.092 2.761 0 5-2.239 5-5 0-.915-.264-1.762-.694-2.5.43-.738.694-1.585.694-2.5z" fill="#fc5696"/><path d="m3 23c0 3.314 2.686 6 6 6 1.098 0 2.124-.3 3.009-.815.022.822.192 1.605.473 2.333 0 0 2.243-5.96 11.518-11.518s11.382-11.382 11.382-11.382c-.847-1.556-2.486-2.618-4.382-2.618-.852 0-1.643.233-2.345.609-.913-.984-2.207-1.609-3.655-1.609-1.131 0-2.162.39-3 1.023-.838-.633-1.869-1.023-3-1.023-1.448 0-2.742.625-3.655 1.609-.702-.376-1.492-.609-2.345-.609-2.074 0-3.852 1.263-4.609 3.061-2.471.304-4.391 2.386-4.391 4.939 0 .323.036.638.095.944-1.264.908-2.095 2.381-2.095 4.056 0 1.261.483 2.4 1.253 3.28-.163.545-.253 1.122-.253 1.72z" fill="#fc92c3"/><path d="m7.436 18.519c-.572-.05-.555-.919-.018-1 5.009-.669 10.321-2.616 11.173-8.115.093-.525.97-.538.999.045.742 6.517-6.636 10.047-12.154 9.07zm32.34 16.33c.299 3.887-3.674 6.18-7.21 5.036.429.729.499 5.524-1.092 3.977-.647-1.517-.802-2.982-.648-4.588-2.731-1.264-4.922-3.766-5.734-6.614-.381.586-.852 1.095-1.387 1.526 1.465 2.133 3.111 4.138 4.227 6.538.25.549 1.264 3.361.023 3.271-.229-.023-.407-.127-.447-.247-1.209-2.991-3.985-5.535-4.808-8.878-4.549 2.717-10.994-.294-11.387-5.707-4.495 2.608-10.659-2.352-8.766-7.289-2.186-2.385-1.878-6.622.922-8.489-.669-2.756 1.479-5.648 4.218-6.253 1.316-2.491 4.728-3.865 7.173-2.358 1.91-2.018 5.318-2.241 7.541-.663 1.823-1.304 4.564-1.227 6.437.275 2.566-1.003 5.825.195 6.897 2.727 2.918-.168 6.012 1.774 6.23 5.659 2.747 1.636 3.477 4.693 2.549 7.13 2.135 1.299 2.986 4.317 1.893 6.573 2.336 4.58-2.26 9.638-6.631 8.374zm-1.131-.481c-.345-.195-.683-.435-1.013-.723-1.343-.008-2.511-.201-3.654-.964-2.088 1.538-5.056 1.671-7.312.41 1.408 2.205 3.481 3.923 5.93 4.741 2.86 1.101 5.966-.174 6.049-3.464zm5.931-8.331c1.146-1.686.861-3.702-.543-5.162-.979 1.578-2.755 2.691-5.196 2.589-1.131-.036-1.032-.883-.077-.997 2.038-.29 3.995-1.454 4.279-3.569.343-1.93-.723-3.935-2.444-4.636-.418-.166-.617-.579-.601-.995.274-3.734-4.613-5.946-7.151-3.108-.721.785-1.134 1.897-1.328 3.069-.151 1.061-.998.937-.997-.079-.033-3.284 1.76-5.193 3.935-5.816-1.482-1.42-3.618-1.762-5.31-.896-.405.225-.905.13-1.201-.201-1.056-1.176-2.886-1.683-4.616-1.274.901 1.071 1.401 2.592 1.148 4.576-.045.604-.911.585-.999.037-.229-1.326-.662-2.583-1.415-3.381-1.417-1.521-4.69-1.51-6.117.02-.764.799-1.22 2.037-1.448 3.362-.088.556-.965.556-.999-.039-.185-1.542.09-2.805.65-3.797-2.086-.423-4.095.895-4.853 2.68-.14.337-.458.566-.799.604-1.876.21-3.559 1.752-3.92 3.805.838-.307 1.823-.443 2.964-.334.604.041.585.907.044.999-6.025.793-6.029 8.28 0 9.056.549.09.55.967-.044.999-1.605.156-2.91-.162-3.914-.777.262 3.687 4.03 6.271 7.651 5.192.066-2.115.91-4.212 2.512-5.653.333-.297.732-.292.862-.045.117.21.039.49-.131.727-1.113 1.485-1.566 3.409-1.51 5.182.326 5.958 8.12 7.959 11.669 3.139-.848-1.19-1.335-2.775-1.199-4.77.04-.719.906-.683.999-.048.915 7.308 10.13 7.354 11.005.001.099-.663.975-.643.999.047.172 2.362-.522 4.152-1.661 5.383.85.325 2.134.284 2.971.173.172-.063.355-.034.495.062 1.051.76 2.172 1.255 3.45.936 2.642-.534 4.201-3.828 2.812-6.186-.155-.284-.133-.618.028-.875zm-7.063-11.497c-6.606-.49-8.848 7.834-7.98 13.013.05.566.924.557 1 .013.818-4.749 1.528-10.901 7.035-12.027.514-.104.541-.972-.055-.999zm-12.034 2.876c-.132 2.123-1.727 3.597-3.463 3.599-3.109-.136-4.979 2.828-4.45 5.605.063.617.862.532.999.035.399-2.005 1.259-3.716 3.462-3.64 2.898.066 5.275-2.992 4.447-5.688-.237-.726-.971-.346-.995.089z"/></svg>