<svg id="Icons" viewBox="0 0 60 60" xmlns="http://www.w3.org/2000/svg" width="300" height="300" version="1.1" xmlns:xlink="http://www.w3.org/1999/xlink" xmlns:svgjs="http://svgjs.dev/svgjs"><g width="100%" height="100%" transform="matrix(1,0,0,1,0,0)"><path d="m45 50c0 5-4 9-10 9-3.836 0-8-1-11-9-4.11-10.959-10-17-10-29s7.507-20 18-20c8 0 15 4.795 15 13 0 9-2 11-2 21z" fill="#e9c4aa" fill-opacity="1" data-original-color="#e9c4aaff" stroke="none" stroke-opacity="1"/><path d="m43 14c0 3.57-1.42 6.08-4.46 7.94-1.44-.87-3.96-1.94-7.54-1.94-5 0-7 4-7 9 0 3.66 2.14 6.25 3.29 7.37.41.41.96.63 1.54.63h1.26c.58 0 1.14.23 1.55.64l1.36 1.36.01.02c.08.28.84 3.08-2.01 4.98-3 2-5.17 0-5.17 0-.84-1.85-1.7-3.56-2.54-5.25-2.96-5.91-5.29-10.58-5.29-17.75 0-9.57 5.63-16 14-16 5.76 0 11 4 11 9z" fill="#d3a691" fill-opacity="1" data-original-color="#d3a691ff" stroke="none" stroke-opacity="1"/><g fill="#161616"><path d="m18.257 5.903c-3.439 3.818-5.257 9.039-5.257 15.097 0 8.354 2.826 14.006 5.818 19.989 1.443 2.884 2.935 5.866 4.245 9.362 3.188 8.502 7.823 9.648 11.937 9.648 6.374 0 11-4.206 11-10v-15c0-5.045.521-8.037 1.024-10.931.479-2.754.976-5.602.976-10.069 0-9.19-8.049-13.999-16-13.999-3.939 0-7.619 1.099-10.639 3.176-.455.313-.57.936-.258 1.391.313.456.937.571 1.391.258 2.686-1.848 5.973-2.824 9.506-2.824 9.619 0 14 6.221 14 12 0 4.295-.459 6.934-.945 9.727-.519 2.977-1.055 6.056-1.055 11.273v15c0 4.636-3.785 8-9 8-3.354 0-7.174-.646-10.063-8.352-1.348-3.594-2.863-6.624-4.329-9.554-3.009-6.017-5.607-11.212-5.607-19.095 0-5.556 1.64-10.312 4.743-13.759.369-.41.337-1.042-.074-1.412-.409-.369-1.042-.339-1.412.074z" fill="#161616" fill-opacity="1" data-original-color="#161616ff" stroke="none" stroke-opacity="1"/><path d="m29.023 25.217c.12.539.656.874 1.193.76 3.791-.842 6.703-1.882 8.86-3.204.024-.016.048-.028.071-.046 3.362-2.087 4.852-4.875 4.852-8.727 0-5.421-5.495-10-12-10-8.972 0-15 6.832-15 17 0 7.411 2.382 12.172 5.396 18.199.83 1.66 1.688 3.376 2.525 5.215.168.368.531.586.911.586.139 0 .279-.028.413-.09.503-.229.725-.822.496-1.324-.853-1.872-1.719-3.605-2.557-5.281-2.897-5.791-5.186-10.365-5.186-17.305 0-8.972 5.225-15 13-15 5.327 0 10 3.738 10 8 0 2.921-1.062 5.084-3.506 6.767-1.617-.868-4.103-1.767-7.494-1.767-5.01 0-8 3.738-8 10 0 3.992 2.251 6.78 3.583 8.077.595.595 1.393.923 2.247.923h1.26c.315 0 .622.126.843.347l3.23 3.23c.507.507 1.172.76 1.837.76s1.33-.253 1.837-.76c.491-.491.773-1.161.773-1.837 0-.405-.105-.821-.304-1.203-.488-.935-1.307-2.767-1.307-4.537 0-.896.094-1.783.276-2.636.239-1.09-.042-2.2-.771-3.046-.713-.827-1.742-1.255-2.824-1.187-2.034.14-3.972.907-4.053.939-.513.205-.762.787-.558 1.299.204.513.783.762 1.3.559.017-.007 1.734-.685 3.446-.801.457-.042.875.151 1.173.496.314.364.436.843.332 1.316-.214.993-.322 2.023-.322 3.06 0 2.087.834 4.123 1.533 5.462.048.093.077.197.077.278 0 .149-.068.304-.188.423-.229.229-.617.229-.846 0l-3.23-3.23c-.593-.593-1.415-.933-2.257-.933h-1.26c-.319 0-.615-.12-.843-.347-.898-.874-2.987-3.273-2.987-6.653 0-2.987.779-8 6-8 2.232 0 3.997.437 5.335.969-1.731.792-3.892 1.463-6.551 2.054-.539.12-.879.654-.76 1.193z" fill="#161616" fill-opacity="1" data-original-color="#161616ff" stroke="none" stroke-opacity="1"/></g></g></svg>