<svg id="Filled_Outline" height="300" viewBox="0 0 128 128" width="300" xmlns="http://www.w3.org/2000/svg" data-name="Filled Outline" version="1.1" xmlns:xlink="http://www.w3.org/1999/xlink" xmlns:svgjs="http://svgjs.dev/svgjs"><g width="100%" height="100%" transform="matrix(1,0,0,1,0,0)"><path d="m47.804 19.372h8.391v18.503h-8.391z" fill="#ffc0bb" fill-opacity="1" data-original-color="#ffc0bbff" stroke="none" stroke-opacity="1"/><path d="m63.384 20.816c-6.416-.724-19.152-1.478-29.415 2.184a3.715 3.715 0 0 1 -5.007-3.465 3.685 3.685 0 0 1 2.093-3.343c11.1-5.217 26.556-4.09 33.193-3.275a3.7 3.7 0 0 1 3.239 3.675v.546a3.7 3.7 0 0 1 -4.103 3.678z" fill="#ffe3de" fill-opacity="1" data-original-color="#ffe3deff" stroke="none" stroke-opacity="1"/><path d="m39.677 33.875h24.646a0 0 0 0 1 0 0v7.979a4.687 4.687 0 0 1 -4.687 4.687h-15.272a4.687 4.687 0 0 1 -4.687-4.687v-7.979a0 0 0 0 1 0 0z" fill="#ffe3de" transform="matrix(-1 0 0 -1 104 80.416)" fill-opacity="1" data-original-color="#ffe3deff" stroke="none" stroke-opacity="1"/><path d="m97.753 35.018h13.3a0 0 0 0 1 0 0v19.689a3.357 3.357 0 0 1 -3.357 3.357h-6.586a3.357 3.357 0 0 1 -3.357-3.357v-19.689a0 0 0 0 1 0 0z" fill="#ffe3de" transform="matrix(-1 0 0 -1 208.802 93.082)" fill-opacity="1" data-original-color="#ffe3deff" stroke="none" stroke-opacity="1"/><circle cx="104.401" cy="46.275" fill="#000000" r="2.14" fill-opacity="1" data-original-color="#332c44ff" stroke="none" stroke-opacity="1"/><rect fill="#37a8b7" height="64.448" rx="6" width="22.854" x="92.974" y="57.407" fill-opacity="1" data-original-color="#37a8b7ff" stroke="none" stroke-opacity="1"/><path d="m92.974 70h22.854v35.961h-22.854z" fill="#72ddd0" fill-opacity="1" data-original-color="#72ddd0ff" stroke="none" stroke-opacity="1"/><path d="m74.434 121.913h-44.868a9 9 0 0 1 -8.98-9.588l3.821-58.372a9 9 0 0 1 8.981-8.412h37.224a9 9 0 0 1 8.981 8.412l3.821 58.372a9 9 0 0 1 -8.98 9.588z" fill="#37a8b7" fill-opacity="1" data-original-color="#37a8b7ff" stroke="none" stroke-opacity="1"/><path d="m82.998 105.961h-61.996l2.884-44.042h56.228z" fill="#72ddd0" fill-opacity="1" data-original-color="#72ddd0ff" stroke="none" stroke-opacity="1"/><path d="m49.487 93.845a2.747 2.747 0 0 1 -2.744-2.745v-2.23a.162.162 0 0 0 -.163-.162h-2.231a2.746 2.746 0 0 1 -2.743-2.744v-5.026a2.747 2.747 0 0 1 2.743-2.745h2.231a.162.162 0 0 0 .163-.162v-2.231a2.746 2.746 0 0 1 2.744-2.743h5.021a2.745 2.745 0 0 1 2.743 2.743v2.231a.162.162 0 0 0 .162.162h2.238a2.749 2.749 0 0 1 2.749 2.745v5.026a2.748 2.748 0 0 1 -2.744 2.744h-2.243a.162.162 0 0 0 -.162.162v2.23a2.746 2.746 0 0 1 -2.743 2.743z" fill="#ffffff" fill-opacity="1" data-original-color="#ffffffff" stroke="none" stroke-opacity="1"/><path d="m103.232 92.481a1.312 1.312 0 0 1 -1.312-1.31v-1.039l-1.079-.041a1.312 1.312 0 0 1 -1.311-1.311v-2.34a1.312 1.312 0 0 1 1.311-1.311h1.038l.041-1.079a1.313 1.313 0 0 1 1.312-1.312h2.337a1.313 1.313 0 0 1 1.311 1.312v1.039l1.082.04a1.312 1.312 0 0 1 1.311 1.311v2.34a1.312 1.312 0 0 1 -1.311 1.311h-1.042l-.04 1.08a1.311 1.311 0 0 1 -1.311 1.31z" fill="#ffffff" fill-opacity="1" data-original-color="#ffffffff" stroke="none" stroke-opacity="1"/><g fill="#332c44"><path d="m109.828 123.355h-10.853a7.508 7.508 0 0 1 -7.5-7.5v-52.448a7.508 7.508 0 0 1 7.5-7.5h10.853a7.508 7.508 0 0 1 7.5 7.5v52.448a7.508 7.508 0 0 1 -7.5 7.5zm-10.853-64.448a4.5 4.5 0 0 0 -4.5 4.5v52.448a4.5 4.5 0 0 0 4.5 4.5h10.853a4.5 4.5 0 0 0 4.5-4.5v-52.448a4.5 4.5 0 0 0 -4.5-4.5z" fill="#000000" fill-opacity="1" data-original-color="#332c44ff" stroke="none" stroke-opacity="1"/><path d="m111.05 59.3h-13.3a1.5 1.5 0 0 1 -1.5-1.5v-19.691a4.863 4.863 0 0 1 4.857-4.857h6.583a4.863 4.863 0 0 1 4.857 4.857v19.691a1.5 1.5 0 0 1 -1.497 1.5zm-11.8-3h10.3v-18.191a1.859 1.859 0 0 0 -1.857-1.857h-6.583a1.859 1.859 0 0 0 -1.857 1.857z" fill="#000000" fill-opacity="1" data-original-color="#332c44ff" stroke="none" stroke-opacity="1"/><path d="m64.323 47.041h-24.646a1.5 1.5 0 0 1 -1.5-1.5v-6.978a6.194 6.194 0 0 1 6.188-6.188h15.271a6.194 6.194 0 0 1 6.187 6.188v6.978a1.5 1.5 0 0 1 -1.5 1.5zm-23.146-3h21.646v-5.478a3.191 3.191 0 0 0 -3.187-3.188h-15.271a3.191 3.191 0 0 0 -3.188 3.188z" fill="#000000" fill-opacity="1" data-original-color="#332c44ff" stroke="none" stroke-opacity="1"/><path d="m32.685 23.719a5.257 5.257 0 0 1 -3.033-.958 5.112 5.112 0 0 1 -2.19-4.23 5.2 5.2 0 0 1 2.955-4.7c11.54-5.426 27.63-4.189 34.014-3.406a5.2 5.2 0 0 1 4.556 5.164v.546a5.2 5.2 0 0 1 -5.771 5.172c-6.479-.732-18.83-1.433-28.743 2.1a5.341 5.341 0 0 1 -1.788.312zm20.23-11c-6.756 0-14.794.806-21.222 3.828a2.189 2.189 0 0 0 -1.231 1.985 2.152 2.152 0 0 0 .918 1.779 2.265 2.265 0 0 0 2.085.273c10.484-3.736 23.351-3.017 30.087-2.257a2.152 2.152 0 0 0 1.7-.541 2.186 2.186 0 0 0 .738-1.65v-.546a2.2 2.2 0 0 0 -1.924-2.19 93.673 93.673 0 0 0 -11.151-.682z" fill="#000000" fill-opacity="1" data-original-color="#332c44ff" stroke="none" stroke-opacity="1"/><path d="m74.434 123.412h-44.867a10.5 10.5 0 0 1 -10.479-11.185l3.822-58.372a10.526 10.526 0 0 1 10.478-9.814h37.224a10.525 10.525 0 0 1 10.478 9.814l3.821 58.372a10.5 10.5 0 0 1 -10.477 11.185zm-41.046-76.371a7.516 7.516 0 0 0 -7.483 7.01l-3.823 58.371a7.5 7.5 0 0 0 7.485 7.99h44.867a7.5 7.5 0 0 0 7.483-7.99l-3.817-58.371a7.517 7.517 0 0 0 -7.484-7.01z" fill="#000000" fill-opacity="1" data-original-color="#332c44ff" stroke="none" stroke-opacity="1"/><path d="m59.651 76.194h-.4v-.394a4.749 4.749 0 0 0 -4.743-4.744h-5.022a4.749 4.749 0 0 0 -4.743 4.744v.394h-.394a4.749 4.749 0 0 0 -4.743 4.743v5.027a4.749 4.749 0 0 0 4.743 4.744h.394v.392a4.749 4.749 0 0 0 4.743 4.743h5.022a4.749 4.749 0 0 0 4.743-4.743v-.394h.4a4.749 4.749 0 0 0 4.743-4.744v-5.025a4.749 4.749 0 0 0 -4.743-4.743zm1.743 9.77a1.743 1.743 0 0 1 -1.743 1.744h-2.238a1.162 1.162 0 0 0 -1.162 1.162v2.23a1.743 1.743 0 0 1 -1.743 1.743h-5.022a1.744 1.744 0 0 1 -1.743-1.743v-2.23a1.162 1.162 0 0 0 -1.162-1.162h-2.232a1.743 1.743 0 0 1 -1.743-1.744v-5.027a1.743 1.743 0 0 1 1.743-1.743h2.232a1.163 1.163 0 0 0 1.162-1.163v-2.231a1.744 1.744 0 0 1 1.743-1.744h5.022a1.743 1.743 0 0 1 1.743 1.744v2.231a1.163 1.163 0 0 0 1.162 1.163h2.238a1.743 1.743 0 0 1 1.743 1.743z" fill="#000000" fill-opacity="1" data-original-color="#332c44ff" stroke="none" stroke-opacity="1"/><path d="m109.179 82.829a3.817 3.817 0 0 0 -3.611-2.59h-2.336a3.818 3.818 0 0 0 -3.611 2.591 3.818 3.818 0 0 0 -2.591 3.611v2.339a3.818 3.818 0 0 0 2.591 3.611 3.818 3.818 0 0 0 3.611 2.591h2.336a3.818 3.818 0 0 0 3.611-2.59 3.819 3.819 0 0 0 2.594-3.612v-2.339a3.818 3.818 0 0 0 -2.594-3.612zm-.406 5.951a.811.811 0 0 1 -.811.811h-1.041a.541.541 0 0 0 -.541.541v1.039a.811.811 0 0 1 -.812.811h-2.336a.812.812 0 0 1 -.812-.811v-1.039a.541.541 0 0 0 -.54-.541h-1.039a.811.811 0 0 1 -.811-.811v-2.339a.811.811 0 0 1 .811-.812h1.039a.541.541 0 0 0 .54-.541v-1.038a.812.812 0 0 1 .812-.811h2.336a.811.811 0 0 1 .812.811v1.038a.541.541 0 0 0 .541.541h1.041a.811.811 0 0 1 .811.812z" fill="#000000" fill-opacity="1" data-original-color="#332c44ff" stroke="none" stroke-opacity="1"/><path d="m83 107.461h-62a1.5 1.5 0 0 1 -1.5-1.6l2.884-44.042a1.5 1.5 0 0 1 1.5-1.4h56.231a1.5 1.5 0 0 1 1.5 1.4l2.882 44.042a1.5 1.5 0 0 1 -1.5 1.6zm-60.393-3h58.793l-2.691-41.042h-53.418z" fill="#000000" fill-opacity="1" data-original-color="#332c44ff" stroke="none" stroke-opacity="1"/><path d="m56.2 35.375h-8.4a1.5 1.5 0 0 1 -1.5-1.5v-14.5a1.5 1.5 0 0 1 1.5-1.5h8.4a1.5 1.5 0 0 1 1.5 1.5v14.5a1.5 1.5 0 0 1 -1.5 1.5zm-6.892-3h5.392v-11.5h-5.4z" fill="#000000" fill-opacity="1" data-original-color="#332c44ff" stroke="none" stroke-opacity="1"/><path d="m115.828 107.461h-22.853a1.5 1.5 0 0 1 -1.5-1.5v-35.961a1.5 1.5 0 0 1 1.5-1.5h22.853a1.5 1.5 0 0 1 1.5 1.5v35.961a1.5 1.5 0 0 1 -1.5 1.5zm-21.353-3h19.853v-32.961h-19.853z" fill="#000000" fill-opacity="1" data-original-color="#332c44ff" stroke="none" stroke-opacity="1"/></g></g></svg>