<svg id="Layer_1" enable-background="new 0 0 66 66" viewBox="0 0 66 66" xmlns="http://www.w3.org/2000/svg" width="300" height="300" version="1.1" xmlns:xlink="http://www.w3.org/1999/xlink" xmlns:svgjs="http://svgjs.dev/svgjs"><g width="100%" height="100%" transform="matrix(1,0,0,1,0,0)"><g><g><path d="m4.18 31.77c-.21 0-.43-.04-.63-.12-.87-.35-1.28-1.33-.93-2.2l6.25-15.43c.26-.64.88-1.06 1.57-1.06h9.01c.93 0 1.69.76 1.69 1.69s-.76 1.69-1.69 1.69h-7.87l-5.84 14.37c-.26.66-.89 1.06-1.56 1.06z" fill="#525f70" fill-opacity="1" data-original-color="#525f70ff" stroke="none" stroke-opacity="1"/><path d="m4.18 32.52c-.31 0-.62-.06-.91-.18-.6-.24-1.08-.71-1.33-1.31s-.26-1.26-.01-1.87l6.25-15.43c.37-.93 1.26-1.52 2.26-1.52h9.01c1.35 0 2.44 1.09 2.44 2.44s-1.09 2.44-2.44 2.44h-7.36l-5.63 13.9c-.39.93-1.28 1.53-2.28 1.53zm6.25-18.81c-.38 0-.73.23-.87.59l-6.25 15.43c-.09.23-.09.49.01.72s.28.41.51.5c.48.19 1.03-.05 1.22-.52l5.82-14.37c.11-.28.39-.47.7-.47h7.87c.52 0 .94-.42.94-.94s-.42-.94-.94-.94z" fill="#070707" fill-opacity="1" data-original-color="#682f2aff" stroke="none" stroke-opacity="1"/></g><g><path d="m42.33 60.19-5.04-27.61c-.3-1.63-1.72-2.82-3.38-2.82h-3.65v-7.95h-9.73v7.95h-3.65c-1.66 0-3.09 1.19-3.38 2.82l-5.05 27.61c-.39 2.11 1.24 4.06 3.38 4.06h27.12c2.14 0 3.77-1.95 3.38-4.06z" fill="#abb734" fill-opacity="1" data-original-color="#abb734ff" stroke="none" stroke-opacity="1"/><path d="m38.95 65h-27.12c-1.25 0-2.42-.55-3.22-1.51s-1.13-2.21-.9-3.44l5.04-27.61c.36-1.99 2.1-3.44 4.12-3.44h2.9v-7.2c0-.41.34-.75.75-.75h9.73c.41 0 .75.34.75.75v7.2h2.9c2.02 0 3.76 1.45 4.12 3.44l5.04 27.61c.22 1.23-.11 2.48-.9 3.44s-1.97 1.51-3.21 1.51zm-22.08-34.49c-1.3 0-2.41.93-2.65 2.21l-5.03 27.61c-.14.79.07 1.59.58 2.21.51.61 1.27.97 2.07.97h27.12c.8 0 1.55-.35 2.07-.97.51-.61.72-1.42.58-2.21l-5.04-27.61c-.23-1.28-1.35-2.21-2.65-2.21h-3.65c-.41 0-.75-.34-.75-.75v-7.2h-8.23v7.2c0 .41-.34.75-.75.75z" fill="#070707" fill-opacity="1" data-original-color="#682f2aff" stroke="none" stroke-opacity="1"/></g><g opacity=".4"><g><path d="m11.53 61.89c-.17 0-.33-.06-.47-.17-.54-.45-.41-1.08-.36-1.35l2.09-11.44c.07-.41.47-.68.87-.6.41.07.68.46.6.87l-2.1 11.47c0 .02-.01.03-.01.05.18.27.17.63-.04.89-.14.18-.36.28-.58.28z" fill="#ffffff" fill-opacity="1" data-original-color="#ffffffff" stroke="none" stroke-opacity="1"/></g><g><path d="m19.97 62h-3.63c-.41 0-.75-.34-.75-.75s.34-.75.75-.75h3.63c.41 0 .75.34.75.75s-.34.75-.75.75z" fill="#ffffff" fill-opacity="1" data-original-color="#ffffffff" stroke="none" stroke-opacity="1"/></g></g><g><path d="m33.37 15.51h-.67c-.49 0-.88-.39-.88-.88v-.79c0-.49-.39-.88-.88-.88h-11.11c-.49 0-.88.39-.88.88v9.07c0 .49.39.88.88.88h11.11c.49 0 .88-.39.88-.88v-1.34c0-.49.39-.88.88-.88h.66c.49 0 .88-.39.88-.88v-3.43c0-.48-.39-.87-.87-.87z" fill="#e5e5e5" fill-opacity="1" data-original-color="#e5e5e5ff" stroke="none" stroke-opacity="1"/><path d="m30.95 24.54h-11.12c-.9 0-1.63-.73-1.63-1.63v-9.07c0-.9.73-1.63 1.63-1.63h11.11c.9 0 1.63.73 1.63 1.63v.79c0 .07.06.13.13.13h.66c.9 0 1.63.73 1.63 1.63v3.43c0 .9-.73 1.63-1.63 1.63h-.66c-.07 0-.13.06-.13.13v1.34c0 .89-.73 1.62-1.62 1.62zm-11.12-10.83c-.07 0-.13.06-.13.13v9.07c0 .07.06.13.13.13h11.11c.07 0 .13-.06.13-.13v-1.34c0-.9.73-1.63 1.63-1.63h.66c.07 0 .13-.06.13-.13v-3.43c0-.07-.06-.13-.13-.13h-.66c-.9 0-1.63-.73-1.63-1.63v-.79c0-.07-.06-.13-.13-.13h-11.11z" fill="#070707" fill-opacity="1" data-original-color="#682f2aff" stroke="none" stroke-opacity="1"/></g><g><path d="m25.39 13.71c-.41 0-.75-.34-.75-.75v-3.91c0-.41.34-.75.75-.75s.75.34.75.75v3.91c0 .42-.34.75-.75.75z" fill="#070707" fill-opacity="1" data-original-color="#682f2aff" stroke="none" stroke-opacity="1"/></g><g><path d="m31.09 1.75h-11.4c-.75 0-1.37.61-1.37 1.37v.52c0 .75.61 1.37 1.37 1.37h2.49l1.81 4.41h2.8l1.81-4.42h2.49c.75 0 1.37-.61 1.37-1.37v-.51c-.01-.76-.62-1.37-1.37-1.37z" fill="#abb734" fill-opacity="1" data-original-color="#abb734ff" stroke="none" stroke-opacity="1"/><path d="m26.79 10.16h-2.81c-.3 0-.58-.18-.69-.47l-1.62-3.94h-1.99c-1.17 0-2.12-.95-2.12-2.12v-.51c0-1.17.95-2.12 2.12-2.12h11.4c1.17 0 2.12.95 2.12 2.12v.52c0 1.17-.95 2.12-2.12 2.12h-1.98l-1.62 3.94c-.11.27-.38.46-.69.46zm-2.3-1.5h1.8l1.62-3.94c.12-.28.39-.47.69-.47h2.49c.34 0 .62-.28.62-.62v-.51c0-.34-.28-.62-.62-.62h-11.4c-.34 0-.62.28-.62.62v.52c0 .34.28.62.62.62h2.49c.3 0 .58.18.69.47z" fill="#070707" fill-opacity="1" data-original-color="#682f2aff" stroke="none" stroke-opacity="1"/></g><g><path d="m34.24 16.36h9.79v3.36h-9.79z" fill="#cccaca" fill-opacity="1" data-original-color="#cccacaff" stroke="none" stroke-opacity="1"/><path d="m44.04 20.47h-9.79c-.41 0-.75-.34-.75-.75v-3.36c0-.41.34-.75.75-.75h9.79c.41 0 .75.34.75.75v3.36c0 .41-.34.75-.75.75zm-9.04-1.5h8.29v-1.86h-8.29z" fill="#070707" fill-opacity="1" data-original-color="#682f2aff" stroke="none" stroke-opacity="1"/></g><g><circle cx="25.39" cy="47.83" fill="#e5e5e5" r="9.8" fill-opacity="1" data-original-color="#e5e5e5ff" stroke="none" stroke-opacity="1"/><path d="m25.39 58.38c-5.82 0-10.55-4.73-10.55-10.55s4.73-10.55 10.55-10.55 10.55 4.73 10.55 10.55-4.73 10.55-10.55 10.55zm0-19.61c-4.99 0-9.05 4.06-9.05 9.05s4.06 9.05 9.05 9.05 9.05-4.06 9.05-9.05-4.06-9.05-9.05-9.05z" fill="#070707" fill-opacity="1" data-original-color="#682f2aff" stroke="none" stroke-opacity="1"/></g><g><path d="m50.76 15.96v4.16l-6.72 1.73v-7.62z" fill="#525f70" fill-opacity="1" data-original-color="#525f70ff" stroke="none" stroke-opacity="1"/><path d="m44.04 22.6c-.16 0-.33-.05-.46-.16-.18-.14-.29-.36-.29-.59v-7.62c0-.23.11-.45.29-.59s.42-.19.65-.13l6.72 1.73c.33.09.56.38.56.73v4.15c0 .34-.23.64-.56.73l-6.72 1.73c-.07.01-.13.02-.19.02zm.75-7.4v5.68l5.22-1.35v-2.99z" fill="#070707" fill-opacity="1" data-original-color="#682f2aff" stroke="none" stroke-opacity="1"/></g><g><path d="m31.01 48.58h-11.32c-.41 0-.75-.34-.75-.75s.34-.75.75-.75h11.32c.41 0 .75.34.75.75s-.34.75-.75.75z" fill="#070707" fill-opacity="1" data-original-color="#682f2aff" stroke="none" stroke-opacity="1"/></g><g><path d="m29.46 45.95h-8.21c-.32 0-.61-.21-.71-.52l-.84-2.58c-.13-.39.09-.82.48-.95.4-.13.82.09.95.48l.67 2.06h7.13l.67-2.06c.13-.39.55-.61.95-.48.39.13.61.55.48.95l-.84 2.58c-.12.31-.41.52-.73.52z" fill="#070707" fill-opacity="1" data-original-color="#682f2aff" stroke="none" stroke-opacity="1"/></g><g><path d="m30.3 53.72c-.32 0-.61-.2-.71-.52l-.67-2.06h-7.13l-.67 2.06c-.13.39-.55.61-.95.48-.39-.13-.61-.55-.48-.95l.84-2.58c.1-.31.39-.52.71-.52h8.21c.32 0 .61.21.71.52l.84 2.58c.13.39-.09.82-.48.95-.06.03-.14.04-.22.04z" fill="#070707" fill-opacity="1" data-original-color="#682f2aff" stroke="none" stroke-opacity="1"/></g><g><path d="m25.39 43.6c-1.64 0-2.96 1.33-2.96 2.96v2.53c0 1.64 1.33 2.96 2.96 2.96s2.96-1.33 2.96-2.96v-2.53c0-1.63-1.33-2.96-2.96-2.96z" fill="#525f70" fill-opacity="1" data-original-color="#525f70ff" stroke="none" stroke-opacity="1"/><path d="m25.39 52.8c-2.05 0-3.71-1.66-3.71-3.71v-2.53c0-2.05 1.66-3.71 3.71-3.71s3.71 1.66 3.71 3.71v2.53c0 2.05-1.67 3.71-3.71 3.71zm0-8.45c-1.22 0-2.21.99-2.21 2.21v2.53c0 1.22.99 2.21 2.21 2.21s2.21-.99 2.21-2.21v-2.53c0-1.22-.99-2.21-2.21-2.21z" fill="#070707" fill-opacity="1" data-original-color="#682f2aff" stroke="none" stroke-opacity="1"/></g><g><path d="m60.68 12.61c.94-.45 1.89-.89 2.83-1.34" fill="#525f70" fill-opacity="1" data-original-color="#525f70ff" stroke="none" stroke-opacity="1"/><path d="m60.68 13.36c-.28 0-.55-.16-.68-.43-.18-.37-.02-.82.36-1l2.83-1.34c.38-.18.82-.02 1 .36s.02.82-.36 1l-2.83 1.33c-.1.05-.21.08-.32.08z" fill="#070707" fill-opacity="1" data-original-color="#682f2aff" stroke="none" stroke-opacity="1"/></g><g><path d="m54.45 15.55c.94-.45 1.89-.89 2.83-1.34" fill="#525f70" fill-opacity="1" data-original-color="#525f70ff" stroke="none" stroke-opacity="1"/><path d="m54.45 16.3c-.28 0-.55-.16-.68-.43-.18-.37-.02-.82.36-1l2.83-1.34c.38-.18.82-.02 1 .36s.02.82-.36 1l-2.83 1.34c-.1.04-.21.07-.32.07z" fill="#070707" fill-opacity="1" data-original-color="#682f2aff" stroke="none" stroke-opacity="1"/></g><g><path d="m60.68 23.52c.94.45 1.89.89 2.83 1.34" fill="#525f70" fill-opacity="1" data-original-color="#525f70ff" stroke="none" stroke-opacity="1"/><path d="m63.51 25.61c-.11 0-.22-.02-.32-.07l-2.83-1.34c-.37-.18-.53-.62-.36-1 .18-.37.62-.53 1-.36l2.83 1.34c.37.18.53.62.36 1-.13.27-.4.43-.68.43z" fill="#070707" fill-opacity="1" data-original-color="#682f2aff" stroke="none" stroke-opacity="1"/></g><g><path d="m54.45 20.58c1.25.59 2.49 1.18 3.74 1.77" fill="#525f70" fill-opacity="1" data-original-color="#525f70ff" stroke="none" stroke-opacity="1"/><path d="m58.2 23.1c-.11 0-.22-.02-.32-.07l-3.74-1.77c-.37-.18-.53-.62-.36-1 .18-.37.62-.53 1-.36l3.74 1.77c.37.18.53.62.36 1-.13.27-.4.43-.68.43z" fill="#070707" fill-opacity="1" data-original-color="#682f2aff" stroke="none" stroke-opacity="1"/></g><g><path d="m57.85 18.79h-2.47c-.41 0-.75-.34-.75-.75s.34-.75.75-.75h2.47c.41 0 .75.34.75.75s-.34.75-.75.75z" fill="#070707" fill-opacity="1" data-original-color="#682f2aff" stroke="none" stroke-opacity="1"/></g><g><path d="m63.51 18.79h-2.83c-.41 0-.75-.34-.75-.75s.34-.75.75-.75h2.83c.41 0 .75.34.75.75s-.34.75-.75.75z" fill="#070707" fill-opacity="1" data-original-color="#682f2aff" stroke="none" stroke-opacity="1"/></g><g><path d="m32.79 41.3-14.69 12.97" fill="#525f70" fill-opacity="1" data-original-color="#525f70ff" stroke="none" stroke-opacity="1"/><path d="m18.1 55.02c-.21 0-.41-.09-.56-.25-.27-.31-.25-.78.07-1.06l14.69-12.97c.31-.27.79-.24 1.06.07s.25.78-.07 1.06l-14.7 12.96c-.14.13-.32.19-.49.19z" fill="#070707" fill-opacity="1" data-original-color="#682f2aff" stroke="none" stroke-opacity="1"/></g></g></g></svg>