<svg id="Layer_1" enable-background="new 0 0 66 66" viewBox="0 0 66 66" xmlns="http://www.w3.org/2000/svg" width="300" height="300" version="1.1" xmlns:xlink="http://www.w3.org/1999/xlink" xmlns:svgjs="http://svgjs.dev/svgjs"><g width="100%" height="100%" transform="matrix(1,0,0,1,0,0)"><g><path d="m50.95 15.24-6.72-1.74c-.23-.06-.47 0-.65.14s-.29.36-.29.59v1.38h-8.5c-.28-.51-.81-.85-1.42-.85h-.67c-.07 0-.13-.06-.13-.13v-.79c0-.9-.73-1.63-1.62-1.63h-4.81v-2.05h.65c.31 0 .58-.19.7-.47l1.61-3.94h1.99c1.17 0 2.11-.95 2.11-2.12v-.51c0-1.17-.94-2.12-2.11-2.12h-11.4c-1.17 0-2.12.95-2.12 2.12v.51c0 1.17.95 2.12 2.12 2.12h1.99l1.61 3.94c.12.28.39.47.7.47h.65v2.05h-4.81c-.08 0-.17.02-.25.03-.05-.01-.1-.03-.15-.03h-9c-1 0-1.89.6-2.27 1.53l-6.24 15.43c-.51 1.24.09 2.66 1.33 3.16.29.12.61.19.93.19 1 0 1.89-.6 2.26-1.53l5.63-13.9h6.14v5.82c0 .88.69 1.59 1.56 1.62v4.48h-2.9c-2.02 0-3.75 1.44-4.12 3.44l-5.04 27.6c-.22 1.23.1 2.48.9 3.44s1.97 1.51 3.22 1.51h27.12c1.25 0 2.42-.55 3.22-1.51s1.12-2.21.9-3.43l-5.04-27.62c-.37-1.99-2.1-3.43-4.12-3.43h-2.9v-4.48c.87-.03 1.56-.74 1.56-1.62v-1.33c0-.08.06-.13.13-.13h.67c.66 0 1.24-.41 1.49-.98h8.43v1.38c0 .23.11.45.29.59.13.1.29.16.46.16.06 0 .12-.01.19-.03l6.72-1.73c.33-.08.56-.38.56-.72v-4.16c0-.34-.23-.64-.56-.72zm-32.74-1.4v1.75h-6.65c-.31 0-.58.18-.7.47l-5.82 14.38c-.18.46-.72.72-1.22.51-.23-.1-.41-.28-.51-.51s-.1-.48 0-.71l6.24-15.43c.15-.36.49-.59.88-.59h7.79c-.01.04-.01.09-.01.13zm-6.1 47.77c-.14.18-.36.28-.58.28-.16 0-.33-.06-.47-.17-.54-.45-.41-1.08-.36-1.35l2.09-11.44c.08-.4.47-.68.87-.6.41.07.68.46.61.87l-2.1 11.47c0 .02-.01.03-.01.05.18.27.17.63-.05.89zm7.86.39h-3.63c-.41 0-.75-.34-.75-.75s.34-.75.75-.75h3.63c.41 0 .75.34.75.75s-.34.75-.75.75zm13.1-21.39c.1.04.2.1.28.19s.12.19.15.29c1.53 1.83 2.44 4.18 2.44 6.74 0 5.82-4.73 10.55-10.55 10.55s-10.55-4.73-10.55-10.55 4.73-10.56 10.55-10.56c3.03 0 5.75 1.29 7.68 3.34zm.43-20.79c0 .07-.06.13-.13.13h-.67c-.9 0-1.63.73-1.63 1.63v1.33c0 .07-.05.13-.12.13h-11.12c-.07 0-.12-.06-.12-.13v-6.55s0-.01 0-.02 0-.02 0-.02v-2.48c0-.07.05-.13.12-.13h11.12c.07 0 .12.06.12.13v.79c0 .9.73 1.63 1.63 1.63h.67c.07 0 .13.05.13.13zm9.79-.85h-8.29v-1.86h8.29z" fill="#000000" fill-opacity="1" data-original-color="#000000ff" stroke="none" stroke-opacity="1"/><path d="m34.44 47.83c0 4.99-4.06 9.05-9.05 9.05-2.43 0-4.63-.96-6.26-2.52l.87-.77c.06.03.1.07.17.09.07.03.15.04.23.04.32 0 .61-.2.71-.52l.27-.83 1.12-.98c.68.85 1.71 1.41 2.89 1.41 1.28 0 2.42-.66 3.08-1.66h.45l.67 2.06c.1.32.39.52.71.52.08 0 .16-.01.23-.04.4-.12.61-.55.48-.94l-.84-2.58c-.1-.31-.39-.52-.71-.52h-.42c.03-.18.06-.36.06-.55v-.51h1.91c.41 0 .75-.34.75-.75s-.34-.75-.75-.75h-1.91v-.52c0-.21-.03-.41-.06-.61h.42c.32 0 .61-.21.71-.52l.38-1.16 2.09-1.84c1.13 1.51 1.8 3.37 1.8 5.4z" fill="#000000" fill-opacity="1" data-original-color="#000000ff" stroke="none" stroke-opacity="1"/><path d="m27.17 45.26-3.99 3.53v-.94s0-.01 0-.02 0-.02 0-.02v-1.25c0-1.22.99-2.21 2.21-2.21.73 0 1.37.36 1.78.91z" fill="#000000" fill-opacity="1" data-original-color="#000000ff" stroke="none" stroke-opacity="1"/><path d="m27.6 46.88v2.21c0 1.22-.99 2.21-2.21 2.21-.73 0-1.37-.36-1.77-.9z" fill="#000000" fill-opacity="1" data-original-color="#000000ff" stroke="none" stroke-opacity="1"/><path d="m31.65 41.3-.86.76c-.07-.07-.16-.12-.26-.15-.39-.13-.82.08-.94.48l-.34 1.03-.96.85c-.68-.86-1.72-1.42-2.9-1.42-1.27 0-2.38.64-3.05 1.6h-.56l-.67-2.06c-.13-.4-.55-.61-.94-.48-.4.13-.61.55-.48.94l.84 2.58c.1.31.39.52.71.52h.5c-.04.2-.06.4-.06.61v.52h-1.99c-.41 0-.75.34-.75.75s.34.75.75.75h1.99v.51c0 .19.02.37.05.55h-.49c-.32 0-.61.21-.71.52l-.45 1.36-1.94 1.71c-1.13-1.51-1.8-3.38-1.8-5.4 0-4.99 4.06-9.06 9.05-9.06 2.43 0 4.63.97 6.26 2.53z" fill="#000000" fill-opacity="1" data-original-color="#000000ff" stroke="none" stroke-opacity="1"/><path d="m60.68 13.36c.11 0 .22-.02.32-.07l2.83-1.34c.37-.18.53-.62.36-1-.18-.38-.62-.53-1-.36l-2.83 1.34c-.38.18-.54.62-.36 1 .13.27.4.43.68.43z" fill="#000000" fill-opacity="1" data-original-color="#000000ff" stroke="none" stroke-opacity="1"/><path d="m54.46 16.3c.11 0 .22-.02.32-.07l2.83-1.34c.37-.18.53-.62.36-1-.18-.37-.62-.53-1-.36l-2.83 1.34c-.37.18-.53.62-.36 1 .12.27.39.43.68.43z" fill="#000000" fill-opacity="1" data-original-color="#000000ff" stroke="none" stroke-opacity="1"/><path d="m63.83 24.18-2.83-1.34c-.37-.18-.82-.02-1 .36-.18.37-.02.82.36 1l2.83 1.34c.1.05.21.07.32.07.28 0 .55-.16.68-.43.18-.38.02-.82-.36-1z" fill="#000000" fill-opacity="1" data-original-color="#000000ff" stroke="none" stroke-opacity="1"/><path d="m58.52 21.67-3.74-1.77c-.37-.18-.82-.02-1 .36-.18.37-.02.82.36 1l3.74 1.77c.1.05.21.07.32.07.28 0 .55-.16.68-.43.17-.38.01-.82-.36-1z" fill="#000000" fill-opacity="1" data-original-color="#000000ff" stroke="none" stroke-opacity="1"/><path d="m55.38 17.29c-.41 0-.75.34-.75.75s.34.75.75.75h2.47c.41 0 .75-.34.75-.75s-.34-.75-.75-.75z" fill="#000000" fill-opacity="1" data-original-color="#000000ff" stroke="none" stroke-opacity="1"/><path d="m60.68 18.79h2.83c.41 0 .75-.34.75-.75s-.34-.75-.75-.75h-2.83c-.41 0-.75.34-.75.75s.34.75.75.75z" fill="#000000" fill-opacity="1" data-original-color="#000000ff" stroke="none" stroke-opacity="1"/></g></g></svg>