<?xml version="1.0" encoding="UTF-8"?>
<svg xmlns="http://www.w3.org/2000/svg" xmlns:xlink="http://www.w3.org/1999/xlink" version="1.1" id="Capa_1" x="0px" y="0px" viewBox="0 0 512 512" style="enable-background:new 0 0 512 512;" xml:space="preserve" width="512" height="512">
<g>
	<g>
		<path style="fill:#FAF8F8;" d="M377.008,162.428L377.008,162.428c-6.905-8.093-15.581-14.278-25.211-18.193&#10;&#9;&#9;&#9;c-7.843-3.189-12.842-10.97-12.842-19.437V98.328h-117.49v26.471c0,8.467-4.999,16.248-12.842,19.437&#10;&#9;&#9;&#9;c-9.63,3.915-18.306,10.1-25.211,18.193h0c-10.148,11.895-15.722,27.017-15.722,42.653v248.077h225.04V205.081&#10;&#9;&#9;&#9;C392.73,189.446,387.156,174.323,377.008,162.428z"/>
		<path style="fill:#E1DEE2;" d="M392.73,205.084v248.07h-33.27v-248.07c0-15.64-5.58-30.76-15.73-42.66&#10;&#9;&#9;&#9;c-6.9-8.09-15.58-14.27-25.21-18.19c-7.84-3.19-12.84-10.97-12.84-19.44v-26.47h33.28v26.47c0,8.47,4.99,16.25,12.84,19.44&#10;&#9;&#9;&#9;c9.63,3.92,18.3,10.1,25.21,18.19C387.16,174.324,392.73,189.444,392.73,205.084z"/>
		<path style="fill:#FE7AB6;" d="M350.027,98.328H210.394c-7.368,0-13.341-5.973-13.341-13.341V72.183&#10;&#9;&#9;&#9;c0-7.368,5.973-13.341,13.341-13.341h139.634c7.368,0,13.341,5.973,13.341,13.341v12.804&#10;&#9;&#9;&#9;C363.368,92.355,357.395,98.328,350.027,98.328z"/>
		<path style="fill:#FE5CA7;" d="M363.37,72.184v12.8c0,7.37-5.97,13.34-13.34,13.34h-29.36c7.36,0,13.34-5.97,13.34-13.34v-12.8&#10;&#9;&#9;&#9;c0-7.37-5.98-13.34-13.34-13.34h29.36C357.4,58.844,363.37,64.814,363.37,72.184z"/>
		<rect x="167.69" y="213.891" style="fill:#FE7AB6;" width="225.04" height="165.925"/>
		<rect x="359.46" y="213.894" style="fill:#FE5CA7;" width="33.27" height="165.92"/>
		<path style="fill:#FAF8F8;" d="M473.151,453.158H392.73V289.329h92.009V441.57C484.739,447.97,479.551,453.158,473.151,453.158z"/>
		<path style="fill:#E1DEE2;" d="M484.74,289.334v152.24c0,6.4-5.19,11.58-11.59,11.58H449.5c6.4,0,11.59-5.18,11.59-11.58v-152.24&#10;&#9;&#9;&#9;H484.74z"/>
		<path style="fill:#8795DE;" d="M494.131,289.329H392.73v-32.422h101.401c5.726,0,10.369,4.642,10.369,10.369v11.685&#10;&#9;&#9;&#9;C504.5,284.687,499.858,289.329,494.131,289.329z"/>
		<path style="fill:#6C7FD8;" d="M504.5,267.274v11.69c0,5.72-4.64,10.37-10.37,10.37h-23.65c5.73,0,10.37-4.65,10.37-10.37v-11.69&#10;&#9;&#9;&#9;c0-5.72-4.64-10.37-10.37-10.37h23.65C499.86,256.904,504.5,261.554,504.5,267.274z"/>
		<rect x="438.735" y="328.987" style="fill:#8795DE;" width="46.004" height="84.514"/>
		<rect x="461.09" y="328.984" style="fill:#6C7FD8;" width="23.65" height="84.52"/>
		<path style="fill:#BED9FD;" d="M249.746,266.864H19.088c-6.4,0-11.588,5.188-11.588,11.588v81.559v81.559&#10;&#9;&#9;&#9;c0,6.4,5.188,11.588,11.588,11.588h242.246v-93.147v-81.559C261.334,272.052,256.146,266.864,249.746,266.864z"/>
		<path style="fill:#9EC8FC;" d="M261.33,278.454v174.7h-24.77v-174.7c0-6.4-5.19-11.59-11.59-11.59h24.78&#10;&#9;&#9;&#9;C256.15,266.864,261.33,272.054,261.33,278.454z"/>
		<circle style="fill:#FAF8F8;" cx="61.227" cy="313.438" r="16.934"/>
		<path style="fill:#E1DEE2;" d="M78.16,313.434c0,9.36-7.58,16.94-16.93,16.94c-2.62,0-5.11-0.6-7.32-1.66&#10;&#9;&#9;&#9;c5.69-2.73,9.61-8.54,9.61-15.28c0-6.73-3.92-12.54-9.61-15.27c2.21-1.07,4.7-1.66,7.32-1.66&#10;&#9;&#9;&#9;C70.58,296.504,78.16,304.084,78.16,313.434z"/>
		<circle style="fill:#FAF8F8;" cx="207.607" cy="313.438" r="16.934"/>
		<path style="fill:#E1DEE2;" d="M224.54,313.434c0,9.36-7.58,16.94-16.93,16.94c-2.62,0-5.11-0.6-7.32-1.66&#10;&#9;&#9;&#9;c5.69-2.73,9.61-8.54,9.61-15.28c0-6.73-3.92-12.54-9.61-15.27c2.21-1.07,4.7-1.66,7.32-1.66&#10;&#9;&#9;&#9;C216.96,296.504,224.54,304.084,224.54,313.434z"/>
		<circle style="fill:#FAF8F8;" cx="134.417" cy="313.438" r="16.934"/>
		<path style="fill:#E1DEE2;" d="M151.35,313.434c0,9.36-7.58,16.94-16.93,16.94c-2.62,0-5.1-0.6-7.32-1.66&#10;&#9;&#9;&#9;c5.69-2.73,9.61-8.54,9.61-15.28c0-6.73-3.92-12.54-9.61-15.27c2.22-1.07,4.7-1.66,7.32-1.66&#10;&#9;&#9;&#9;C143.77,296.504,151.35,304.084,151.35,313.434z"/>
		<g>
			<circle style="fill:#FAF8F8;" cx="61.227" cy="406.585" r="16.934"/>
			<path style="fill:#E1DEE2;" d="M78.16,406.584c0,9.35-7.58,16.94-16.93,16.94c-2.62,0-5.11-0.6-7.32-1.66&#10;&#9;&#9;&#9;&#9;c5.69-2.74,9.61-8.55,9.61-15.28c0-6.73-3.92-12.54-9.61-15.27c2.21-1.06,4.7-1.66,7.32-1.66&#10;&#9;&#9;&#9;&#9;C70.58,389.654,78.16,397.234,78.16,406.584z"/>
			<circle style="fill:#FAF8F8;" cx="207.607" cy="406.585" r="16.934"/>
			<path style="fill:#E1DEE2;" d="M224.54,406.584c0,9.35-7.58,16.94-16.93,16.94c-2.62,0-5.11-0.6-7.32-1.66&#10;&#9;&#9;&#9;&#9;c5.69-2.74,9.61-8.55,9.61-15.28c0-6.73-3.92-12.54-9.61-15.27c2.21-1.06,4.7-1.66,7.32-1.66&#10;&#9;&#9;&#9;&#9;C216.96,389.654,224.54,397.234,224.54,406.584z"/>
			<circle style="fill:#FAF8F8;" cx="134.417" cy="406.585" r="16.934"/>
			<path style="fill:#E1DEE2;" d="M151.35,406.584c0,9.35-7.58,16.94-16.93,16.94c-2.62,0-5.1-0.6-7.32-1.66&#10;&#9;&#9;&#9;&#9;c5.69-2.74,9.61-8.55,9.61-15.28c0-6.73-3.92-12.54-9.61-15.27c2.22-1.06,4.7-1.66,7.32-1.66&#10;&#9;&#9;&#9;&#9;C143.77,389.654,151.35,397.234,151.35,406.584z"/>
		</g>
		<path style="fill:#FAF8F8;" d="M352.38,296.504h-53.126c-3.91,0-7.08-3.17-7.08-7.08v-15.479c0-3.91,3.17-7.08,7.08-7.08h53.126&#10;&#9;&#9;&#9;c3.91,0,7.08,3.17,7.08,7.08v15.479C359.46,293.334,356.29,296.504,352.38,296.504z"/>
		<path style="fill:#E1DEE2;" d="M359.46,273.944v15.48c0,3.91-3.17,7.08-7.08,7.08h-22.15c3.91,0,7.08-3.17,7.08-7.08v-15.48&#10;&#9;&#9;&#9;c0-3.91-3.17-7.08-7.08-7.08h22.15C356.29,266.864,359.46,270.034,359.46,273.944z"/>
	</g>
	<g>
		<path style="fill:none;stroke:#000000;stroke-width:15;stroke-linecap:round;stroke-linejoin:round;stroke-miterlimit:10;" d="&#10;&#9;&#9;&#9;M298.101,453.158h94.629V205.081c0-15.635-5.574-30.758-15.722-42.653h0c-6.905-8.093-15.581-14.278-25.211-18.193&#10;&#9;&#9;&#9;c-7.843-3.189-12.842-10.97-12.842-19.437V98.328h-117.49v26.471c0,8.467-4.999,16.248-12.842,19.437&#10;&#9;&#9;&#9;c-9.63,3.915-18.306,10.1-25.211,18.193h0c-10.148,11.895-15.722,27.017-15.722,42.653v61.783"/>
		<path style="fill:none;stroke:#000000;stroke-width:15;stroke-linecap:round;stroke-linejoin:round;stroke-miterlimit:10;" d="&#10;&#9;&#9;&#9;M350.027,98.328H210.394c-7.368,0-13.341-5.973-13.341-13.341V72.183c0-7.368,5.973-13.341,13.341-13.341h139.634&#10;&#9;&#9;&#9;c7.368,0,13.341,5.973,13.341,13.341v12.804C363.368,92.355,357.395,98.328,350.027,98.328z"/>
		
			<polyline style="fill:none;stroke:#000000;stroke-width:15;stroke-linecap:round;stroke-linejoin:round;stroke-miterlimit:10;" points="&#10;&#9;&#9;&#9;261.334,379.816 392.73,379.816 392.73,213.891 167.69,213.891 &#9;&#9;"/>
		<g>
			
				<circle style="fill:none;stroke:#000000;stroke-width:15;stroke-linecap:round;stroke-linejoin:round;stroke-miterlimit:10;" cx="61.227" cy="313.438" r="16.934"/>
			
				<circle style="fill:none;stroke:#000000;stroke-width:15;stroke-linecap:round;stroke-linejoin:round;stroke-miterlimit:10;" cx="207.607" cy="313.438" r="16.934"/>
			
				<circle style="fill:none;stroke:#000000;stroke-width:15;stroke-linecap:round;stroke-linejoin:round;stroke-miterlimit:10;" cx="134.417" cy="313.438" r="16.934"/>
		</g>
		<g>
			
				<circle style="fill:none;stroke:#000000;stroke-width:15;stroke-linecap:round;stroke-linejoin:round;stroke-miterlimit:10;" cx="61.227" cy="406.585" r="16.934"/>
			
				<circle style="fill:none;stroke:#000000;stroke-width:15;stroke-linecap:round;stroke-linejoin:round;stroke-miterlimit:10;" cx="207.607" cy="406.585" r="16.934"/>
			
				<circle style="fill:none;stroke:#000000;stroke-width:15;stroke-linecap:round;stroke-linejoin:round;stroke-miterlimit:10;" cx="134.417" cy="406.585" r="16.934"/>
		</g>
		<path style="fill:none;stroke:#000000;stroke-width:15;stroke-linecap:round;stroke-linejoin:round;stroke-miterlimit:10;" d="&#10;&#9;&#9;&#9;M93.501,360.011H7.5v-81.559c0-6.4,5.188-11.588,11.588-11.588h230.658c6.4,0,11.588,5.188,11.588,11.588v81.559H131.417"/>
		<path style="fill:none;stroke:#000000;stroke-width:15;stroke-linecap:round;stroke-linejoin:round;stroke-miterlimit:10;" d="&#10;&#9;&#9;&#9;M261.334,360.011v93.147H19.088c-6.4,0-11.588-5.188-11.588-11.588v-81.559"/>
		<path style="fill:none;stroke:#000000;stroke-width:15;stroke-linecap:round;stroke-linejoin:round;stroke-miterlimit:10;" d="&#10;&#9;&#9;&#9;M473.151,453.158H392.73V289.329h92.009V441.57C484.739,447.97,479.551,453.158,473.151,453.158z"/>
		<path style="fill:none;stroke:#000000;stroke-width:15;stroke-linecap:round;stroke-linejoin:round;stroke-miterlimit:10;" d="&#10;&#9;&#9;&#9;M428.932,256.907h65.199c5.726,0,10.369,4.642,10.369,10.369v11.685c0,5.726-4.642,10.369-10.369,10.369H392.73"/>
		
			<rect x="438.735" y="328.987" style="fill:none;stroke:#000000;stroke-width:15;stroke-linecap:round;stroke-linejoin:round;stroke-miterlimit:10;" width="46.004" height="84.514"/>
		<path style="fill:none;stroke:#000000;stroke-width:15;stroke-linecap:round;stroke-linejoin:round;stroke-miterlimit:10;" d="&#10;&#9;&#9;&#9;M352.38,296.504h-53.126c-3.91,0-7.08-3.17-7.08-7.08v-15.479c0-3.91,3.17-7.08,7.08-7.08h53.126c3.91,0,7.08,3.17,7.08,7.08&#10;&#9;&#9;&#9;v15.479C359.46,293.334,356.29,296.504,352.38,296.504z"/>
		
			<line style="fill:none;stroke:#000000;stroke-width:15;stroke-linecap:round;stroke-linejoin:round;stroke-miterlimit:10;" x1="292.174" y1="322.655" x2="330.199" y2="322.655"/>
	</g>
</g>















</svg>
