<svg xmlns="http://www.w3.org/2000/svg" xmlns:xlink="http://www.w3.org/1999/xlink" xml:space="preserve" version="1.1" style="shape-rendering:geometricPrecision;text-rendering:geometricPrecision;image-rendering:optimizeQuality;" viewBox="0 0 846.66 1058.325" x="0px" y="0px" fill-rule="evenodd" clip-rule="evenodd"><defs><style type="text/css">
   
    .fil0 {fill:black;fill-rule:nonzero}
   
  </style></defs><g><path class="fil0" d="M144.62 578.9l30.7 0c100.95,-70.92 103.33,-70.68 162.46,-64.25 17.46,1.89 40.59,4.41 75.06,5.22l136.12 -78.59c15.88,-9.16 34.05,-11.02 50.51,-6.62 14.74,3.94 28.19,12.97 37.44,26.26 15.45,-8.3 32.89,-9.87 48.74,-5.63 16.44,4.4 31.29,15.12 40.48,31.05l0.71 1.27c15.55,-8.5 33.16,-10.14 49.15,-5.86 15.9,4.26 30.31,14.42 39.56,29.5 0.63,0.87 1.18,1.8 1.64,2.78 6.28,11.63 7.46,24.78 4.27,36.7 -3.16,11.78 -10.63,22.47 -21.7,29.42l-310.5 179.35c-11.39,6.58 -22.81,11.41 -34.69,14.59 -11.94,3.19 -24.22,4.73 -37.28,4.73l-273.41 0c-1.83,10.5 -6.92,19.94 -14.16,27.19 -9.26,9.25 -21.95,14.97 -35.89,14.97l-53.42 0c-9.35,0 -16.93,-7.58 -16.93,-16.93l0 -251.46c0,-9.35 7.58,-16.93 16.93,-16.93l87.28 0c9.35,0 16.93,7.58 16.93,16.93l0 26.31zm240.71 -196.66l-39.26 -36.36c-3.59,-3.32 -5.4,-7.84 -5.4,-12.37l-0.09 -37.05c0,-7.22 4.52,-13.39 10.89,-15.82l35.45 -16.12 2.11 -0.79c0.1,-0.03 35.84,-10.49 41.9,-10.49 47.71,0 50.58,27.21 53.96,59.45 0.5,4.75 1.02,9.69 1.74,14.2 0.67,4.2 -0.28,8.3 -2.39,11.64l-19.82 34.46c-2.76,4.81 -7.53,7.73 -12.65,8.34l-51.93 6.35c-5.64,0.66 -10.96,-1.53 -14.51,-5.44zm-10.89 -56.02l29.08 26.94 35.91 -4.35 13 -22.61 -1.14 -10.07c-1.65,-15.74 -3.05,-29.03 -20.36,-29.03 -1.66,0 -25.78,7.12 -31.17,8.71l-25.32 11.52 0 18.89zm-77.54 -261.03l5.69 27.4 20.59 14.57 46.78 27.01c4.83,2.79 7.75,7.62 8.32,12.77 0.01,0.06 2.71,28.79 4.51,31.49 13.16,19.74 23.45,16.73 35.79,8.5 4.15,-2.78 7.44,-5.16 10.91,-7.65 5.91,-4.25 12.19,-8.76 18.93,-13.02 2.8,-1.76 5.91,-2.6 8.99,-2.59l31.21 -0.06 21.24 -10.51c-8.11,-13.34 -17.77,-25.62 -28.75,-36.6 -35.19,-35.19 -83.82,-56.96 -137.52,-56.96 -16.1,0 -31.73,1.97 -46.69,5.65zm227.93 118.17l-23.72 11.74c-2.53,1.51 -5.48,2.37 -8.64,2.37l-30.16 0c-4.58,3.05 -8.95,6.19 -13.12,9.19 -4.37,3.13 -8.64,6.21 -11.9,8.38 -28.98,19.28 -52.94,26.56 -82.54,-17.83 -6,-9.01 -8.5,-27.5 -9.48,-38.27l-39.22 -22.65 -27.55 -19.47c-3.79,-2.35 -6.65,-6.19 -7.63,-10.9l-6.17 -29.71c-22,9.77 -41.84,23.5 -58.63,40.29 -4.92,4.92 -9.58,10.11 -13.96,15.54l12.63 12.63 49.97 25.52c1.61,0.82 3.03,1.87 4.25,3.09l39.08 38.98c3.31,3.31 4.96,7.64 4.96,11.97l0 57.55c0,3.52 -1.07,6.79 -2.91,9.5l-15.85 26.25 20.41 20.41c1.89,1.89 3.24,4.11 4.05,6.48l20.03 47.17c0.92,2.16 1.35,4.4 1.35,6.61l0.04 32.84 9.53 17.42 3.94 0.04c53.7,0 102.33,-21.77 137.52,-56.96 35.19,-35.19 56.96,-83.82 56.96,-137.52 0,-24.92 -4.7,-48.76 -13.24,-70.66zm-226.6 259.82c-1.26,-2.37 -1.97,-5.07 -1.97,-7.94l0 -33.7 -17.8 -41.91 -27.52 -27.52c-5.36,-5.38 -6.61,-13.91 -2.51,-20.7l20.71 -34.3 0 -45.87 -32.34 -32.34 -48.55 -24.79c-2.08,-0.83 -4.03,-2.08 -5.72,-3.77l-9.62 -9.62c-15.17,27.7 -23.8,59.49 -23.8,93.3 0,53.7 21.77,102.33 56.96,137.52 24.96,24.96 56.67,43.16 92.16,51.64zm45.36 -417.5c63.05,0 120.14,25.56 161.46,66.88 41.32,41.32 66.88,98.41 66.88,161.46 0,63.05 -25.56,120.14 -66.88,161.46 -41.32,41.32 -98.41,66.88 -161.46,66.88 -63.05,0 -120.14,-25.56 -161.46,-66.88 -41.32,-41.32 -66.88,-98.41 -66.88,-161.46 0,-61.11 24.25,-118.83 66.88,-161.46 41.32,-41.32 98.41,-66.88 161.46,-66.88zm-276.47 567.12c0,-9.35 7.58,-16.93 16.93,-16.93 9.35,0 16.93,7.58 16.93,16.93l0 67.25c0,9.35 -7.58,16.93 -16.93,16.93 -9.35,0 -16.93,-7.58 -16.93,-16.93l0 -67.25zm77.5 152.16l272.67 0c10.24,0 19.65,-1.15 28.56,-3.53 8.99,-2.41 17.7,-6.11 26.47,-11.17l309.67 -178.77c3.44,-2.22 5.79,-5.67 6.81,-9.48 1.08,-4.04 0.64,-8.5 -1.57,-12.33l-0.46 -0.86c-4.51,-7.33 -11.62,-12.3 -19.5,-14.41 -8.2,-2.19 -17.19,-1.3 -24.99,3.2l-212.35 122.6c-8.07,4.63 -18.39,1.85 -23.02,-6.22 -4.63,-8.07 -1.85,-18.39 6.22,-23.02l184.44 -106.49 -0.68 -1.34c-4.47,-7.76 -11.8,-13.01 -19.96,-15.19 -7.93,-2.12 -16.59,-1.36 -24.2,2.76 -49.19,30.06 -100.81,58.23 -150.81,87.1 0.4,2.95 0.61,5.96 0.61,9.01 0,13.75 -5.64,26.27 -14.7,35.34 -9.06,9.13 -21.6,14.77 -35.4,14.77l-135.75 0c-9.35,0 -16.93,-7.58 -16.93,-16.93 0,-9.35 7.58,-16.93 16.93,-16.93l135.75 0c4.45,0 8.52,-1.84 11.46,-4.78 2.95,-2.91 4.78,-6.99 4.78,-11.47 0,-9 -3.71,-17.22 -9.66,-23.17 -5.9,-5.98 -14.11,-9.66 -23.17,-9.66 -48.81,0 -79.55,-3.35 -101.64,-5.74 -47.56,-5.17 -48.97,-5.3 -143,60.79 -2.9,2.33 -6.58,3.72 -10.59,3.72l-35.99 0 0 132.2zm-33.86 -175.44l-53.42 0 0 217.6 36.49 0c4.67,0 8.92,-1.91 11.98,-4.95 3.04,-3.06 4.95,-7.31 4.95,-11.98l0 -200.67zm355.88 -41.77c6.01,3.17 11.5,7.22 16.27,12 2.13,2.05 4.08,4.27 5.88,6.62l118.66 -68.51c-4.4,-5.23 -10.29,-8.83 -16.7,-10.54 -8.2,-2.19 -17.19,-1.3 -24.99,3.2l-99.12 57.23z"/></g><text x="0" y="861.66" fill="#000000" font-size="5px" font-weight="bold" font-family="'Helvetica Neue', Helvetica, Arial-Unicode, Arial, Sans-serif">Created by arkan studio</text><text x="0" y="866.66" fill="#000000" font-size="5px" font-weight="bold" font-family="'Helvetica Neue', Helvetica, Arial-Unicode, Arial, Sans-serif">from the Noun Project</text></svg>