<svg xmlns="http://www.w3.org/2000/svg" data-name="Layer 1" viewBox="0 0 64 80" x="0px" y="0px"><path d="m51,32c0-9.94-8.06-18-18-18s-18,8.06-18,18c0,2.657.586,5.174,1.62,7.441l2.668-2.668-2.349-2.349c-.412-.412-.548-1.024-.35-1.571s.694-.93,1.274-.983l4.161-.378c.267-5.842,5.066-10.492,10.974-10.492,6.08,0,11,4.92,11,11,0,5.908-4.649,10.707-10.491,10.974l-.378,4.161c-.053.58-.437,1.077-.983,1.274s-1.159.063-1.571-.35l-2.349-2.349-2.668,2.668c2.267,1.034,4.783,1.62,7.44,1.62,9.94,0,18-8.06,18-18Z" style="" stroke-width=" 0px"/><path d="m15.654,11.275l.648-.362c.268-.149.605-.151.859.02.232.157.479.294.738.411.28.127.447.411.447.71v.723c.503.134,1.029.216,1.575.223.601.007,1.182-.072,1.734-.22v-.726c0-.299.167-.583.447-.71.259-.117.506-.254.738-.411.254-.171.591-.17.859-.02l.651.364c.788-.75,1.365-1.704,1.65-2.774l-1.123-.627c.054-.284.086-.576.086-.876s-.032-.591-.086-.876l1.124-.627c-.285-1.068-.864-2.02-1.654-2.772l-.648.362c-.268.15-.605.151-.859-.02-.232-.157-.479-.294-.738-.411-.28-.126-.447-.411-.447-.71v-.723c-.503-.134-1.029-.216-1.575-.223-.601-.008-1.182.072-1.734.22v.726c0,.299-.167.583-.447.71-.259.117-.506.255-.738.411-.253.171-.591.17-.859.02l-.651-.364c-.788.75-1.365,1.704-1.65,2.774l1.123.627c-.054.284-.086.576-.086.876s.032.591.086.876l-1.124.627c.285,1.068.864,2.021,1.654,2.772Zm4.346-6.417c1.183,0,2.143.959,2.143,2.143s-.959,2.143-2.143,2.143-2.143-.959-2.143-2.143.959-2.143,2.143-2.143Z" style="" stroke-width=" 0px"/><path d="m48.921,61c.601.007,1.182-.072,1.734-.22v-.726c0-.299.167-.583.447-.71.259-.117.506-.254.738-.411.254-.171.591-.17.859-.02l.651.364c.788-.75,1.365-1.704,1.65-2.774l-1.123-.627c.054-.284.086-.576.086-.876s-.032-.591-.086-.876l1.124-.627c-.285-1.068-.864-2.02-1.654-2.772l-.648.362c-.268.15-.605.151-.859-.02-.232-.157-.479-.294-.738-.411-.28-.126-.447-.411-.447-.71v-.723c-.503-.134-1.029-.216-1.575-.223-.601-.008-1.182.072-1.734.22v.726c0,.299-.167.583-.447.71-.259.117-.506.255-.738.411-.253.171-.591.17-.859.02l-.651-.364c-.788.75-1.365,1.704-1.65,2.774l1.123.627c-.054.284-.086.576-.086.876s.032.591.086.876l-1.124.627c.285,1.068.864,2.021,1.654,2.772l.648-.362c.268-.149.605-.151.859.02.232.157.479.294.738.411.28.127.447.411.447.71v.723c.503.134,1.029.216,1.575.223Zm-2.063-6c0-1.183.959-2.143,2.143-2.143s2.143.959,2.143,2.143-.959,2.143-2.143,2.143-2.143-.959-2.143-2.143Z" style="" stroke-width=" 0px"/><polygon points="28.227 43.591 31.636 47 33 32 18 33.364 21.409 36.773 3 55.182 9.818 62 28.227 43.591" style="" stroke-width=" 0px"/><path d="m39,32c0-3.312-2.688-6-6-6-2.982,0-5.451,2.181-5.915,5.032l5.779-.525c.442-.043.882.119,1.196.433s.474.753.434,1.196l-.525,5.779c2.851-.465,5.031-2.933,5.031-5.915Z" style="" stroke-width=" 0px"/><path d="m33,5c14.888,0,27,12.112,27,27,0,6.343-2.243,12.507-6.317,17.357l1.531,1.286c4.376-5.209,6.786-11.83,6.786-18.643,0-15.991-13.01-29-29-29-2.096,0-4.187.225-6.214.667l.428,1.954c1.887-.413,3.833-.622,5.786-.622Z" style="" stroke-width=" 0px"/><path d="m10.196,46.463c-2.745-4.319-4.196-9.321-4.196-14.463,0-7.316,2.878-14.165,8.104-19.286l-1.4-1.429c-5.613,5.5-8.704,12.856-8.704,20.714,0,5.523,1.559,10.896,4.509,15.537l1.688-1.073Z" style="" stroke-width=" 0px"/><path d="m18.536,54.804l-1.072,1.688c4.641,2.95,10.013,4.509,15.536,4.509,3.191,0,6.328-.515,9.321-1.531l-.643-1.894c-2.786.945-5.706,1.425-8.679,1.425-5.143,0-10.145-1.451-14.464-4.196Z" style="" stroke-width=" 0px"/><text x="0" y="79" fill="#000000" font-size="5px" font-weight="bold" font-family="'Helvetica Neue', Helvetica, Arial-Unicode, Arial, Sans-serif">Created by Nithinan Tatah</text><text x="0" y="84" fill="#000000" font-size="5px" font-weight="bold" font-family="'Helvetica Neue', Helvetica, Arial-Unicode, Arial, Sans-serif">from the Noun Project</text></svg>